<svg width="93" height="27" viewBox="0 0 93 27" fill="none" xmlns="http://www.w3.org/2000/svg">
<rect opacity="0.2" width="93" height="27" rx="4.5" fill="#00B69B"/>
<path d="M20.86 18.12C19.98 18.12 19.224 17.944 18.592 17.592C17.968 17.232 17.488 16.728 17.152 16.08C16.816 15.424 16.648 14.652 16.648 13.764C16.648 12.876 16.816 12.108 17.152 11.46C17.488 10.812 17.968 10.312 18.592 9.96C19.224 9.6 19.98 9.42 20.86 9.42C21.428 9.42 21.964 9.508 22.468 9.684C22.98 9.86 23.4 10.112 23.728 10.44L23.224 11.664C22.864 11.36 22.496 11.14 22.12 11.004C21.744 10.86 21.34 10.788 20.908 10.788C20.052 10.788 19.4 11.048 18.952 11.568C18.504 12.08 18.28 12.812 18.28 13.764C18.28 14.716 18.504 15.452 18.952 15.972C19.4 16.492 20.052 16.752 20.908 16.752C21.34 16.752 21.744 16.684 22.12 16.548C22.496 16.404 22.864 16.18 23.224 15.876L23.728 17.1C23.4 17.42 22.98 17.672 22.468 17.856C21.964 18.032 21.428 18.12 20.86 18.12ZM27.1787 18.12C26.5707 18.12 26.0427 17.996 25.5947 17.748C25.1467 17.5 24.7987 17.148 24.5507 16.692C24.3027 16.228 24.1787 15.684 24.1787 15.06C24.1787 14.436 24.3027 13.896 24.5507 13.44C24.7987 12.984 25.1467 12.632 25.5947 12.384C26.0427 12.136 26.5707 12.012 27.1787 12.012C27.7867 12.012 28.3147 12.136 28.7627 12.384C29.2107 12.632 29.5587 12.984 29.8067 13.44C30.0547 13.896 30.1787 14.436 30.1787 15.06C30.1787 15.684 30.0547 16.228 29.8067 16.692C29.5587 17.148 29.2107 17.5 28.7627 17.748C28.3147 17.996 27.7867 18.12 27.1787 18.12ZM27.1787 16.98C27.6267 16.98 27.9867 16.82 28.2587 16.5C28.5307 16.172 28.6667 15.692 28.6667 15.06C28.6667 14.42 28.5307 13.944 28.2587 13.632C27.9867 13.312 27.6267 13.152 27.1787 13.152C26.7307 13.152 26.3707 13.312 26.0987 13.632C25.8267 13.944 25.6907 14.42 25.6907 15.06C25.6907 15.692 25.8267 16.172 26.0987 16.5C26.3707 16.82 26.7307 16.98 27.1787 16.98ZM31.4407 18V12.132H32.9047V13.032C33.0807 12.712 33.3247 12.464 33.6367 12.288C33.9487 12.104 34.3087 12.012 34.7167 12.012C35.5967 12.012 36.1727 12.396 36.4447 13.164C36.6287 12.804 36.8927 12.524 37.2367 12.324C37.5807 12.116 37.9727 12.012 38.4127 12.012C39.7327 12.012 40.3927 12.816 40.3927 14.424V18H38.8927V14.484C38.8927 14.036 38.8167 13.708 38.6647 13.5C38.5207 13.292 38.2727 13.188 37.9207 13.188C37.5287 13.188 37.2207 13.328 36.9967 13.608C36.7727 13.88 36.6607 14.26 36.6607 14.748V18H35.1607V14.484C35.1607 14.036 35.0847 13.708 34.9327 13.5C34.7887 13.292 34.5447 13.188 34.2007 13.188C33.8087 13.188 33.5007 13.328 33.2767 13.608C33.0527 13.88 32.9407 14.26 32.9407 14.748V18H31.4407ZM41.9402 20.16V12.132H43.4042V13.068C43.5722 12.748 43.8242 12.492 44.1602 12.3C44.5042 12.108 44.8922 12.012 45.3242 12.012C45.8362 12.012 46.2842 12.136 46.6682 12.384C47.0602 12.632 47.3642 12.984 47.5802 13.44C47.7962 13.888 47.9042 14.428 47.9042 15.06C47.9042 15.684 47.7962 16.228 47.5802 16.692C47.3642 17.148 47.0642 17.5 46.6802 17.748C46.2962 17.996 45.8442 18.12 45.3242 18.12C44.9082 18.12 44.5322 18.032 44.1962 17.856C43.8682 17.672 43.6162 17.428 43.4402 17.124V20.16H41.9402ZM44.9042 16.98C45.3522 16.98 45.7122 16.82 45.9842 16.5C46.2562 16.172 46.3922 15.692 46.3922 15.06C46.3922 14.42 46.2562 13.944 45.9842 13.632C45.7122 13.312 45.3522 13.152 44.9042 13.152C44.4562 13.152 44.0962 13.312 43.8242 13.632C43.5522 13.944 43.4162 14.42 43.4162 15.06C43.4162 15.692 43.5522 16.172 43.8242 16.5C44.0962 16.82 44.4562 16.98 44.9042 16.98ZM51.1755 18.12C50.4795 18.12 49.9635 17.932 49.6275 17.556C49.2995 17.172 49.1355 16.612 49.1355 15.876V9.54H50.6355V15.804C50.6355 16.524 50.9395 16.884 51.5475 16.884C51.6355 16.884 51.7235 16.88 51.8115 16.872C51.8995 16.864 51.9835 16.848 52.0635 16.824L52.0395 18.012C51.7515 18.084 51.4635 18.12 51.1755 18.12ZM55.8009 18.12C55.1369 18.12 54.5649 17.996 54.0849 17.748C53.6049 17.5 53.2329 17.148 52.9689 16.692C52.7129 16.236 52.5849 15.696 52.5849 15.072C52.5849 14.464 52.7089 13.932 52.9569 13.476C53.2129 13.02 53.5609 12.664 54.0009 12.408C54.4489 12.144 54.9569 12.012 55.5249 12.012C56.3569 12.012 57.0129 12.276 57.4929 12.804C57.9809 13.332 58.2249 14.052 58.2249 14.964V15.408H54.0249C54.1369 16.456 54.7369 16.98 55.8249 16.98C56.1529 16.98 56.4809 16.932 56.8089 16.836C57.1369 16.732 57.4369 16.572 57.7089 16.356L58.1289 17.364C57.8489 17.596 57.4969 17.78 57.0729 17.916C56.6489 18.052 56.2249 18.12 55.8009 18.12ZM55.5849 13.032C55.1449 13.032 54.7889 13.168 54.5169 13.44C54.2449 13.712 54.0809 14.08 54.0249 14.544H56.9769C56.9449 14.056 56.8089 13.684 56.5689 13.428C56.3369 13.164 56.0089 13.032 55.5849 13.032ZM62.0774 18.12C60.5254 18.12 59.7494 17.352 59.7494 15.816V13.26H58.6214V12.132H59.7494V10.38H61.2494V12.132H63.0254V13.26H61.2494V15.732C61.2494 16.116 61.3334 16.404 61.5014 16.596C61.6694 16.788 61.9414 16.884 62.3174 16.884C62.4294 16.884 62.5454 16.872 62.6654 16.848C62.7854 16.816 62.9094 16.784 63.0374 16.752L63.2654 17.856C63.1214 17.936 62.9374 18 62.7134 18.048C62.4974 18.096 62.2854 18.12 62.0774 18.12ZM66.8283 18.12C66.1643 18.12 65.5923 17.996 65.1123 17.748C64.6323 17.5 64.2603 17.148 63.9963 16.692C63.7403 16.236 63.6123 15.696 63.6123 15.072C63.6123 14.464 63.7363 13.932 63.9843 13.476C64.2403 13.02 64.5883 12.664 65.0283 12.408C65.4763 12.144 65.9843 12.012 66.5523 12.012C67.3843 12.012 68.0403 12.276 68.5203 12.804C69.0083 13.332 69.2523 14.052 69.2523 14.964V15.408H65.0523C65.1643 16.456 65.7643 16.98 66.8523 16.98C67.1803 16.98 67.5083 16.932 67.8363 16.836C68.1643 16.732 68.4643 16.572 68.7363 16.356L69.1562 17.364C68.8763 17.596 68.5243 17.78 68.1003 17.916C67.6763 18.052 67.2523 18.12 66.8283 18.12ZM66.6123 13.032C66.1723 13.032 65.8163 13.168 65.5443 13.44C65.2723 13.712 65.1083 14.08 65.0523 14.544H68.0043C67.9723 14.056 67.8363 13.684 67.5963 13.428C67.3643 13.164 67.0363 13.032 66.6123 13.032ZM72.6962 18.12C72.1842 18.12 71.7322 17.996 71.3402 17.748C70.9562 17.5 70.6562 17.148 70.4402 16.692C70.2242 16.228 70.1162 15.684 70.1162 15.06C70.1162 14.428 70.2242 13.888 70.4402 13.44C70.6562 12.984 70.9562 12.632 71.3402 12.384C71.7322 12.136 72.1842 12.012 72.6962 12.012C73.1122 12.012 73.4882 12.104 73.8242 12.288C74.1602 12.472 74.4122 12.716 74.5802 13.02V9.54H76.0802V18H74.6162V17.028C74.4562 17.364 74.2042 17.632 73.8602 17.832C73.5162 18.024 73.1282 18.12 72.6962 18.12ZM73.1162 16.98C73.5642 16.98 73.9242 16.82 74.1962 16.5C74.4682 16.172 74.6042 15.692 74.6042 15.06C74.6042 14.42 74.4682 13.944 74.1962 13.632C73.9242 13.312 73.5642 13.152 73.1162 13.152C72.6682 13.152 72.3082 13.312 72.0362 13.632C71.7642 13.944 71.6282 14.42 71.6282 15.06C71.6282 15.692 71.7642 16.172 72.0362 16.5C72.3082 16.82 72.6682 16.98 73.1162 16.98Z" fill="#00B69B"/>
</svg>
