<svg width="60" height="22" viewBox="0 0 60 22" fill="none" xmlns="http://www.w3.org/2000/svg">
<rect opacity="0.2" width="60" height="22" rx="3" fill="#D456FD"/>
<path d="M10.984 15V6.54H16.36V7.548H12.232V10.248H16.108V11.256H12.232V15H10.984ZM17.3793 15V9.144H18.5553V10.188C18.8593 9.492 19.4913 9.104 20.4513 9.024L20.8473 9L20.9313 10.032L20.1993 10.104C19.1353 10.208 18.6033 10.756 18.6033 11.748V15H17.3793ZM21.7479 7.788V6.528H23.1639V7.788H21.7479ZM21.8559 15V9.144H23.0679V15H21.8559ZM27.5219 15.108C26.5619 15.108 25.8059 14.84 25.2539 14.304C24.7019 13.76 24.4259 13.02 24.4259 12.084C24.4259 11.484 24.5459 10.956 24.7859 10.5C25.0339 10.036 25.3739 9.676 25.8059 9.42C26.2379 9.164 26.7339 9.036 27.2939 9.036C28.1019 9.036 28.7379 9.296 29.2019 9.816C29.6659 10.328 29.8979 11.036 29.8979 11.94V12.348H25.6019C25.6899 13.564 26.3339 14.172 27.5339 14.172C27.8699 14.172 28.1979 14.12 28.5179 14.016C28.8459 13.912 29.1539 13.74 29.4419 13.5L29.8019 14.34C29.5379 14.58 29.1979 14.768 28.7819 14.904C28.3659 15.04 27.9459 15.108 27.5219 15.108ZM27.3419 9.888C26.8379 9.888 26.4379 10.044 26.1419 10.356C25.8459 10.668 25.6659 11.084 25.6019 11.604H28.8779C28.8539 11.06 28.7099 10.64 28.4459 10.344C28.1819 10.04 27.8139 9.888 27.3419 9.888ZM31.2192 15V9.144H32.3952V10.116C32.5952 9.764 32.8672 9.496 33.2112 9.312C33.5632 9.128 33.9552 9.036 34.3872 9.036C35.7712 9.036 36.4632 9.82 36.4632 11.388V15H35.2512V11.46C35.2512 10.956 35.1512 10.588 34.9512 10.356C34.7592 10.124 34.4552 10.008 34.0392 10.008C33.5512 10.008 33.1592 10.164 32.8632 10.476C32.5752 10.78 32.4312 11.184 32.4312 11.688V15H31.2192ZM40.3652 15.108C39.8533 15.108 39.4013 14.988 39.0093 14.748C38.6253 14.5 38.3253 14.148 38.1093 13.692C37.8933 13.236 37.7853 12.696 37.7853 12.072C37.7853 11.448 37.8933 10.912 38.1093 10.464C38.3253 10.008 38.6253 9.656 39.0093 9.408C39.3933 9.16 39.8453 9.036 40.3652 9.036C40.8053 9.036 41.1973 9.132 41.5413 9.324C41.8853 9.516 42.1413 9.776 42.3093 10.104V6.54H43.5213V15H42.3333V13.98C42.1653 14.332 41.9053 14.608 41.5533 14.808C41.2093 15.008 40.8133 15.108 40.3652 15.108ZM40.6773 14.172C41.1733 14.172 41.5733 13.992 41.8773 13.632C42.1813 13.272 42.3333 12.752 42.3333 12.072C42.3333 11.392 42.1813 10.876 41.8773 10.524C41.5733 10.164 41.1733 9.984 40.6773 9.984C40.1733 9.984 39.7693 10.164 39.4653 10.524C39.1613 10.876 39.0093 11.392 39.0093 12.072C39.0093 12.752 39.1613 13.272 39.4653 13.632C39.7693 13.992 40.1733 14.172 40.6773 14.172ZM47.2751 15.108C46.7951 15.108 46.3471 15.048 45.9311 14.928C45.5151 14.8 45.1671 14.624 44.8871 14.4L45.2351 13.584C45.5311 13.792 45.8551 13.952 46.2071 14.064C46.5671 14.176 46.9271 14.232 47.2871 14.232C47.7111 14.232 48.0311 14.156 48.2471 14.004C48.4631 13.852 48.5711 13.648 48.5711 13.392C48.5711 13.184 48.4991 13.024 48.3551 12.912C48.2111 12.792 47.9951 12.7 47.7071 12.636L46.5671 12.408C45.5591 12.2 45.0551 11.68 45.0551 10.848C45.0551 10.296 45.2751 9.856 45.7151 9.528C46.1551 9.2 46.7311 9.036 47.4431 9.036C47.8511 9.036 48.2391 9.096 48.6071 9.216C48.9831 9.336 49.2951 9.516 49.5431 9.756L49.1951 10.572C48.9551 10.364 48.6791 10.204 48.3671 10.092C48.0551 9.98 47.7471 9.924 47.4431 9.924C47.0271 9.924 46.7111 10.004 46.4951 10.164C46.2791 10.316 46.1711 10.524 46.1711 10.788C46.1711 11.188 46.4351 11.444 46.9631 11.556L48.1031 11.784C48.6231 11.888 49.0151 12.064 49.2791 12.312C49.5511 12.56 49.6871 12.896 49.6871 13.32C49.6871 13.88 49.4671 14.32 49.0271 14.64C48.5871 14.952 48.0031 15.108 47.2751 15.108Z" fill="#D456FD"/>
</svg>
