<svg width="93" height="27" viewBox="0 0 93 27" fill="none" xmlns="http://www.w3.org/2000/svg">
<rect opacity="0.2" width="93" height="27" rx="4.5" fill="#FFA756"/>
<path d="M28.7961 18.12C27.9801 18.12 27.2641 17.94 26.6481 17.58C26.0401 17.22 25.5681 16.716 25.2321 16.068C24.8961 15.412 24.7281 14.644 24.7281 13.764C24.7281 12.876 24.8961 12.108 25.2321 11.46C25.5681 10.812 26.0401 10.312 26.6481 9.96C27.2561 9.6 27.9721 9.42 28.7961 9.42C29.6201 9.42 30.3361 9.6 30.9441 9.96C31.5521 10.312 32.0241 10.812 32.3601 11.46C32.6961 12.108 32.8641 12.872 32.8641 13.752C32.8641 14.64 32.6961 15.412 32.3601 16.068C32.0241 16.716 31.5521 17.22 30.9441 17.58C30.3361 17.94 29.6201 18.12 28.7961 18.12ZM28.7961 16.8C29.5721 16.8 30.1761 16.532 30.6081 15.996C31.0401 15.46 31.2561 14.716 31.2561 13.764C31.2561 12.804 31.0401 12.06 30.6081 11.532C30.1841 11.004 29.5801 10.74 28.7961 10.74C28.0201 10.74 27.4161 11.004 26.9841 11.532C26.5521 12.06 26.3361 12.804 26.3361 13.764C26.3361 14.716 26.5521 15.46 26.9841 15.996C27.4161 16.532 28.0201 16.8 28.7961 16.8ZM34.282 18V12.132H35.746V13.044C35.946 12.708 36.214 12.452 36.55 12.276C36.894 12.1 37.278 12.012 37.702 12.012C39.086 12.012 39.778 12.816 39.778 14.424V18H38.278V14.496C38.278 14.04 38.19 13.708 38.014 13.5C37.846 13.292 37.582 13.188 37.222 13.188C36.782 13.188 36.43 13.328 36.166 13.608C35.91 13.88 35.782 14.244 35.782 14.7V18H34.282ZM44.6799 18V9.54H46.2159V13.068H50.5719V9.54H52.1079V18H50.5719V14.352H46.2159V18H44.6799ZM56.4931 18.12C55.8851 18.12 55.3571 17.996 54.9091 17.748C54.4611 17.5 54.1131 17.148 53.8651 16.692C53.6171 16.228 53.4931 15.684 53.4931 15.06C53.4931 14.436 53.6171 13.896 53.8651 13.44C54.1131 12.984 54.4611 12.632 54.9091 12.384C55.3571 12.136 55.8851 12.012 56.4931 12.012C57.1011 12.012 57.6291 12.136 58.0771 12.384C58.5251 12.632 58.8731 12.984 59.1211 13.44C59.3691 13.896 59.4931 14.436 59.4931 15.06C59.4931 15.684 59.3691 16.228 59.1211 16.692C58.8731 17.148 58.5251 17.5 58.0771 17.748C57.6291 17.996 57.1011 18.12 56.4931 18.12ZM56.4931 16.98C56.9411 16.98 57.3011 16.82 57.5731 16.5C57.8451 16.172 57.9811 15.692 57.9811 15.06C57.9811 14.42 57.8451 13.944 57.5731 13.632C57.3011 13.312 56.9411 13.152 56.4931 13.152C56.0451 13.152 55.6851 13.312 55.4131 13.632C55.1411 13.944 55.0051 14.42 55.0051 15.06C55.0051 15.692 55.1411 16.172 55.4131 16.5C55.6851 16.82 56.0451 16.98 56.4931 16.98ZM62.7712 18.12C62.0752 18.12 61.5592 17.932 61.2232 17.556C60.8952 17.172 60.7312 16.612 60.7312 15.876V9.54H62.2312V15.804C62.2312 16.524 62.5352 16.884 63.1432 16.884C63.2312 16.884 63.3192 16.88 63.4072 16.872C63.4952 16.864 63.5792 16.848 63.6592 16.824L63.6352 18.012C63.3472 18.084 63.0592 18.12 62.7712 18.12ZM66.7606 18.12C66.2486 18.12 65.7966 17.996 65.4046 17.748C65.0206 17.5 64.7206 17.148 64.5046 16.692C64.2886 16.228 64.1806 15.684 64.1806 15.06C64.1806 14.428 64.2886 13.888 64.5046 13.44C64.7206 12.984 65.0206 12.632 65.4046 12.384C65.7966 12.136 66.2486 12.012 66.7606 12.012C67.1766 12.012 67.5526 12.104 67.8886 12.288C68.2246 12.472 68.4766 12.716 68.6446 13.02V9.54H70.1446V18H68.6806V17.028C68.5206 17.364 68.2686 17.632 67.9246 17.832C67.5806 18.024 67.1926 18.12 66.7606 18.12ZM67.1806 16.98C67.6286 16.98 67.9886 16.82 68.2606 16.5C68.5326 16.172 68.6686 15.692 68.6686 15.06C68.6686 14.42 68.5326 13.944 68.2606 13.632C67.9886 13.312 67.6286 13.152 67.1806 13.152C66.7326 13.152 66.3726 13.312 66.1006 13.632C65.8286 13.944 65.6926 14.42 65.6926 15.06C65.6926 15.692 65.8286 16.172 66.1006 16.5C66.3726 16.82 66.7326 16.98 67.1806 16.98Z" fill="#FFA756"/>
</svg>
