<svg width="60" height="22" viewBox="0 0 60 22" fill="none" xmlns="http://www.w3.org/2000/svg">
<rect opacity="0.2" width="60" height="22" rx="3" fill="#00B69B"/>
<path d="M10.0387 15V6.54H13.5427C14.4547 6.54 15.1587 6.768 15.6547 7.224C16.1507 7.672 16.3987 8.304 16.3987 9.12C16.3987 9.944 16.1507 10.584 15.6547 11.04C15.1587 11.488 14.4547 11.712 13.5427 11.712H11.2867V15H10.0387ZM11.2867 10.716H13.3627C14.5787 10.716 15.1867 10.184 15.1867 9.12C15.1867 8.064 14.5787 7.536 13.3627 7.536H11.2867V10.716ZM17.4887 15V9.144H18.6647V10.188C18.9687 9.492 19.6007 9.104 20.5607 9.024L20.9567 9L21.0407 10.032L20.3087 10.104C19.2447 10.208 18.7127 10.756 18.7127 11.748V15H17.4887ZM21.8573 7.788V6.528H23.2733V7.788H21.8573ZM21.9653 15V9.144H23.1773V15H21.9653ZM24.9073 15V9.144H26.0833V10.092C26.2593 9.756 26.5033 9.496 26.8153 9.312C27.1273 9.128 27.4913 9.036 27.9073 9.036C28.8033 9.036 29.3833 9.428 29.6473 10.212C29.8313 9.844 30.0953 9.556 30.4393 9.348C30.7833 9.14 31.1753 9.036 31.6153 9.036C32.9273 9.036 33.5833 9.82 33.5833 11.388V15H32.3713V11.448C32.3713 10.952 32.2833 10.588 32.1073 10.356C31.9393 10.124 31.6593 10.008 31.2673 10.008C30.8273 10.008 30.4793 10.164 30.2233 10.476C29.9673 10.78 29.8393 11.196 29.8393 11.724V15H28.6273V11.448C28.6273 10.952 28.5433 10.588 28.3753 10.356C28.2073 10.124 27.9273 10.008 27.5353 10.008C27.0953 10.008 26.7473 10.164 26.4913 10.476C26.2433 10.78 26.1193 11.196 26.1193 11.724V15H24.9073ZM37.1498 15.108C36.7418 15.108 36.3778 15.028 36.0578 14.868C35.7378 14.708 35.4818 14.492 35.2898 14.22C35.1058 13.948 35.0138 13.64 35.0138 13.296C35.0138 12.864 35.1218 12.524 35.3378 12.276C35.5618 12.028 35.9258 11.848 36.4298 11.736C36.9418 11.624 37.6298 11.568 38.4938 11.568H38.9018V11.256C38.9018 10.8 38.8058 10.472 38.6138 10.272C38.4218 10.072 38.1058 9.972 37.6658 9.972C37.3298 9.972 36.9938 10.024 36.6578 10.128C36.3218 10.224 35.9778 10.38 35.6258 10.596L35.2538 9.744C35.5578 9.528 35.9378 9.356 36.3938 9.228C36.8498 9.1 37.2858 9.036 37.7018 9.036C38.5018 9.036 39.0938 9.228 39.4778 9.612C39.8618 9.988 40.0538 10.58 40.0538 11.388V15H38.9138V14.028C38.7698 14.364 38.5458 14.628 38.2418 14.82C37.9378 15.012 37.5738 15.108 37.1498 15.108ZM37.3898 14.244C37.8218 14.244 38.1818 14.092 38.4698 13.788C38.7578 13.484 38.9018 13.1 38.9018 12.636V12.312H38.5058C37.9218 12.312 37.4618 12.34 37.1258 12.396C36.7978 12.452 36.5618 12.548 36.4178 12.684C36.2818 12.812 36.2138 12.992 36.2138 13.224C36.2138 13.528 36.3178 13.776 36.5258 13.968C36.7338 14.152 37.0218 14.244 37.3898 14.244ZM41.7231 15V9.144H42.8991V10.188C43.2031 9.492 43.8351 9.104 44.7951 9.024L45.1911 9L45.2751 10.032L44.5431 10.104C43.4791 10.208 42.9471 10.756 42.9471 11.748V15H41.7231ZM47.1629 17.16L48.2069 14.844L45.7589 9.144H47.0549L48.8549 13.596L50.6789 9.144H51.9269L48.4349 17.16H47.1629Z" fill="#00B69B"/>
</svg>
