<svg width="93" height="27" viewBox="0 0 93 27" fill="none" xmlns="http://www.w3.org/2000/svg">
<rect opacity="0.2" width="93" height="27" rx="4.5" fill="#6226EF"/>
<path d="M17.2658 18V9.54H20.9378C21.8658 9.54 22.5818 9.772 23.0858 10.236C23.5898 10.7 23.8418 11.348 23.8418 12.18C23.8418 13.012 23.5898 13.664 23.0858 14.136C22.5818 14.6 21.8658 14.832 20.9378 14.832H18.8018V18H17.2658ZM18.8018 13.62H20.6978C21.8018 13.62 22.3538 13.14 22.3538 12.18C22.3538 11.228 21.8018 10.752 20.6978 10.752H18.8018V13.62ZM24.8327 18V12.132H26.2967V13.164C26.5847 12.468 27.2007 12.084 28.1447 12.012L28.6007 11.976L28.6967 13.248L27.8327 13.332C26.8487 13.428 26.3567 13.932 26.3567 14.844V18H24.8327ZM32.1142 18.12C31.5062 18.12 30.9782 17.996 30.5302 17.748C30.0822 17.5 29.7342 17.148 29.4862 16.692C29.2382 16.228 29.1142 15.684 29.1142 15.06C29.1142 14.436 29.2382 13.896 29.4862 13.44C29.7342 12.984 30.0822 12.632 30.5302 12.384C30.9782 12.136 31.5062 12.012 32.1142 12.012C32.7222 12.012 33.2502 12.136 33.6982 12.384C34.1462 12.632 34.4942 12.984 34.7422 13.44C34.9902 13.896 35.1142 14.436 35.1142 15.06C35.1142 15.684 34.9902 16.228 34.7422 16.692C34.4942 17.148 34.1462 17.5 33.6982 17.748C33.2502 17.996 32.7222 18.12 32.1142 18.12ZM32.1142 16.98C32.5622 16.98 32.9222 16.82 33.1942 16.5C33.4662 16.172 33.6022 15.692 33.6022 15.06C33.6022 14.42 33.4662 13.944 33.1942 13.632C32.9222 13.312 32.5622 13.152 32.1142 13.152C31.6662 13.152 31.3062 13.312 31.0342 13.632C30.7622 13.944 30.6262 14.42 30.6262 15.06C30.6262 15.692 30.7622 16.172 31.0342 16.5C31.3062 16.82 31.6662 16.98 32.1142 16.98ZM39.0643 18.12C38.4483 18.12 37.9123 17.996 37.4563 17.748C37.0003 17.492 36.6483 17.132 36.4003 16.668C36.1523 16.204 36.0283 15.66 36.0283 15.036C36.0283 14.412 36.1523 13.876 36.4003 13.428C36.6483 12.972 37.0003 12.624 37.4563 12.384C37.9123 12.136 38.4483 12.012 39.0643 12.012C39.4403 12.012 39.8123 12.072 40.1803 12.192C40.5483 12.312 40.8523 12.48 41.0923 12.696L40.6483 13.74C40.4403 13.556 40.2043 13.416 39.9403 13.32C39.6843 13.224 39.4363 13.176 39.1963 13.176C38.6763 13.176 38.2723 13.34 37.9843 13.668C37.7043 13.988 37.5643 14.448 37.5643 15.048C37.5643 15.64 37.7043 16.108 37.9843 16.452C38.2723 16.788 38.6763 16.956 39.1963 16.956C39.4283 16.956 39.6763 16.908 39.9403 16.812C40.2043 16.716 40.4403 16.572 40.6483 16.38L41.0923 17.436C40.8523 17.644 40.5443 17.812 40.1683 17.94C39.8003 18.06 39.4323 18.12 39.0643 18.12ZM44.7872 18.12C44.1232 18.12 43.5512 17.996 43.0712 17.748C42.5912 17.5 42.2192 17.148 41.9552 16.692C41.6992 16.236 41.5712 15.696 41.5712 15.072C41.5712 14.464 41.6952 13.932 41.9432 13.476C42.1992 13.02 42.5472 12.664 42.9872 12.408C43.4352 12.144 43.9432 12.012 44.5112 12.012C45.3432 12.012 45.9992 12.276 46.4792 12.804C46.9672 13.332 47.2112 14.052 47.2112 14.964V15.408H43.0112C43.1232 16.456 43.7232 16.98 44.8112 16.98C45.1392 16.98 45.4672 16.932 45.7952 16.836C46.1232 16.732 46.4232 16.572 46.6952 16.356L47.1152 17.364C46.8352 17.596 46.4832 17.78 46.0592 17.916C45.6352 18.052 45.2112 18.12 44.7872 18.12ZM44.5712 13.032C44.1312 13.032 43.7752 13.168 43.5032 13.44C43.2312 13.712 43.0672 14.08 43.0112 14.544H45.9632C45.9312 14.056 45.7952 13.684 45.5552 13.428C45.3232 13.164 44.9952 13.032 44.5712 13.032ZM50.5471 18.12C50.0511 18.12 49.5871 18.06 49.1551 17.94C48.7231 17.82 48.3631 17.648 48.0751 17.424L48.4591 16.44C48.7551 16.64 49.0871 16.796 49.4551 16.908C49.8231 17.012 50.1911 17.064 50.5591 17.064C50.9431 17.064 51.2271 17 51.4111 16.872C51.6031 16.736 51.6991 16.56 51.6991 16.344C51.6991 16.008 51.4511 15.792 50.9551 15.696L49.7551 15.468C48.7391 15.276 48.2311 14.748 48.2311 13.884C48.2311 13.5 48.3351 13.168 48.5431 12.888C48.7591 12.608 49.0551 12.392 49.4311 12.24C49.8071 12.088 50.2391 12.012 50.7271 12.012C51.1431 12.012 51.5431 12.072 51.9271 12.192C52.3111 12.304 52.6391 12.476 52.9111 12.708L52.5031 13.692C52.2711 13.5 51.9911 13.348 51.6631 13.236C51.3431 13.124 51.0351 13.068 50.7391 13.068C50.3471 13.068 50.0551 13.136 49.8631 13.272C49.6791 13.408 49.5871 13.588 49.5871 13.812C49.5871 14.164 49.8151 14.38 50.2711 14.46L51.4711 14.688C51.9911 14.784 52.3831 14.96 52.6471 15.216C52.9191 15.472 53.0551 15.816 53.0551 16.248C53.0551 16.832 52.8271 17.292 52.3711 17.628C51.9151 17.956 51.3071 18.12 50.5471 18.12ZM56.4065 18.12C55.9105 18.12 55.4465 18.06 55.0145 17.94C54.5825 17.82 54.2225 17.648 53.9345 17.424L54.3185 16.44C54.6145 16.64 54.9465 16.796 55.3145 16.908C55.6825 17.012 56.0505 17.064 56.4185 17.064C56.8025 17.064 57.0865 17 57.2705 16.872C57.4625 16.736 57.5585 16.56 57.5585 16.344C57.5585 16.008 57.3105 15.792 56.8145 15.696L55.6145 15.468C54.5985 15.276 54.0905 14.748 54.0905 13.884C54.0905 13.5 54.1945 13.168 54.4025 12.888C54.6185 12.608 54.9145 12.392 55.2905 12.24C55.6665 12.088 56.0985 12.012 56.5865 12.012C57.0025 12.012 57.4025 12.072 57.7865 12.192C58.1705 12.304 58.4985 12.476 58.7705 12.708L58.3625 13.692C58.1305 13.5 57.8505 13.348 57.5225 13.236C57.2025 13.124 56.8945 13.068 56.5985 13.068C56.2065 13.068 55.9145 13.136 55.7225 13.272C55.5385 13.408 55.4465 13.588 55.4465 13.812C55.4465 14.164 55.6745 14.38 56.1305 14.46L57.3305 14.688C57.8505 14.784 58.2425 14.96 58.5065 15.216C58.7785 15.472 58.9145 15.816 58.9145 16.248C58.9145 16.832 58.6865 17.292 58.2305 17.628C57.7745 17.956 57.1665 18.12 56.4065 18.12ZM60.0219 10.872V9.408H61.7019V10.872H60.0219ZM60.1179 18V12.132H61.6179V18H60.1179ZM63.1765 18V12.132H64.6405V13.044C64.8405 12.708 65.1085 12.452 65.4445 12.276C65.7885 12.1 66.1725 12.012 66.5965 12.012C67.9805 12.012 68.6725 12.816 68.6725 14.424V18H67.1725V14.496C67.1725 14.04 67.0845 13.708 66.9085 13.5C66.7405 13.292 66.4765 13.188 66.1165 13.188C65.6765 13.188 65.3245 13.328 65.0605 13.608C64.8045 13.88 64.6765 14.244 64.6765 14.7V18H63.1765ZM72.932 20.28C72.388 20.28 71.876 20.216 71.396 20.088C70.924 19.968 70.508 19.78 70.148 19.524L70.58 18.48C70.916 18.704 71.276 18.868 71.66 18.972C72.044 19.084 72.428 19.14 72.812 19.14C73.884 19.14 74.42 18.624 74.42 17.592V16.788C74.252 17.116 73.992 17.376 73.64 17.568C73.296 17.76 72.912 17.856 72.488 17.856C71.96 17.856 71.5 17.736 71.108 17.496C70.716 17.248 70.412 16.904 70.196 16.464C69.98 16.024 69.872 15.512 69.872 14.928C69.872 14.344 69.98 13.836 70.196 13.404C70.412 12.964 70.716 12.624 71.108 12.384C71.5 12.136 71.96 12.012 72.488 12.012C72.928 12.012 73.32 12.112 73.664 12.312C74.008 12.504 74.26 12.764 74.42 13.092V12.132H75.884V17.412C75.884 18.364 75.632 19.08 75.128 19.56C74.624 20.04 73.892 20.28 72.932 20.28ZM72.896 16.716C73.36 16.716 73.728 16.556 74 16.236C74.272 15.916 74.408 15.48 74.408 14.928C74.408 14.376 74.272 13.944 74 13.632C73.728 13.312 73.36 13.152 72.896 13.152C72.432 13.152 72.064 13.312 71.792 13.632C71.52 13.944 71.384 14.376 71.384 14.928C71.384 15.48 71.52 15.916 71.792 16.236C72.064 16.556 72.432 16.716 72.896 16.716Z" fill="#6226EF"/>
</svg>
