<svg width="93" height="27" viewBox="0 0 93 27" fill="none" xmlns="http://www.w3.org/2000/svg">
<rect opacity="0.2" width="93" height="27" rx="4.5" fill="#EF3826"/>
<path d="M24.3654 18V9.54H28.0374C28.9654 9.54 29.6814 9.764 30.1854 10.212C30.6894 10.652 30.9414 11.272 30.9414 12.072C30.9414 12.704 30.7774 13.228 30.4494 13.644C30.1214 14.052 29.6494 14.328 29.0334 14.472C29.4414 14.6 29.7774 14.908 30.0414 15.396L31.4574 18H29.7654L28.3014 15.3C28.1574 15.036 27.9854 14.856 27.7854 14.76C27.5934 14.664 27.3454 14.616 27.0414 14.616H25.9014V18H24.3654ZM25.9014 13.476H27.7734C28.8934 13.476 29.4534 13.02 29.4534 12.108C29.4534 11.204 28.8934 10.752 27.7734 10.752H25.9014V13.476ZM35.1876 18.12C34.5236 18.12 33.9516 17.996 33.4716 17.748C32.9916 17.5 32.6196 17.148 32.3556 16.692C32.0996 16.236 31.9716 15.696 31.9716 15.072C31.9716 14.464 32.0956 13.932 32.3436 13.476C32.5996 13.02 32.9476 12.664 33.3876 12.408C33.8356 12.144 34.3436 12.012 34.9116 12.012C35.7436 12.012 36.3996 12.276 36.8796 12.804C37.3676 13.332 37.6116 14.052 37.6116 14.964V15.408H33.4116C33.5236 16.456 34.1236 16.98 35.2116 16.98C35.5396 16.98 35.8676 16.932 36.1956 16.836C36.5236 16.732 36.8236 16.572 37.0956 16.356L37.5156 17.364C37.2356 17.596 36.8836 17.78 36.4596 17.916C36.0356 18.052 35.6116 18.12 35.1876 18.12ZM34.9716 13.032C34.5316 13.032 34.1756 13.168 33.9036 13.44C33.6316 13.712 33.4676 14.08 33.4116 14.544H36.3636C36.3316 14.056 36.1956 13.684 35.9556 13.428C35.7236 13.164 35.3956 13.032 34.9716 13.032ZM38.7515 10.872V9.408H40.4315V10.872H38.7515ZM37.4795 20.316L37.3715 19.224L37.9235 19.164C38.5395 19.092 38.8475 18.732 38.8475 18.084V12.132H40.3475V17.892C40.3475 18.676 40.1675 19.252 39.8075 19.62C39.4475 19.996 38.8435 20.216 37.9955 20.28L37.4795 20.316ZM44.797 18.12C44.133 18.12 43.561 17.996 43.081 17.748C42.601 17.5 42.229 17.148 41.965 16.692C41.709 16.236 41.581 15.696 41.581 15.072C41.581 14.464 41.705 13.932 41.953 13.476C42.209 13.02 42.557 12.664 42.997 12.408C43.445 12.144 43.953 12.012 44.521 12.012C45.353 12.012 46.009 12.276 46.489 12.804C46.977 13.332 47.221 14.052 47.221 14.964V15.408H43.021C43.133 16.456 43.733 16.98 44.821 16.98C45.149 16.98 45.477 16.932 45.805 16.836C46.133 16.732 46.433 16.572 46.705 16.356L47.125 17.364C46.845 17.596 46.493 17.78 46.069 17.916C45.645 18.052 45.221 18.12 44.797 18.12ZM44.581 13.032C44.141 13.032 43.785 13.168 43.513 13.44C43.241 13.712 43.077 14.08 43.021 14.544H45.973C45.941 14.056 45.805 13.684 45.565 13.428C45.333 13.164 45.005 13.032 44.581 13.032ZM51.1209 18.12C50.5049 18.12 49.9689 17.996 49.5129 17.748C49.0569 17.492 48.7049 17.132 48.4569 16.668C48.2089 16.204 48.0849 15.66 48.0849 15.036C48.0849 14.412 48.2089 13.876 48.4569 13.428C48.7049 12.972 49.0569 12.624 49.5129 12.384C49.9689 12.136 50.5049 12.012 51.1209 12.012C51.4969 12.012 51.8689 12.072 52.2369 12.192C52.6049 12.312 52.9089 12.48 53.1489 12.696L52.7049 13.74C52.4969 13.556 52.2609 13.416 51.9969 13.32C51.7409 13.224 51.4929 13.176 51.2529 13.176C50.7329 13.176 50.3289 13.34 50.0409 13.668C49.7609 13.988 49.6209 14.448 49.6209 15.048C49.6209 15.64 49.7609 16.108 50.0409 16.452C50.3289 16.788 50.7329 16.956 51.2529 16.956C51.4849 16.956 51.7329 16.908 51.9969 16.812C52.2609 16.716 52.4969 16.572 52.7049 16.38L53.1489 17.436C52.9089 17.644 52.6009 17.812 52.2249 17.94C51.8569 18.06 51.4889 18.12 51.1209 18.12ZM56.7805 18.12C55.2285 18.12 54.4525 17.352 54.4525 15.816V13.26H53.3245V12.132H54.4525V10.38H55.9525V12.132H57.7285V13.26H55.9525V15.732C55.9525 16.116 56.0365 16.404 56.2045 16.596C56.3725 16.788 56.6445 16.884 57.0205 16.884C57.1325 16.884 57.2485 16.872 57.3685 16.848C57.4885 16.816 57.6125 16.784 57.7405 16.752L57.9685 17.856C57.8245 17.936 57.6405 18 57.4165 18.048C57.2005 18.096 56.9885 18.12 56.7805 18.12ZM61.5314 18.12C60.8674 18.12 60.2954 17.996 59.8154 17.748C59.3354 17.5 58.9634 17.148 58.6994 16.692C58.4434 16.236 58.3154 15.696 58.3154 15.072C58.3154 14.464 58.4394 13.932 58.6874 13.476C58.9434 13.02 59.2914 12.664 59.7314 12.408C60.1794 12.144 60.6874 12.012 61.2554 12.012C62.0874 12.012 62.7434 12.276 63.2234 12.804C63.7114 13.332 63.9554 14.052 63.9554 14.964V15.408H59.7554C59.8674 16.456 60.4674 16.98 61.5554 16.98C61.8834 16.98 62.2114 16.932 62.5394 16.836C62.8674 16.732 63.1674 16.572 63.4394 16.356L63.8594 17.364C63.5794 17.596 63.2274 17.78 62.8034 17.916C62.3794 18.052 61.9554 18.12 61.5314 18.12ZM61.3154 13.032C60.8754 13.032 60.5194 13.168 60.2474 13.44C59.9754 13.712 59.8114 14.08 59.7554 14.544H62.7074C62.6754 14.056 62.5394 13.684 62.2994 13.428C62.0674 13.164 61.7394 13.032 61.3154 13.032ZM67.3993 18.12C66.8873 18.12 66.4353 17.996 66.0433 17.748C65.6593 17.5 65.3593 17.148 65.1433 16.692C64.9273 16.228 64.8193 15.684 64.8193 15.06C64.8193 14.428 64.9273 13.888 65.1433 13.44C65.3593 12.984 65.6593 12.632 66.0433 12.384C66.4353 12.136 66.8873 12.012 67.3993 12.012C67.8153 12.012 68.1913 12.104 68.5273 12.288C68.8633 12.472 69.1153 12.716 69.2833 13.02V9.54H70.7833V18H69.3193V17.028C69.1593 17.364 68.9073 17.632 68.5633 17.832C68.2193 18.024 67.8313 18.12 67.3993 18.12ZM67.8193 16.98C68.2673 16.98 68.6273 16.82 68.8993 16.5C69.1713 16.172 69.3073 15.692 69.3073 15.06C69.3073 14.42 69.1713 13.944 68.8993 13.632C68.6273 13.312 68.2673 13.152 67.8193 13.152C67.3713 13.152 67.0113 13.312 66.7393 13.632C66.4673 13.944 66.3313 14.42 66.3313 15.06C66.3313 15.692 66.4673 16.172 66.7393 16.5C67.0113 16.82 67.3713 16.98 67.8193 16.98Z" fill="#EF3826"/>
</svg>
