<svg width="60" height="22" viewBox="0 0 60 22" fill="none" xmlns="http://www.w3.org/2000/svg">
<path opacity="0.2" fill-rule="evenodd" clip-rule="evenodd" d="M0 3C0 1.34315 1.34315 0 3 0H34.9176H57C58.6569 0 60 1.34315 60 3V19C60 20.6569 58.6569 22 57 22H3C1.34315 22 0 20.6569 0 19V3Z" fill="#5A8CFF"/>
<path d="M17.804 15.108C17.14 15.108 16.532 15.024 15.98 14.856C15.428 14.68 14.96 14.436 14.576 14.124L14.972 13.14C15.372 13.444 15.8 13.672 16.256 13.824C16.712 13.976 17.228 14.052 17.804 14.052C18.484 14.052 18.984 13.932 19.304 13.692C19.632 13.444 19.796 13.124 19.796 12.732C19.796 12.412 19.68 12.16 19.448 11.976C19.216 11.784 18.828 11.632 18.284 11.52L17 11.256C16.24 11.096 15.672 10.832 15.296 10.464C14.928 10.096 14.744 9.6 14.744 8.976C14.744 8.472 14.876 8.028 15.14 7.644C15.412 7.26 15.788 6.964 16.268 6.756C16.748 6.54 17.3 6.432 17.924 6.432C18.5 6.432 19.032 6.52 19.52 6.696C20.016 6.864 20.436 7.112 20.78 7.44L20.372 8.388C19.692 7.788 18.872 7.488 17.912 7.488C17.32 7.488 16.848 7.62 16.496 7.884C16.152 8.148 15.98 8.5 15.98 8.94C15.98 9.276 16.088 9.544 16.304 9.744C16.52 9.944 16.88 10.096 17.384 10.2L18.656 10.464C19.456 10.632 20.052 10.892 20.444 11.244C20.836 11.588 21.032 12.056 21.032 12.648C21.032 13.144 20.9 13.576 20.636 13.944C20.372 14.312 20 14.6 19.52 14.808C19.04 15.008 18.468 15.108 17.804 15.108ZM24.8608 15.108C24.2688 15.108 23.7568 14.984 23.3248 14.736C22.8928 14.488 22.5568 14.14 22.3168 13.692C22.0848 13.236 21.9688 12.696 21.9688 12.072C21.9688 11.448 22.0848 10.912 22.3168 10.464C22.5568 10.008 22.8928 9.656 23.3248 9.408C23.7568 9.16 24.2688 9.036 24.8608 9.036C25.4368 9.036 25.9408 9.16 26.3728 9.408C26.8048 9.656 27.1408 10.008 27.3808 10.464C27.6208 10.912 27.7408 11.448 27.7408 12.072C27.7408 12.696 27.6208 13.236 27.3808 13.692C27.1408 14.14 26.8048 14.488 26.3728 14.736C25.9408 14.984 25.4368 15.108 24.8608 15.108ZM24.8608 14.172C25.3568 14.172 25.7568 13.992 26.0608 13.632C26.3648 13.272 26.5168 12.752 26.5168 12.072C26.5168 11.392 26.3648 10.876 26.0608 10.524C25.7568 10.164 25.3568 9.984 24.8608 9.984C24.3568 9.984 23.9528 10.164 23.6488 10.524C23.3448 10.876 23.1928 11.392 23.1928 12.072C23.1928 12.752 23.3448 13.272 23.6488 13.632C23.9528 13.992 24.3568 14.172 24.8608 14.172ZM31.682 15.108C31.082 15.108 30.562 14.984 30.122 14.736C29.69 14.48 29.354 14.124 29.114 13.668C28.874 13.204 28.754 12.66 28.754 12.036C28.754 11.108 29.018 10.376 29.546 9.84C30.074 9.304 30.786 9.036 31.682 9.036C32.05 9.036 32.414 9.1 32.774 9.228C33.134 9.356 33.43 9.532 33.662 9.756L33.278 10.608C33.054 10.4 32.806 10.248 32.534 10.152C32.27 10.048 32.018 9.996 31.778 9.996C31.21 9.996 30.77 10.176 30.458 10.536C30.154 10.888 30.002 11.392 30.002 12.048C30.002 12.704 30.154 13.22 30.458 13.596C30.77 13.964 31.21 14.148 31.778 14.148C32.018 14.148 32.27 14.1 32.534 14.004C32.806 13.9 33.054 13.744 33.278 13.536L33.662 14.4C33.43 14.616 33.13 14.788 32.762 14.916C32.402 15.044 32.042 15.108 31.682 15.108ZM34.5956 7.788V6.528H36.0116V7.788H34.5956ZM34.7036 15V9.144H35.9156V15H34.7036ZM39.4935 15.108C39.0855 15.108 38.7215 15.028 38.4015 14.868C38.0815 14.708 37.8255 14.492 37.6335 14.22C37.4495 13.948 37.3575 13.64 37.3575 13.296C37.3575 12.864 37.4655 12.524 37.6815 12.276C37.9055 12.028 38.2695 11.848 38.7735 11.736C39.2855 11.624 39.9735 11.568 40.8375 11.568H41.2455V11.256C41.2455 10.8 41.1495 10.472 40.9575 10.272C40.7655 10.072 40.4495 9.972 40.0095 9.972C39.6735 9.972 39.3375 10.024 39.0015 10.128C38.6655 10.224 38.3215 10.38 37.9695 10.596L37.5975 9.744C37.9015 9.528 38.2815 9.356 38.7375 9.228C39.1935 9.1 39.6295 9.036 40.0455 9.036C40.8455 9.036 41.4375 9.228 41.8215 9.612C42.2055 9.988 42.3975 10.58 42.3975 11.388V15H41.2575V14.028C41.1135 14.364 40.8895 14.628 40.5855 14.82C40.2815 15.012 39.9175 15.108 39.4935 15.108ZM39.7335 14.244C40.1655 14.244 40.5255 14.092 40.8135 13.788C41.1015 13.484 41.2455 13.1 41.2455 12.636V12.312H40.8495C40.2655 12.312 39.8055 12.34 39.4695 12.396C39.1415 12.452 38.9055 12.548 38.7615 12.684C38.6255 12.812 38.5575 12.992 38.5575 13.224C38.5575 13.528 38.6615 13.776 38.8695 13.968C39.0775 14.152 39.3655 14.244 39.7335 14.244ZM45.9748 15.108C45.3348 15.108 44.8548 14.928 44.5348 14.568C44.2228 14.208 44.0668 13.68 44.0668 12.984V6.54H45.2788V12.912C45.2788 13.704 45.6028 14.1 46.2508 14.1C46.3468 14.1 46.4348 14.096 46.5148 14.088C46.6028 14.08 46.6908 14.064 46.7788 14.04L46.7548 15.012C46.4828 15.076 46.2228 15.108 45.9748 15.108Z" fill="#5A8CFF"/>
</svg>
