<svg width="60" height="22" viewBox="0 0 60 22" fill="none" xmlns="http://www.w3.org/2000/svg">
<rect opacity="0.2" width="60" height="22" rx="3" fill="#FD9A56"/>
<path d="M18.7821 15L15.8181 6.54H17.0901L19.3581 13.2L21.6861 6.54H22.6341L24.9381 13.272L27.2541 6.54H28.4661L25.4781 15H24.4341L22.1421 8.424L19.8261 15H18.7821ZM31.4526 15.108C30.8606 15.108 30.3486 14.984 29.9166 14.736C29.4846 14.488 29.1486 14.14 28.9086 13.692C28.6766 13.236 28.5606 12.696 28.5606 12.072C28.5606 11.448 28.6766 10.912 28.9086 10.464C29.1486 10.008 29.4846 9.656 29.9166 9.408C30.3486 9.16 30.8606 9.036 31.4526 9.036C32.0286 9.036 32.5326 9.16 32.9646 9.408C33.3966 9.656 33.7326 10.008 33.9726 10.464C34.2126 10.912 34.3326 11.448 34.3326 12.072C34.3326 12.696 34.2126 13.236 33.9726 13.692C33.7326 14.14 33.3966 14.488 32.9646 14.736C32.5326 14.984 32.0286 15.108 31.4526 15.108ZM31.4526 14.172C31.9486 14.172 32.3486 13.992 32.6526 13.632C32.9566 13.272 33.1086 12.752 33.1086 12.072C33.1086 11.392 32.9566 10.876 32.6526 10.524C32.3486 10.164 31.9486 9.984 31.4526 9.984C30.9486 9.984 30.5446 10.164 30.2406 10.524C29.9366 10.876 29.7846 11.392 29.7846 12.072C29.7846 12.752 29.9366 13.272 30.2406 13.632C30.5446 13.992 30.9486 14.172 31.4526 14.172ZM35.6938 15V9.144H36.8698V10.188C37.1738 9.492 37.8058 9.104 38.7658 9.024L39.1618 9L39.2458 10.032L38.5138 10.104C37.4498 10.208 36.9178 10.756 36.9178 11.748V15H35.6938ZM40.1704 15V6.54H41.3824V11.7H41.4064L43.9504 9.144H45.4504L42.6424 11.964L45.6664 15H44.1544L41.4064 12.324H41.3824V15H40.1704Z" fill="#FD9A56"/>
</svg>
