<svg xmlns="http://www.w3.org/2000/svg" fill="none" viewBox="0 0 93 27">
    <rect width="93" height="27" fill="#00B69B" opacity=".2" rx="4.5"/>
    <path fill="#00B69B"
          d="M20.86 18.12q-1.32 0-2.268-.528a3.65 3.65 0 0 1-1.44-1.512q-.504-.984-.504-2.316t.504-2.304a3.57 3.57 0 0 1 1.44-1.5q.948-.54 2.268-.54.852 0 1.608.264.768.264 1.26.756l-.504 1.224a3.6 3.6 0 0 0-1.104-.66 3.4 3.4 0 0 0-1.212-.216q-1.284 0-1.956.78-.672.768-.672 2.196t.672 2.208 1.956.78q.648 0 1.212-.204a3.9 3.9 0 0 0 1.104-.672l.504 1.224q-.492.48-1.26.756a4.8 4.8 0 0 1-1.608.264m6.319 0q-.912 0-1.584-.372a2.6 2.6 0 0 1-1.044-1.056q-.372-.696-.372-1.632t.372-1.62a2.6 2.6 0 0 1 1.044-1.056q.672-.372 1.584-.372t1.584.372 1.044 1.056.372 1.62-.372 1.632a2.6 2.6 0 0 1-1.044 1.056q-.672.372-1.584.372m0-1.14q.672 0 1.08-.48.408-.492.408-1.44 0-.96-.408-1.428-.408-.48-1.08-.48t-1.08.48q-.408.468-.408 1.428 0 .948.408 1.44.408.48 1.08.48M31.44 18v-5.868h1.464v.9q.264-.48.732-.744a2.1 2.1 0 0 1 1.08-.276q1.32 0 1.728 1.152.276-.54.792-.84a2.23 2.23 0 0 1 1.176-.312q1.98 0 1.98 2.412V18h-1.5v-3.516q0-.672-.228-.984-.216-.312-.744-.312-.588 0-.924.42-.336.408-.336 1.14V18h-1.5v-3.516q0-.672-.228-.984-.216-.312-.732-.312-.588 0-.924.42-.336.408-.336 1.14V18zm10.5 2.16v-8.028h1.463v.936q.252-.48.756-.768a2.35 2.35 0 0 1 1.164-.288q.768 0 1.344.372.588.372.912 1.056.324.672.324 1.62 0 .936-.324 1.632a2.5 2.5 0 0 1-.9 1.056q-.576.372-1.356.372-.624 0-1.128-.264a1.96 1.96 0 0 1-.756-.732v3.036zm2.963-3.18q.672 0 1.08-.48.408-.492.408-1.44 0-.96-.408-1.428-.408-.48-1.08-.48t-1.08.48q-.408.468-.408 1.428 0 .948.408 1.44.408.48 1.08.48m6.271 1.14q-1.043 0-1.547-.564-.492-.576-.492-1.68V9.54h1.5v6.264q0 1.08.911 1.08.133 0 .265-.012t.252-.048l-.025 1.188a3.6 3.6 0 0 1-.864.108m4.626 0q-.996 0-1.716-.372t-1.116-1.056q-.384-.684-.384-1.62 0-.912.372-1.596A2.8 2.8 0 0 1 54 12.408a2.95 2.95 0 0 1 1.524-.396q1.248 0 1.968.792.732.792.732 2.16v.444h-4.2q.168 1.572 1.8 1.572.492 0 .984-.144.492-.156.9-.48l.42 1.008q-.42.348-1.056.552a4.1 4.1 0 0 1-1.272.204m-.216-5.088q-.66 0-1.068.408t-.492 1.104h2.952q-.048-.732-.408-1.116-.348-.396-.984-.396m6.492 5.088q-2.328 0-2.328-2.304V13.26H58.62v-1.128h1.128V10.38h1.5v1.752h1.776v1.128H61.25v2.472q0 .576.252.864t.816.288q.168 0 .348-.036l.372-.096.228 1.104q-.216.12-.552.192a3 3 0 0 1-.636.072m4.751 0q-.996 0-1.716-.372t-1.116-1.056q-.384-.684-.384-1.62 0-.912.372-1.596a2.8 2.8 0 0 1 1.044-1.068 2.95 2.95 0 0 1 1.524-.396q1.248 0 1.968.792.732.792.732 2.16v.444h-4.2q.168 1.572 1.8 1.572.492 0 .984-.144.492-.156.9-.48l.42 1.008q-.42.348-1.056.552a4.1 4.1 0 0 1-1.272.204m-.216-5.088q-.66 0-1.068.408t-.492 1.104h2.952q-.048-.732-.408-1.116-.348-.396-.984-.396m6.084 5.088q-.768 0-1.356-.372a2.5 2.5 0 0 1-.9-1.056q-.324-.696-.324-1.632 0-.948.324-1.62a2.5 2.5 0 0 1 .9-1.056 2.5 2.5 0 0 1 1.356-.372q.624 0 1.128.276t.756.732V9.54h1.5V18h-1.464v-.972q-.24.504-.756.804a2.35 2.35 0 0 1-1.164.288m.42-1.14q.672 0 1.08-.48.408-.492.408-1.44 0-.96-.408-1.428-.408-.48-1.08-.48t-1.08.48q-.408.468-.408 1.428 0 .948.408 1.44.408.48 1.08.48"/>
</svg>
