<svg xmlns="http://www.w3.org/2000/svg" fill="none" viewBox="0 0 93 27">
    <rect width="93" height="27" fill="#BA29FF" opacity=".2" rx="4.5"/>
    <path fill="#BA29FF"
          d="M20.979 18V9.54h1.536V18zm3.23 0v-5.868h1.465v.912q.3-.504.804-.768a2.5 2.5 0 0 1 1.152-.264q2.076 0 2.076 2.412V18h-1.5v-3.504q0-.684-.264-.996-.252-.312-.792-.312-.66 0-1.056.42-.384.408-.384 1.092V18zm12.439 0v-7.176h-2.904V9.54h7.344v1.284h-2.904V18zm4.331 0v-5.868h1.464v1.032q.432-1.044 1.848-1.152l.456-.036.096 1.272-.864.084q-1.476.144-1.476 1.512V18zm6.573.12a2.6 2.6 0 0 1-1.14-.24 2.1 2.1 0 0 1-.78-.672 1.7 1.7 0 0 1-.276-.948q0-.648.336-1.02.336-.384 1.092-.552t2.028-.168h.42v-.252q0-.6-.264-.864t-.888-.264q-.492 0-1.008.156a4.4 4.4 0 0 0-1.044.456l-.432-1.02q.312-.216.732-.372.432-.168.9-.252.48-.096.9-.096 1.284 0 1.908.6.624.588.624 1.836V18h-1.404v-.936a1.67 1.67 0 0 1-.648.78q-.444.276-1.056.276m.312-1.032q.588 0 .972-.408.396-.408.396-1.032v-.264h-.408q-1.128 0-1.572.18-.432.168-.432.624 0 .396.276.648t.768.252m4.318.912v-5.868h1.464v.912q.3-.504.804-.768a2.5 2.5 0 0 1 1.152-.264q2.076 0 2.076 2.412V18h-1.5v-3.504q0-.684-.264-.996-.252-.312-.792-.312-.66 0-1.056.42-.384.408-.384 1.092V18zm9.168.12q-.744 0-1.392-.18a3.1 3.1 0 0 1-1.08-.516l.384-.984q.444.3.996.468.552.156 1.104.156.576 0 .852-.192a.62.62 0 0 0 .288-.528q0-.504-.744-.648l-1.2-.228q-1.524-.288-1.524-1.584 0-.576.312-.996.324-.42.888-.648a3.4 3.4 0 0 1 1.296-.228 4 4 0 0 1 1.2.18q.576.168.984.516l-.408.984a2.6 2.6 0 0 0-.84-.456 2.8 2.8 0 0 0-.924-.168q-.588 0-.876.204a.64.64 0 0 0-.276.54q0 .528.684.648l1.2.228q.78.144 1.176.528.408.384.408 1.032 0 .876-.684 1.38-.684.492-1.824.492m3.615-7.248V9.408h1.68v1.464zM65.061 18v-5.868h1.5V18zm5.747.12q-2.328 0-2.328-2.304V13.26h-1.128v-1.128h1.128V10.38h1.5v1.752h1.776v1.128H69.98v2.472q0 .576.252.864t.816.288q.168 0 .348-.036l.372-.096.228 1.104q-.216.12-.552.192a3 3 0 0 1-.636.072"/>
</svg>
