<svg xmlns="http://www.w3.org/2000/svg" fill="none" viewBox="0 0 93 27">
    <rect width="93" height="27" fill="#FFA756" opacity=".2" rx="4.5"/>
    <path fill="#FFA756"
          d="M28.796 18.12q-1.224 0-2.148-.54a3.7 3.7 0 0 1-1.416-1.512q-.504-.984-.504-2.304 0-1.332.504-2.304a3.6 3.6 0 0 1 1.416-1.5q.912-.54 2.148-.54t2.148.54q.912.528 1.416 1.5t.504 2.292q0 1.332-.504 2.316a3.7 3.7 0 0 1-1.416 1.512q-.912.54-2.148.54m0-1.32q1.164 0 1.812-.804t.648-2.232q0-1.44-.648-2.232-.636-.792-1.812-.792-1.164 0-1.812.792t-.648 2.232q0 1.428.648 2.232t1.812.804m5.486 1.2v-5.868h1.464v.912q.3-.504.804-.768a2.5 2.5 0 0 1 1.152-.264q2.076 0 2.076 2.412V18h-1.5v-3.504q0-.684-.264-.996-.252-.312-.792-.312-.66 0-1.056.42-.384.408-.384 1.092V18zm10.398 0V9.54h1.536v3.528h4.356V9.54h1.536V18h-1.536v-3.648h-4.356V18zm11.813.12q-.912 0-1.584-.372a2.6 2.6 0 0 1-1.044-1.056q-.372-.696-.372-1.632t.372-1.62a2.6 2.6 0 0 1 1.044-1.056q.672-.372 1.584-.372t1.584.372 1.044 1.056.372 1.62-.372 1.632a2.6 2.6 0 0 1-1.044 1.056q-.672.372-1.584.372m0-1.14q.672 0 1.08-.48.408-.492.408-1.44 0-.96-.408-1.428-.408-.48-1.08-.48t-1.08.48q-.408.468-.408 1.428 0 .948.408 1.44.408.48 1.08.48m6.278 1.14q-1.044 0-1.548-.564-.492-.576-.492-1.68V9.54h1.5v6.264q0 1.08.912 1.08.132 0 .264-.012t.252-.048l-.024 1.188a3.6 3.6 0 0 1-.864.108m3.99 0q-.768 0-1.356-.372a2.5 2.5 0 0 1-.9-1.056q-.324-.696-.324-1.632 0-.948.324-1.62a2.5 2.5 0 0 1 .9-1.056 2.5 2.5 0 0 1 1.356-.372q.624 0 1.128.276t.756.732V9.54h1.5V18H68.68v-.972q-.24.504-.756.804a2.35 2.35 0 0 1-1.164.288m.42-1.14q.672 0 1.08-.48.408-.492.408-1.44 0-.96-.408-1.428-.408-.48-1.08-.48t-1.08.48q-.408.468-.408 1.428 0 .948.408 1.44.408.48 1.08.48"/>
</svg>
