<svg xmlns="http://www.w3.org/2000/svg" fill="none" viewBox="0 0 60 22">
    <rect width="60" height="22" fill="#00B69B" opacity=".2" rx="3"/>
    <path fill="#00B69B"
          d="M10.039 15V6.54h3.504q1.368 0 2.112.684.744.672.744 1.896 0 1.236-.744 1.92-.744.672-2.112.672h-2.256V15zm1.248-4.284h2.076q1.824 0 1.824-1.596 0-1.584-1.824-1.584h-2.076zM17.489 15V9.144h1.176v1.044q.456-1.044 1.896-1.164L20.957 9l.084 1.032-.732.072q-1.596.156-1.596 1.644V15zm4.368-7.212v-1.26h1.416v1.26zM21.965 15V9.144h1.212V15zm2.942 0V9.144h1.176v.948q.264-.504.732-.78a2.1 2.1 0 0 1 1.092-.276q1.344 0 1.74 1.176.276-.552.792-.864a2.23 2.23 0 0 1 1.176-.312q1.968 0 1.968 2.352V15h-1.212v-3.552q0-.744-.264-1.092-.252-.348-.84-.348-.66 0-1.044.468-.384.456-.384 1.248V15h-1.212v-3.552q0-.744-.252-1.092t-.84-.348q-.66 0-1.044.468-.372.456-.372 1.248V15zm12.243.108q-.612 0-1.092-.24a2 2 0 0 1-.768-.648 1.6 1.6 0 0 1-.276-.924q0-.648.324-1.02.336-.372 1.092-.54.768-.168 2.064-.168h.408v-.312q0-.684-.288-.984t-.948-.3q-.504 0-1.008.156a4.2 4.2 0 0 0-1.032.468l-.372-.852q.456-.324 1.14-.516a4.8 4.8 0 0 1 1.308-.192q1.2 0 1.776.576.576.564.576 1.776V15h-1.14v-.972q-.216.504-.672.792t-1.092.288m.24-.864q.648 0 1.08-.456t.432-1.152v-.324h-.396q-.876 0-1.38.084-.492.084-.708.288-.204.192-.204.54 0 .456.312.744.312.276.864.276m4.333.756V9.144H42.9v1.044q.456-1.044 1.896-1.164L45.191 9l.084 1.032-.732.072q-1.596.156-1.596 1.644V15zm5.44 2.16 1.044-2.316-2.448-5.7h1.296l1.8 4.452 1.824-4.452h1.248l-3.492 8.016z"/>
</svg>
