<svg xmlns="http://www.w3.org/2000/svg" fill="none" viewBox="0 0 93 27">
    <rect width="93" height="27" fill="#6226EF" opacity=".2" rx="4.5"/>
    <path fill="#6226EF"
          d="M17.266 18V9.54h3.672q1.392 0 2.148.696t.756 1.944-.756 1.956q-.756.696-2.148.696h-2.136V18zm1.536-4.38h1.896q1.656 0 1.656-1.44 0-1.428-1.656-1.428h-1.896zm6.03 4.38v-5.868h1.465v1.032q.432-1.044 1.848-1.152l.456-.036.096 1.272-.864.084q-1.476.144-1.476 1.512V18zm7.282.12q-.912 0-1.584-.372a2.6 2.6 0 0 1-1.044-1.056q-.372-.696-.372-1.632t.372-1.62a2.6 2.6 0 0 1 1.044-1.056q.672-.372 1.584-.372t1.584.372 1.044 1.056.372 1.62-.372 1.632a2.6 2.6 0 0 1-1.044 1.056q-.672.372-1.584.372m0-1.14q.672 0 1.08-.48.408-.492.408-1.44 0-.96-.408-1.428-.408-.48-1.08-.48t-1.08.48q-.408.468-.408 1.428 0 .948.408 1.44.408.48 1.08.48m6.95 1.14q-.924 0-1.608-.372a2.64 2.64 0 0 1-1.056-1.08q-.372-.696-.372-1.632t.372-1.608q.372-.684 1.056-1.044.684-.372 1.608-.372.564 0 1.116.18t.912.504l-.444 1.044a2.2 2.2 0 0 0-.708-.42 2.1 2.1 0 0 0-.744-.144q-.78 0-1.212.492-.42.48-.42 1.38 0 .888.42 1.404.432.504 1.212.504.348 0 .744-.144t.708-.432l.444 1.056q-.36.312-.924.504-.552.18-1.104.18m5.723 0q-.996 0-1.716-.372t-1.116-1.056q-.384-.684-.384-1.62 0-.912.372-1.596a2.8 2.8 0 0 1 1.044-1.068 2.95 2.95 0 0 1 1.524-.396q1.248 0 1.968.792.732.792.732 2.16v.444h-4.2q.168 1.572 1.8 1.572.492 0 .984-.144.492-.156.9-.48l.42 1.008q-.42.348-1.056.552a4.1 4.1 0 0 1-1.272.204m-.216-5.088q-.66 0-1.068.408t-.492 1.104h2.952q-.048-.732-.408-1.116-.348-.396-.984-.396m5.976 5.088q-.744 0-1.392-.18a3.1 3.1 0 0 1-1.08-.516l.384-.984q.444.3.996.468.552.156 1.104.156.576 0 .852-.192a.62.62 0 0 0 .288-.528q0-.504-.744-.648l-1.2-.228q-1.524-.288-1.524-1.584 0-.576.312-.996.324-.42.888-.648a3.4 3.4 0 0 1 1.296-.228 4 4 0 0 1 1.2.18q.576.168.984.516l-.408.984a2.6 2.6 0 0 0-.84-.456 2.8 2.8 0 0 0-.924-.168q-.588 0-.876.204a.64.64 0 0 0-.276.54q0 .528.684.648l1.2.228q.78.144 1.176.528.408.384.408 1.032 0 .876-.684 1.38-.684.492-1.824.492m5.86 0q-.744 0-1.392-.18a3.1 3.1 0 0 1-1.08-.516l.383-.984q.445.3.997.468.551.156 1.104.156.576 0 .852-.192a.62.62 0 0 0 .288-.528q0-.504-.744-.648l-1.2-.228q-1.525-.288-1.525-1.584 0-.576.313-.996.323-.42.888-.648a3.4 3.4 0 0 1 1.296-.228 4 4 0 0 1 1.2.18q.576.168.983.516l-.408.984a2.6 2.6 0 0 0-.84-.456 2.8 2.8 0 0 0-.923-.168q-.588 0-.876.204a.64.64 0 0 0-.276.54q0 .528.683.648l1.2.228q.78.144 1.177.528.407.384.407 1.032 0 .876-.684 1.38-.683.492-1.823.492m3.615-7.248V9.408h1.68v1.464zM60.118 18v-5.868h1.5V18zm3.058 0v-5.868h1.465v.912q.3-.504.803-.768a2.5 2.5 0 0 1 1.153-.264q2.076 0 2.076 2.412V18h-1.5v-3.504q0-.684-.264-.996-.253-.312-.793-.312-.66 0-1.055.42-.385.408-.385 1.092V18zm9.756 2.28a6 6 0 0 1-1.536-.192 3.7 3.7 0 0 1-1.248-.564l.432-1.044a3.7 3.7 0 0 0 1.08.492q.576.168 1.152.168 1.608 0 1.608-1.548v-.804a1.83 1.83 0 0 1-.78.78 2.3 2.3 0 0 1-1.152.288q-.792 0-1.38-.36a2.5 2.5 0 0 1-.912-1.032q-.324-.66-.324-1.536t.324-1.524q.324-.66.912-1.02.588-.372 1.38-.372.66 0 1.176.3.516.288.756.78v-.96h1.464v5.28q0 1.428-.756 2.148t-2.196.72m-.036-3.564q.696 0 1.104-.48t.408-1.308T74 13.632q-.408-.48-1.104-.48t-1.104.48q-.408.468-.408 1.296t.408 1.308 1.104.48"/>
</svg>
