<svg xmlns="http://www.w3.org/2000/svg" fill="none" viewBox="0 0 60 22">
    <path fill="#5A8CFF" fill-rule="evenodd" d="M0 3a3 3 0 0 1 3-3h54a3 3 0 0 1 3 3v16a3 3 0 0 1-3 3H3a3 3 0 0 1-3-3z"
          clip-rule="evenodd" opacity=".2"/>
    <path fill="#5A8CFF"
          d="M17.804 15.108a6.2 6.2 0 0 1-1.824-.252 4.3 4.3 0 0 1-1.404-.732l.396-.984q.6.456 1.284.684t1.548.228q1.02 0 1.5-.36.492-.372.492-.96 0-.48-.348-.756-.348-.288-1.164-.456L17 11.256q-1.14-.24-1.704-.792-.552-.552-.552-1.488 0-.756.396-1.332.408-.576 1.128-.888.72-.324 1.656-.324.864 0 1.596.264.744.252 1.26.744l-.408.948q-1.02-.9-2.46-.9-.888 0-1.416.396a1.26 1.26 0 0 0-.516 1.056q0 .504.324.804t1.08.456l1.272.264q1.2.252 1.788.78.588.516.588 1.404 0 .744-.396 1.296t-1.116.864q-.72.3-1.716.3m7.057 0q-.888 0-1.536-.372a2.6 2.6 0 0 1-1.008-1.044q-.348-.684-.348-1.62t.348-1.608q.36-.684 1.008-1.056t1.536-.372q.864 0 1.512.372t1.008 1.056q.36.672.36 1.608t-.36 1.62q-.36.672-1.008 1.044t-1.512.372m0-.936q.744 0 1.2-.54t.456-1.56-.456-1.548q-.456-.54-1.2-.54-.756 0-1.212.54-.456.528-.456 1.548t.456 1.56 1.212.54m6.821.936q-.9 0-1.56-.372a2.65 2.65 0 0 1-1.008-1.068q-.36-.696-.36-1.632 0-1.392.792-2.196t2.136-.804q.552 0 1.092.192t.888.528l-.384.852a2.1 2.1 0 0 0-.744-.456 2.1 2.1 0 0 0-.756-.156q-.852 0-1.32.54-.456.528-.456 1.512t.456 1.548q.468.552 1.32.552a2.2 2.2 0 0 0 1.5-.612l.384.864a2.5 2.5 0 0 1-.9.516q-.54.192-1.08.192m2.914-7.32v-1.26h1.416v1.26zM34.704 15V9.144h1.212V15zm4.79.108q-.612 0-1.093-.24a2 2 0 0 1-.768-.648 1.6 1.6 0 0 1-.276-.924q0-.648.325-1.02.336-.372 1.091-.54.768-.168 2.064-.168h.408v-.312q0-.684-.287-.984-.288-.3-.948-.3-.505 0-1.008.156a4.2 4.2 0 0 0-1.033.468l-.372-.852q.456-.324 1.14-.516a4.8 4.8 0 0 1 1.308-.192q1.2 0 1.776.576.577.564.577 1.776V15h-1.14v-.972q-.218.504-.672.792-.456.288-1.093.288m.24-.864q.646 0 1.08-.456.431-.456.431-1.152v-.324h-.395q-.876 0-1.38.084-.492.084-.709.288-.204.192-.204.54 0 .456.313.744.311.276.864.276m6.24.864q-.96 0-1.44-.54-.467-.54-.467-1.584V6.54h1.212v6.372q0 1.188.972 1.188.144 0 .264-.012.132-.012.264-.048l-.024.972a3.4 3.4 0 0 1-.78.096"/>
</svg>
