<svg width="240" height="50" viewBox="0 0 240 50" fill="none" xmlns="http://www.w3.org/2000/svg">
<rect opacity="0.01" width="240" height="50" fill="white"/>
<mask id="mask0_0_40331" style="mask-type:luminance" maskUnits="userSpaceOnUse" x="0" y="0" width="240" height="50">
<rect width="240" height="50" fill="white"/>
</mask>
<g mask="url(#mask0_0_40331)">
<rect x="24" width="192" height="50" rx="6" fill="#4880FF"/>
<rect x="-5" width="9" height="50" rx="4" fill="#4880FF"/>
</g>
<path d="M79.148 30V20.13H83.236C84.3 20.13 85.1213 20.396 85.7 20.928C86.2787 21.4507 86.568 22.188 86.568 23.14C86.568 24.1013 86.2787 24.848 85.7 25.38C85.1213 25.9027 84.3 26.164 83.236 26.164H80.604V30H79.148ZM80.604 25.002H83.026C84.4447 25.002 85.154 24.3813 85.154 23.14C85.154 21.908 84.4447 21.292 83.026 21.292H80.604V25.002ZM88.1397 30V23.168H89.5117V24.386C89.8664 23.574 90.6037 23.1213 91.7237 23.028L92.1857 23L92.2837 24.204L91.4297 24.288C90.1884 24.4093 89.5677 25.0487 89.5677 26.206V30H88.1397ZM96.5347 30.126C95.844 30.126 95.2467 29.9813 94.7427 29.692C94.2387 29.4027 93.8467 28.9967 93.5667 28.474C93.296 27.942 93.1607 27.312 93.1607 26.584C93.1607 25.856 93.296 25.2307 93.5667 24.708C93.8467 24.176 94.2387 23.7653 94.7427 23.476C95.2467 23.1867 95.844 23.042 96.5347 23.042C97.2067 23.042 97.7947 23.1867 98.2987 23.476C98.8027 23.7653 99.1947 24.176 99.4747 24.708C99.7547 25.2307 99.8947 25.856 99.8947 26.584C99.8947 27.312 99.7547 27.942 99.4747 28.474C99.1947 28.9967 98.8027 29.4027 98.2987 29.692C97.7947 29.9813 97.2067 30.126 96.5347 30.126ZM96.5347 29.034C97.1133 29.034 97.58 28.824 97.9347 28.404C98.2893 27.984 98.4667 27.3773 98.4667 26.584C98.4667 25.7907 98.2893 25.1887 97.9347 24.778C97.58 24.358 97.1133 24.148 96.5347 24.148C95.9467 24.148 95.4753 24.358 95.1207 24.778C94.766 25.1887 94.5887 25.7907 94.5887 26.584C94.5887 27.3773 94.766 27.984 95.1207 28.404C95.4753 28.824 95.9467 29.034 96.5347 29.034ZM104.387 30.126C103.789 30.126 103.262 29.986 102.805 29.706C102.357 29.4167 102.007 29.006 101.755 28.474C101.503 27.942 101.377 27.312 101.377 26.584C101.377 25.856 101.503 25.2307 101.755 24.708C102.007 24.176 102.357 23.7653 102.805 23.476C103.253 23.1867 103.78 23.042 104.387 23.042C104.9 23.042 105.357 23.154 105.759 23.378C106.16 23.602 106.459 23.9053 106.655 24.288V20.13H108.069V30H106.683V28.81C106.487 29.2207 106.183 29.5427 105.773 29.776C105.371 30.0093 104.909 30.126 104.387 30.126ZM104.751 29.034C105.329 29.034 105.796 28.824 106.151 28.404C106.505 27.984 106.683 27.3773 106.683 26.584C106.683 25.7907 106.505 25.1887 106.151 24.778C105.796 24.358 105.329 24.148 104.751 24.148C104.163 24.148 103.691 24.358 103.337 24.778C102.982 25.1887 102.805 25.7907 102.805 26.584C102.805 27.3773 102.982 27.984 103.337 28.404C103.691 28.824 104.163 29.034 104.751 29.034ZM112.79 30.126C111.138 30.126 110.312 29.2067 110.312 27.368V23.168H111.726V27.382C111.726 27.9327 111.838 28.3387 112.062 28.6C112.286 28.8613 112.641 28.992 113.126 28.992C113.658 28.992 114.087 28.8147 114.414 28.46C114.75 28.1053 114.918 27.6293 114.918 27.032V23.168H116.332V30H114.96V28.908C114.736 29.3093 114.437 29.6127 114.064 29.818C113.691 30.0233 113.266 30.126 112.79 30.126ZM121.635 30.126C120.935 30.126 120.328 29.9813 119.815 29.692C119.311 29.3933 118.919 28.978 118.639 28.446C118.359 27.9047 118.219 27.27 118.219 26.542C118.219 25.4593 118.527 24.6053 119.143 23.98C119.759 23.3547 120.59 23.042 121.635 23.042C122.064 23.042 122.489 23.1167 122.909 23.266C123.329 23.4153 123.674 23.6207 123.945 23.882L123.497 24.876C123.236 24.6333 122.946 24.456 122.629 24.344C122.321 24.2227 122.027 24.162 121.747 24.162C121.084 24.162 120.571 24.372 120.207 24.792C119.852 25.2027 119.675 25.7907 119.675 26.556C119.675 27.3213 119.852 27.9233 120.207 28.362C120.571 28.7913 121.084 29.006 121.747 29.006C122.027 29.006 122.321 28.95 122.629 28.838C122.946 28.7167 123.236 28.5347 123.497 28.292L123.945 29.3C123.674 29.552 123.324 29.7527 122.895 29.902C122.475 30.0513 122.055 30.126 121.635 30.126ZM128.386 30.126C127.527 30.126 126.888 29.9067 126.468 29.468C126.048 29.0293 125.838 28.3947 125.838 27.564V24.26H124.508V23.168H125.838V21.11H127.252V23.168H129.366V24.26H127.252V27.452C127.252 27.9467 127.354 28.32 127.56 28.572C127.774 28.824 128.12 28.95 128.596 28.95C128.745 28.95 128.89 28.936 129.03 28.908C129.17 28.8707 129.31 28.8287 129.45 28.782L129.674 29.846C129.534 29.93 129.338 29.9953 129.086 30.042C128.843 30.098 128.61 30.126 128.386 30.126ZM133.281 30.126C132.721 30.126 132.198 30.056 131.713 29.916C131.228 29.7667 130.822 29.5613 130.495 29.3L130.901 28.348C131.246 28.5907 131.624 28.7773 132.035 28.908C132.455 29.0387 132.875 29.104 133.295 29.104C133.79 29.104 134.163 29.0153 134.415 28.838C134.667 28.6607 134.793 28.4227 134.793 28.124C134.793 27.8813 134.709 27.6947 134.541 27.564C134.373 27.424 134.121 27.3167 133.785 27.242L132.455 26.976C131.279 26.7333 130.691 26.1267 130.691 25.156C130.691 24.512 130.948 23.9987 131.461 23.616C131.974 23.2333 132.646 23.042 133.477 23.042C133.953 23.042 134.406 23.112 134.835 23.252C135.274 23.392 135.638 23.602 135.927 23.882L135.521 24.834C135.241 24.5913 134.919 24.4047 134.555 24.274C134.191 24.1433 133.832 24.078 133.477 24.078C132.992 24.078 132.623 24.1713 132.371 24.358C132.119 24.5353 131.993 24.778 131.993 25.086C131.993 25.5527 132.301 25.8513 132.917 25.982L134.247 26.248C134.854 26.3693 135.311 26.5747 135.619 26.864C135.936 27.1533 136.095 27.5453 136.095 28.04C136.095 28.6933 135.838 29.2067 135.325 29.58C134.812 29.944 134.13 30.126 133.281 30.126Z" fill="white"/>
</svg>
