<svg width="240" height="1070" viewBox="0 0 240 1070" fill="none" xmlns="http://www.w3.org/2000/svg">
<rect x="0.5" y="0.5" width="239" height="1069" fill="white" stroke="#E8E8E8"/>
<rect opacity="0.01" y="979" width="240" height="50" fill="white"/>
<path d="M79.148 1009V999.13H80.604V1007.75H85.49V1009H79.148ZM89.9183 1009.13C89.2276 1009.13 88.6303 1008.98 88.1263 1008.69C87.6223 1008.4 87.2303 1008 86.9503 1007.47C86.6796 1006.94 86.5443 1006.31 86.5443 1005.58C86.5443 1004.86 86.6796 1004.23 86.9503 1003.71C87.2303 1003.18 87.6223 1002.77 88.1263 1002.48C88.6303 1002.19 89.2276 1002.04 89.9183 1002.04C90.5903 1002.04 91.1783 1002.19 91.6823 1002.48C92.1863 1002.77 92.5783 1003.18 92.8583 1003.71C93.1383 1004.23 93.2783 1004.86 93.2783 1005.58C93.2783 1006.31 93.1383 1006.94 92.8583 1007.47C92.5783 1008 92.1863 1008.4 91.6823 1008.69C91.1783 1008.98 90.5903 1009.13 89.9183 1009.13ZM89.9183 1008.03C90.4969 1008.03 90.9636 1007.82 91.3183 1007.4C91.6729 1006.98 91.8503 1006.38 91.8503 1005.58C91.8503 1004.79 91.6729 1004.19 91.3183 1003.78C90.9636 1003.36 90.4969 1003.15 89.9183 1003.15C89.3303 1003.15 88.8589 1003.36 88.5043 1003.78C88.1496 1004.19 87.9723 1004.79 87.9723 1005.58C87.9723 1006.38 88.1496 1006.98 88.5043 1007.4C88.8589 1007.82 89.3303 1008.03 89.9183 1008.03ZM98.2603 1011.65C97.6443 1011.65 97.0703 1011.57 96.5383 1011.42C96.0063 1011.28 95.5349 1011.06 95.1243 1010.75L95.5583 1009.74C95.9689 1010.02 96.3889 1010.23 96.8183 1010.36C97.2476 1010.49 97.6956 1010.55 98.1623 1010.55C99.4689 1010.55 100.122 1009.9 100.122 1008.59V1007.52C99.9263 1007.93 99.6183 1008.25 99.1983 1008.48C98.7876 1008.72 98.3256 1008.83 97.8123 1008.83C97.1963 1008.83 96.6596 1008.69 96.2023 1008.41C95.7449 1008.12 95.3903 1007.73 95.1383 1007.22C94.8863 1006.71 94.7603 1006.11 94.7603 1005.43C94.7603 1004.76 94.8863 1004.17 95.1383 1003.67C95.3903 1003.15 95.7449 1002.76 96.2023 1002.48C96.6596 1002.19 97.1963 1002.04 97.8123 1002.04C98.3349 1002.04 98.8016 1002.16 99.2123 1002.39C99.6229 1002.63 99.9263 1002.95 100.122 1003.36V1002.17H101.494V1008.43C101.494 1009.5 101.219 1010.3 100.668 1010.83C100.118 1011.38 99.3149 1011.65 98.2603 1011.65ZM98.1483 1007.73C98.7456 1007.73 99.2216 1007.52 99.5763 1007.11C99.9309 1006.7 100.108 1006.14 100.108 1005.43C100.108 1004.72 99.9309 1004.17 99.5763 1003.76C99.2216 1003.35 98.7456 1003.15 98.1483 1003.15C97.5509 1003.15 97.0749 1003.35 96.7203 1003.76C96.3656 1004.17 96.1883 1004.72 96.1883 1005.43C96.1883 1006.14 96.3656 1006.7 96.7203 1007.11C97.0749 1007.52 97.5509 1007.73 98.1483 1007.73ZM106.747 1009.13C106.056 1009.13 105.459 1008.98 104.955 1008.69C104.451 1008.4 104.059 1008 103.779 1007.47C103.508 1006.94 103.373 1006.31 103.373 1005.58C103.373 1004.86 103.508 1004.23 103.779 1003.71C104.059 1003.18 104.451 1002.77 104.955 1002.48C105.459 1002.19 106.056 1002.04 106.747 1002.04C107.419 1002.04 108.007 1002.19 108.511 1002.48C109.015 1002.77 109.407 1003.18 109.687 1003.71C109.967 1004.23 110.107 1004.86 110.107 1005.58C110.107 1006.31 109.967 1006.94 109.687 1007.47C109.407 1008 109.015 1008.4 108.511 1008.69C108.007 1008.98 107.419 1009.13 106.747 1009.13ZM106.747 1008.03C107.325 1008.03 107.792 1007.82 108.147 1007.4C108.501 1006.98 108.679 1006.38 108.679 1005.58C108.679 1004.79 108.501 1004.19 108.147 1003.78C107.792 1003.36 107.325 1003.15 106.747 1003.15C106.159 1003.15 105.687 1003.36 105.333 1003.78C104.978 1004.19 104.801 1004.79 104.801 1005.58C104.801 1006.38 104.978 1006.98 105.333 1007.4C105.687 1007.82 106.159 1008.03 106.747 1008.03ZM114.431 1009.13C112.779 1009.13 111.953 1008.21 111.953 1006.37V1002.17H113.367V1006.38C113.367 1006.93 113.479 1007.34 113.703 1007.6C113.927 1007.86 114.281 1007.99 114.767 1007.99C115.299 1007.99 115.728 1007.81 116.055 1007.46C116.391 1007.11 116.559 1006.63 116.559 1006.03V1002.17H117.973V1009H116.601V1007.91C116.377 1008.31 116.078 1008.61 115.705 1008.82C115.331 1009.02 114.907 1009.13 114.431 1009.13ZM123.177 1009.13C122.319 1009.13 121.679 1008.91 121.259 1008.47C120.839 1008.03 120.629 1007.39 120.629 1006.56V1003.26H119.299V1002.17H120.629V1000.11H122.043V1002.17H124.157V1003.26H122.043V1006.45C122.043 1006.95 122.146 1007.32 122.351 1007.57C122.566 1007.82 122.911 1007.95 123.387 1007.95C123.537 1007.95 123.681 1007.94 123.821 1007.91C123.961 1007.87 124.101 1007.83 124.241 1007.78L124.465 1008.85C124.325 1008.93 124.129 1009 123.877 1009.04C123.635 1009.1 123.401 1009.13 123.177 1009.13Z" fill="#202224"/>
<rect opacity="0.01" y="929" width="240" height="50" fill="white"/>
<path d="M82.438 959.126C81.6633 959.126 80.954 959.028 80.31 958.832C79.666 958.627 79.12 958.342 78.672 957.978L79.134 956.83C79.6007 957.185 80.1 957.451 80.632 957.628C81.164 957.805 81.766 957.894 82.438 957.894C83.2313 957.894 83.8147 957.754 84.188 957.474C84.5707 957.185 84.762 956.811 84.762 956.354C84.762 955.981 84.6267 955.687 84.356 955.472C84.0853 955.248 83.6327 955.071 82.998 954.94L81.5 954.632C80.6133 954.445 79.9507 954.137 79.512 953.708C79.0827 953.279 78.868 952.7 78.868 951.972C78.868 951.384 79.022 950.866 79.33 950.418C79.6473 949.97 80.086 949.625 80.646 949.382C81.206 949.13 81.85 949.004 82.578 949.004C83.25 949.004 83.8707 949.107 84.44 949.312C85.0187 949.508 85.5087 949.797 85.91 950.18L85.434 951.286C84.6407 950.586 83.684 950.236 82.564 950.236C81.8733 950.236 81.3227 950.39 80.912 950.698C80.5107 951.006 80.31 951.417 80.31 951.93C80.31 952.322 80.436 952.635 80.688 952.868C80.94 953.101 81.36 953.279 81.948 953.4L83.432 953.708C84.3653 953.904 85.0607 954.207 85.518 954.618C85.9753 955.019 86.204 955.565 86.204 956.256C86.204 956.835 86.05 957.339 85.742 957.768C85.434 958.197 85 958.533 84.44 958.776C83.88 959.009 83.2127 959.126 82.438 959.126ZM91.209 959.126C90.089 959.126 89.207 958.813 88.563 958.188C87.919 957.553 87.597 956.69 87.597 955.598C87.597 954.898 87.737 954.282 88.017 953.75C88.3063 953.209 88.703 952.789 89.207 952.49C89.711 952.191 90.2897 952.042 90.943 952.042C91.8857 952.042 92.6277 952.345 93.169 952.952C93.7103 953.549 93.981 954.375 93.981 955.43V955.906H88.969C89.0717 957.325 89.823 958.034 91.223 958.034C91.615 958.034 91.9977 957.973 92.371 957.852C92.7537 957.731 93.113 957.53 93.449 957.25L93.869 958.23C93.561 958.51 93.1643 958.729 92.679 958.888C92.1937 959.047 91.7037 959.126 91.209 959.126ZM90.999 953.036C90.411 953.036 89.9443 953.218 89.599 953.582C89.2537 953.946 89.0437 954.431 88.969 955.038H92.791C92.763 954.403 92.595 953.913 92.287 953.568C91.979 953.213 91.5497 953.036 90.999 953.036ZM98.7208 959.126C97.8622 959.126 97.2228 958.907 96.8028 958.468C96.3828 958.029 96.1728 957.395 96.1728 956.564V953.26H94.8428V952.168H96.1728V950.11H97.5868V952.168H99.7008V953.26H97.5868V956.452C97.5868 956.947 97.6895 957.32 97.8948 957.572C98.1095 957.824 98.4548 957.95 98.9308 957.95C99.0802 957.95 99.2248 957.936 99.3648 957.908C99.5048 957.871 99.6448 957.829 99.7848 957.782L100.009 958.846C99.8688 958.93 99.6728 958.995 99.4208 959.042C99.1782 959.098 98.9448 959.126 98.7208 959.126ZM103.861 959.126C103.002 959.126 102.363 958.907 101.943 958.468C101.523 958.029 101.313 957.395 101.313 956.564V953.26H99.9827V952.168H101.313V950.11H102.727V952.168H104.841V953.26H102.727V956.452C102.727 956.947 102.829 957.32 103.035 957.572C103.249 957.824 103.595 957.95 104.071 957.95C104.22 957.95 104.365 957.936 104.505 957.908C104.645 957.871 104.785 957.829 104.925 957.782L105.149 958.846C105.009 958.93 104.813 958.995 104.561 959.042C104.318 959.098 104.085 959.126 103.861 959.126ZM106.236 950.586V949.116H107.888V950.586H106.236ZM106.362 959V952.168H107.776V959H106.362ZM110.066 959V952.168H111.438V953.302C111.672 952.891 111.989 952.579 112.39 952.364C112.801 952.149 113.258 952.042 113.762 952.042C115.377 952.042 116.184 952.957 116.184 954.786V959H114.77V954.87C114.77 954.282 114.654 953.853 114.42 953.582C114.196 953.311 113.842 953.176 113.356 953.176C112.787 953.176 112.33 953.358 111.984 953.722C111.648 954.077 111.48 954.548 111.48 955.136V959H110.066ZM121.527 961.646C120.911 961.646 120.337 961.571 119.805 961.422C119.273 961.282 118.801 961.058 118.391 960.75L118.825 959.742C119.235 960.022 119.655 960.227 120.085 960.358C120.514 960.489 120.962 960.554 121.429 960.554C122.735 960.554 123.389 959.901 123.389 958.594V957.516C123.193 957.927 122.885 958.249 122.465 958.482C122.054 958.715 121.592 958.832 121.079 958.832C120.463 958.832 119.926 958.692 119.469 958.412C119.011 958.123 118.657 957.726 118.405 957.222C118.153 956.709 118.027 956.111 118.027 955.43C118.027 954.758 118.153 954.17 118.405 953.666C118.657 953.153 119.011 952.756 119.469 952.476C119.926 952.187 120.463 952.042 121.079 952.042C121.601 952.042 122.068 952.159 122.479 952.392C122.889 952.625 123.193 952.947 123.389 953.358V952.168H124.761V958.426C124.761 959.499 124.485 960.302 123.935 960.834C123.384 961.375 122.581 961.646 121.527 961.646ZM121.415 957.726C122.012 957.726 122.488 957.521 122.843 957.11C123.197 956.699 123.375 956.139 123.375 955.43C123.375 954.721 123.197 954.165 122.843 953.764C122.488 953.353 122.012 953.148 121.415 953.148C120.817 953.148 120.341 953.353 119.987 953.764C119.632 954.165 119.455 954.721 119.455 955.43C119.455 956.139 119.632 956.699 119.987 957.11C120.341 957.521 120.817 957.726 121.415 957.726ZM129.439 959.126C128.879 959.126 128.357 959.056 127.871 958.916C127.386 958.767 126.98 958.561 126.653 958.3L127.059 957.348C127.405 957.591 127.783 957.777 128.193 957.908C128.613 958.039 129.033 958.104 129.453 958.104C129.948 958.104 130.321 958.015 130.573 957.838C130.825 957.661 130.951 957.423 130.951 957.124C130.951 956.881 130.867 956.695 130.699 956.564C130.531 956.424 130.279 956.317 129.943 956.242L128.613 955.976C127.437 955.733 126.849 955.127 126.849 954.156C126.849 953.512 127.106 952.999 127.619 952.616C128.133 952.233 128.805 952.042 129.635 952.042C130.111 952.042 130.564 952.112 130.993 952.252C131.432 952.392 131.796 952.602 132.085 952.882L131.679 953.834C131.399 953.591 131.077 953.405 130.713 953.274C130.349 953.143 129.99 953.078 129.635 953.078C129.15 953.078 128.781 953.171 128.529 953.358C128.277 953.535 128.151 953.778 128.151 954.086C128.151 954.553 128.459 954.851 129.075 954.982L130.405 955.248C131.012 955.369 131.469 955.575 131.777 955.864C132.095 956.153 132.253 956.545 132.253 957.04C132.253 957.693 131.997 958.207 131.483 958.58C130.97 958.944 130.289 959.126 129.439 959.126Z" fill="#202224"/>
<path d="M0.5 912.5H239.5" stroke="#E0E0E0" stroke-width="0.6" stroke-linecap="square"/>
<rect opacity="0.01" y="846" width="240" height="50" fill="white"/>
<path d="M81.556 876V867.348H78.056V866.13H86.498V867.348H82.998V876H81.556ZM88.9565 876.126C88.4805 876.126 88.0558 876.033 87.6825 875.846C87.3092 875.659 87.0105 875.407 86.7865 875.09C86.5718 874.773 86.4645 874.413 86.4645 874.012C86.4645 873.508 86.5905 873.111 86.8425 872.822C87.1038 872.533 87.5285 872.323 88.1165 872.192C88.7138 872.061 89.5165 871.996 90.5245 871.996H91.0005V871.632C91.0005 871.1 90.8885 870.717 90.6645 870.484C90.4405 870.251 90.0718 870.134 89.5585 870.134C89.1665 870.134 88.7745 870.195 88.3825 870.316C87.9905 870.428 87.5892 870.61 87.1785 870.862L86.7445 869.868C87.0992 869.616 87.5425 869.415 88.0745 869.266C88.6065 869.117 89.1152 869.042 89.6005 869.042C90.5338 869.042 91.2245 869.266 91.6725 869.714C92.1205 870.153 92.3445 870.843 92.3445 871.786V876H91.0145V874.866C90.8465 875.258 90.5852 875.566 90.2305 875.79C89.8758 876.014 89.4512 876.126 88.9565 876.126ZM89.2365 875.118C89.7405 875.118 90.1605 874.941 90.4965 874.586C90.8325 874.231 91.0005 873.783 91.0005 873.242V872.864H90.5385C89.8572 872.864 89.3205 872.897 88.9285 872.962C88.5458 873.027 88.2705 873.139 88.1025 873.298C87.9438 873.447 87.8645 873.657 87.8645 873.928C87.8645 874.283 87.9858 874.572 88.2285 874.796C88.4712 875.011 88.8072 875.118 89.2365 875.118ZM98.26 876.126C97.7374 876.126 97.2754 876.009 96.874 875.776C96.4727 875.543 96.174 875.23 95.978 874.838V876H94.592V866.13H96.006V870.274C96.2114 869.901 96.51 869.602 96.902 869.378C97.3034 869.154 97.756 869.042 98.26 869.042C98.8667 869.042 99.394 869.187 99.842 869.476C100.299 869.765 100.649 870.176 100.892 870.708C101.144 871.231 101.27 871.856 101.27 872.584C101.27 873.312 101.144 873.942 100.892 874.474C100.649 875.006 100.299 875.417 99.842 875.706C99.394 875.986 98.8667 876.126 98.26 876.126ZM97.91 875.034C98.498 875.034 98.9647 874.824 99.31 874.404C99.6647 873.984 99.842 873.377 99.842 872.584C99.842 871.791 99.6647 871.189 99.31 870.778C98.9647 870.358 98.498 870.148 97.91 870.148C97.322 870.148 96.8507 870.358 96.496 870.778C96.1507 871.189 95.978 871.791 95.978 872.584C95.978 873.377 96.1507 873.984 96.496 874.404C96.8507 874.824 97.322 875.034 97.91 875.034ZM105.39 876.126C104.643 876.126 104.083 875.916 103.71 875.496C103.346 875.076 103.164 874.46 103.164 873.648V866.13H104.578V873.564C104.578 874.488 104.956 874.95 105.712 874.95C105.824 874.95 105.926 874.945 106.02 874.936C106.122 874.927 106.225 874.908 106.328 874.88L106.3 876.014C105.982 876.089 105.679 876.126 105.39 876.126ZM110.88 876.126C109.76 876.126 108.878 875.813 108.234 875.188C107.59 874.553 107.268 873.69 107.268 872.598C107.268 871.898 107.408 871.282 107.688 870.75C107.978 870.209 108.374 869.789 108.878 869.49C109.382 869.191 109.961 869.042 110.614 869.042C111.557 869.042 112.299 869.345 112.84 869.952C113.382 870.549 113.652 871.375 113.652 872.43V872.906H108.64C108.743 874.325 109.494 875.034 110.894 875.034C111.286 875.034 111.669 874.973 112.042 874.852C112.425 874.731 112.784 874.53 113.12 874.25L113.54 875.23C113.232 875.51 112.836 875.729 112.35 875.888C111.865 876.047 111.375 876.126 110.88 876.126ZM110.67 870.036C110.082 870.036 109.616 870.218 109.27 870.582C108.925 870.946 108.715 871.431 108.64 872.038H112.462C112.434 871.403 112.266 870.913 111.958 870.568C111.65 870.213 111.221 870.036 110.67 870.036Z" fill="#202224"/>
<rect opacity="0.01" y="796" width="240" height="50" fill="white"/>
<path d="M79.148 826V816.13H83.236C84.3 816.13 85.1213 816.396 85.7 816.928C86.2787 817.451 86.568 818.188 86.568 819.14C86.568 820.101 86.2787 820.848 85.7 821.38C85.1213 821.903 84.3 822.164 83.236 822.164H80.604V826H79.148ZM80.604 821.002H83.026C84.4447 821.002 85.154 820.381 85.154 819.14C85.154 817.908 84.4447 817.292 83.026 817.292H80.604V821.002ZM88.1397 826V819.168H89.5117V820.386C89.8664 819.574 90.6037 819.121 91.7237 819.028L92.1857 819L92.2837 820.204L91.4297 820.288C90.1884 820.409 89.5677 821.049 89.5677 822.206V826H88.1397ZM96.5347 826.126C95.844 826.126 95.2467 825.981 94.7427 825.692C94.2387 825.403 93.8467 824.997 93.5667 824.474C93.296 823.942 93.1607 823.312 93.1607 822.584C93.1607 821.856 93.296 821.231 93.5667 820.708C93.8467 820.176 94.2387 819.765 94.7427 819.476C95.2467 819.187 95.844 819.042 96.5347 819.042C97.2067 819.042 97.7947 819.187 98.2987 819.476C98.8027 819.765 99.1947 820.176 99.4747 820.708C99.7547 821.231 99.8947 821.856 99.8947 822.584C99.8947 823.312 99.7547 823.942 99.4747 824.474C99.1947 824.997 98.8027 825.403 98.2987 825.692C97.7947 825.981 97.2067 826.126 96.5347 826.126ZM96.5347 825.034C97.1133 825.034 97.58 824.824 97.9347 824.404C98.2893 823.984 98.4667 823.377 98.4667 822.584C98.4667 821.791 98.2893 821.189 97.9347 820.778C97.58 820.358 97.1133 820.148 96.5347 820.148C95.9467 820.148 95.4753 820.358 95.1207 820.778C94.766 821.189 94.5887 821.791 94.5887 822.584C94.5887 823.377 94.766 823.984 95.1207 824.404C95.4753 824.824 95.9467 825.034 96.5347 825.034ZM102.12 826V820.26H100.79V819.168H102.12V819.042C102.12 818.099 102.358 817.39 102.834 816.914C103.32 816.438 104.062 816.172 105.06 816.116L105.62 816.088L105.704 817.152L105.13 817.18C104.561 817.217 104.15 817.371 103.898 817.642C103.656 817.913 103.534 818.314 103.534 818.846V819.168H107.888V826H106.474V820.26H103.534V826H102.12ZM106.348 817.586V816.116H108V817.586H106.348ZM112.389 826.126C111.642 826.126 111.082 825.916 110.709 825.496C110.345 825.076 110.163 824.46 110.163 823.648V816.13H111.577V823.564C111.577 824.488 111.955 824.95 112.711 824.95C112.823 824.95 112.925 824.945 113.019 824.936C113.121 824.927 113.224 824.908 113.327 824.88L113.299 826.014C112.981 826.089 112.678 826.126 112.389 826.126ZM117.88 826.126C116.76 826.126 115.878 825.813 115.234 825.188C114.59 824.553 114.268 823.69 114.268 822.598C114.268 821.898 114.408 821.282 114.688 820.75C114.977 820.209 115.374 819.789 115.878 819.49C116.382 819.191 116.96 819.042 117.614 819.042C118.556 819.042 119.298 819.345 119.84 819.952C120.381 820.549 120.652 821.375 120.652 822.43V822.906H115.64C115.742 824.325 116.494 825.034 117.894 825.034C118.286 825.034 118.668 824.973 119.042 824.852C119.424 824.731 119.784 824.53 120.12 824.25L120.54 825.23C120.232 825.51 119.835 825.729 119.35 825.888C118.864 826.047 118.374 826.126 117.88 826.126ZM117.67 820.036C117.082 820.036 116.615 820.218 116.27 820.582C115.924 820.946 115.714 821.431 115.64 822.038H119.462C119.434 821.403 119.266 820.913 118.958 820.568C118.65 820.213 118.22 820.036 117.67 820.036Z" fill="#202224"/>
<rect opacity="0.01" y="746" width="240" height="50" fill="white"/>
<path d="M83.138 776.126C81.822 776.126 80.814 775.781 80.114 775.09C79.4233 774.39 79.078 773.368 79.078 772.024V766.13H80.534V771.996C80.534 773.909 81.402 774.866 83.138 774.866C84.874 774.866 85.742 773.909 85.742 771.996V766.13H87.17V772.024C87.17 773.368 86.8293 774.39 86.148 775.09C85.4667 775.781 84.4633 776.126 83.138 776.126ZM89.7156 776V766.13H91.1716V776H89.7156ZM97.7257 776V766.13H104.11V767.306H99.1257V770.4H103.816V771.576H99.1257V774.824H104.11V776H97.7257ZM108.342 776.126C107.595 776.126 107.035 775.916 106.662 775.496C106.298 775.076 106.116 774.46 106.116 773.648V766.13H107.53V773.564C107.53 774.488 107.908 774.95 108.664 774.95C108.776 774.95 108.879 774.945 108.972 774.936C109.075 774.927 109.177 774.908 109.28 774.88L109.252 776.014C108.935 776.089 108.631 776.126 108.342 776.126ZM113.833 776.126C112.713 776.126 111.831 775.813 111.187 775.188C110.543 774.553 110.221 773.69 110.221 772.598C110.221 771.898 110.361 771.282 110.641 770.75C110.93 770.209 111.327 769.789 111.831 769.49C112.335 769.191 112.913 769.042 113.567 769.042C114.509 769.042 115.251 769.345 115.793 769.952C116.334 770.549 116.605 771.375 116.605 772.43V772.906H111.593C111.695 774.325 112.447 775.034 113.847 775.034C114.239 775.034 114.621 774.973 114.995 774.852C115.377 774.731 115.737 774.53 116.073 774.25L116.493 775.23C116.185 775.51 115.788 775.729 115.303 775.888C114.817 776.047 114.327 776.126 113.833 776.126ZM113.623 770.036C113.035 770.036 112.568 770.218 112.223 770.582C111.877 770.946 111.667 771.431 111.593 772.038H115.415C115.387 771.403 115.219 770.913 114.911 770.568C114.603 770.213 114.173 770.036 113.623 770.036ZM118.474 776V769.168H119.846V770.274C120.052 769.882 120.336 769.579 120.7 769.364C121.064 769.149 121.489 769.042 121.974 769.042C123.02 769.042 123.696 769.499 124.004 770.414C124.219 769.985 124.527 769.649 124.928 769.406C125.33 769.163 125.787 769.042 126.3 769.042C127.831 769.042 128.596 769.957 128.596 771.786V776H127.182V771.856C127.182 771.277 127.08 770.853 126.874 770.582C126.678 770.311 126.352 770.176 125.894 770.176C125.381 770.176 124.975 770.358 124.676 770.722C124.378 771.077 124.228 771.562 124.228 772.178V776H122.814V771.856C122.814 771.277 122.716 770.853 122.52 770.582C122.324 770.311 121.998 770.176 121.54 770.176C121.027 770.176 120.621 770.358 120.322 770.722C120.033 771.077 119.888 771.562 119.888 772.178V776H118.474ZM134.079 776.126C132.959 776.126 132.077 775.813 131.433 775.188C130.789 774.553 130.467 773.69 130.467 772.598C130.467 771.898 130.607 771.282 130.887 770.75C131.177 770.209 131.573 769.789 132.077 769.49C132.581 769.191 133.16 769.042 133.813 769.042C134.756 769.042 135.498 769.345 136.039 769.952C136.581 770.549 136.851 771.375 136.851 772.43V772.906H131.839C131.942 774.325 132.693 775.034 134.093 775.034C134.485 775.034 134.868 774.973 135.241 774.852C135.624 774.731 135.983 774.53 136.319 774.25L136.739 775.23C136.431 775.51 136.035 775.729 135.549 775.888C135.064 776.047 134.574 776.126 134.079 776.126ZM133.869 770.036C133.281 770.036 132.815 770.218 132.469 770.582C132.124 770.946 131.914 771.431 131.839 772.038H135.661C135.633 771.403 135.465 770.913 135.157 770.568C134.849 770.213 134.42 770.036 133.869 770.036ZM138.693 776V769.168H140.065V770.302C140.298 769.891 140.615 769.579 141.017 769.364C141.427 769.149 141.885 769.042 142.389 769.042C144.003 769.042 144.811 769.957 144.811 771.786V776H143.397V771.87C143.397 771.282 143.28 770.853 143.047 770.582C142.823 770.311 142.468 770.176 141.983 770.176C141.413 770.176 140.956 770.358 140.611 770.722C140.275 771.077 140.107 771.548 140.107 772.136V776H138.693ZM149.971 776.126C149.113 776.126 148.473 775.907 148.053 775.468C147.633 775.029 147.423 774.395 147.423 773.564V770.26H146.093V769.168H147.423V767.11H148.837V769.168H150.951V770.26H148.837V773.452C148.837 773.947 148.94 774.32 149.145 774.572C149.36 774.824 149.705 774.95 150.181 774.95C150.331 774.95 150.475 774.936 150.615 774.908C150.755 774.871 150.895 774.829 151.035 774.782L151.259 775.846C151.119 775.93 150.923 775.995 150.671 776.042C150.429 776.098 150.195 776.126 149.971 776.126ZM154.867 776.126C154.307 776.126 153.784 776.056 153.299 775.916C152.813 775.767 152.407 775.561 152.081 775.3L152.487 774.348C152.832 774.591 153.21 774.777 153.621 774.908C154.041 775.039 154.461 775.104 154.881 775.104C155.375 775.104 155.749 775.015 156.001 774.838C156.253 774.661 156.379 774.423 156.379 774.124C156.379 773.881 156.295 773.695 156.127 773.564C155.959 773.424 155.707 773.317 155.371 773.242L154.041 772.976C152.865 772.733 152.277 772.127 152.277 771.156C152.277 770.512 152.533 769.999 153.047 769.616C153.56 769.233 154.232 769.042 155.063 769.042C155.539 769.042 155.991 769.112 156.421 769.252C156.859 769.392 157.223 769.602 157.513 769.882L157.107 770.834C156.827 770.591 156.505 770.405 156.141 770.274C155.777 770.143 155.417 770.078 155.063 770.078C154.577 770.078 154.209 770.171 153.957 770.358C153.705 770.535 153.579 770.778 153.579 771.086C153.579 771.553 153.887 771.851 154.503 771.982L155.833 772.248C156.439 772.369 156.897 772.575 157.205 772.864C157.522 773.153 157.681 773.545 157.681 774.04C157.681 774.693 157.424 775.207 156.911 775.58C156.397 775.944 155.716 776.126 154.867 776.126Z" fill="#202224"/>
<rect opacity="0.01" y="696" width="240" height="50" fill="white"/>
<path d="M79.148 726V716.13H80.604V726H79.148ZM83.0264 726V719.168H84.3984V720.302C84.6318 719.891 84.9491 719.579 85.3504 719.364C85.7611 719.149 86.2184 719.042 86.7224 719.042C88.3371 719.042 89.1444 719.957 89.1444 721.786V726H87.7304V721.87C87.7304 721.282 87.6138 720.853 87.3804 720.582C87.1564 720.311 86.8018 720.176 86.3164 720.176C85.7471 720.176 85.2898 720.358 84.9444 720.722C84.6084 721.077 84.4404 721.548 84.4404 722.136V726H83.0264ZM93.3265 726L90.3865 719.168H91.9125L93.9985 724.362L96.1405 719.168H97.5825L94.6005 726H93.3265ZM101.743 726.126C101.052 726.126 100.455 725.981 99.9509 725.692C99.4469 725.403 99.0549 724.997 98.7749 724.474C98.5042 723.942 98.3689 723.312 98.3689 722.584C98.3689 721.856 98.5042 721.231 98.7749 720.708C99.0549 720.176 99.4469 719.765 99.9509 719.476C100.455 719.187 101.052 719.042 101.743 719.042C102.415 719.042 103.003 719.187 103.507 719.476C104.011 719.765 104.403 720.176 104.683 720.708C104.963 721.231 105.103 721.856 105.103 722.584C105.103 723.312 104.963 723.942 104.683 724.474C104.403 724.997 104.011 725.403 103.507 725.692C103.003 725.981 102.415 726.126 101.743 726.126ZM101.743 725.034C102.322 725.034 102.788 724.824 103.143 724.404C103.498 723.984 103.675 723.377 103.675 722.584C103.675 721.791 103.498 721.189 103.143 720.778C102.788 720.358 102.322 720.148 101.743 720.148C101.155 720.148 100.684 720.358 100.329 720.778C99.9742 721.189 99.7969 721.791 99.7969 722.584C99.7969 723.377 99.9742 723.984 100.329 724.404C100.684 724.824 101.155 725.034 101.743 725.034ZM106.865 717.586V716.116H108.517V717.586H106.865ZM106.991 726V719.168H108.405V726H106.991ZM113.705 726.126C113.005 726.126 112.399 725.981 111.885 725.692C111.381 725.393 110.989 724.978 110.709 724.446C110.429 723.905 110.289 723.27 110.289 722.542C110.289 721.459 110.597 720.605 111.213 719.98C111.829 719.355 112.66 719.042 113.705 719.042C114.135 719.042 114.559 719.117 114.979 719.266C115.399 719.415 115.745 719.621 116.015 719.882L115.567 720.876C115.306 720.633 115.017 720.456 114.699 720.344C114.391 720.223 114.097 720.162 113.817 720.162C113.155 720.162 112.641 720.372 112.277 720.792C111.923 721.203 111.745 721.791 111.745 722.556C111.745 723.321 111.923 723.923 112.277 724.362C112.641 724.791 113.155 725.006 113.817 725.006C114.097 725.006 114.391 724.95 114.699 724.838C115.017 724.717 115.306 724.535 115.567 724.292L116.015 725.3C115.745 725.552 115.395 725.753 114.965 725.902C114.545 726.051 114.125 726.126 113.705 726.126ZM120.6 726.126C119.48 726.126 118.598 725.813 117.954 725.188C117.31 724.553 116.988 723.69 116.988 722.598C116.988 721.898 117.128 721.282 117.408 720.75C117.697 720.209 118.094 719.789 118.598 719.49C119.102 719.191 119.68 719.042 120.334 719.042C121.276 719.042 122.018 719.345 122.56 719.952C123.101 720.549 123.372 721.375 123.372 722.43V722.906H118.36C118.462 724.325 119.214 725.034 120.614 725.034C121.006 725.034 121.388 724.973 121.762 724.852C122.144 724.731 122.504 724.53 122.84 724.25L123.26 725.23C122.952 725.51 122.555 725.729 122.07 725.888C121.584 726.047 121.094 726.126 120.6 726.126ZM120.39 720.036C119.802 720.036 119.335 720.218 118.99 720.582C118.644 720.946 118.434 721.431 118.36 722.038H122.182C122.154 721.403 121.986 720.913 121.678 720.568C121.37 720.213 120.94 720.036 120.39 720.036Z" fill="#202224"/>
<rect opacity="0.01" y="646" width="240" height="50" fill="white"/>
<path d="M83.572 676.126C82.5733 676.126 81.7193 675.921 81.01 675.51C80.3007 675.099 79.7547 674.516 79.372 673.76C78.9987 672.995 78.812 672.094 78.812 671.058C78.812 670.022 78.9987 669.126 79.372 668.37C79.7547 667.614 80.3007 667.031 81.01 666.62C81.7193 666.209 82.5733 666.004 83.572 666.004C84.244 666.004 84.8693 666.111 85.448 666.326C86.036 666.531 86.526 666.83 86.918 667.222L86.414 668.384C85.9847 668.001 85.5413 667.726 85.084 667.558C84.636 667.381 84.146 667.292 83.614 667.292C82.55 667.292 81.738 667.619 81.178 668.272C80.618 668.925 80.338 669.854 80.338 671.058C80.338 672.262 80.618 673.195 81.178 673.858C81.738 674.511 82.55 674.838 83.614 674.838C84.146 674.838 84.636 674.754 85.084 674.586C85.5413 674.409 85.9847 674.129 86.414 673.746L86.918 674.908C86.526 675.291 86.036 675.589 85.448 675.804C84.8693 676.019 84.244 676.126 83.572 676.126ZM91.2308 676.126C90.5401 676.126 89.9428 675.981 89.4388 675.692C88.9348 675.403 88.5428 674.997 88.2628 674.474C87.9921 673.942 87.8568 673.312 87.8568 672.584C87.8568 671.856 87.9921 671.231 88.2628 670.708C88.5428 670.176 88.9348 669.765 89.4388 669.476C89.9428 669.187 90.5401 669.042 91.2308 669.042C91.9028 669.042 92.4908 669.187 92.9948 669.476C93.4988 669.765 93.8908 670.176 94.1708 670.708C94.4508 671.231 94.5908 671.856 94.5908 672.584C94.5908 673.312 94.4508 673.942 94.1708 674.474C93.8908 674.997 93.4988 675.403 92.9948 675.692C92.4908 675.981 91.9028 676.126 91.2308 676.126ZM91.2308 675.034C91.8094 675.034 92.2761 674.824 92.6308 674.404C92.9854 673.984 93.1628 673.377 93.1628 672.584C93.1628 671.791 92.9854 671.189 92.6308 670.778C92.2761 670.358 91.8094 670.148 91.2308 670.148C90.6428 670.148 90.1714 670.358 89.8168 670.778C89.4621 671.189 89.2848 671.791 89.2848 672.584C89.2848 673.377 89.4621 673.984 89.8168 674.404C90.1714 674.824 90.6428 675.034 91.2308 675.034ZM96.4788 676V669.168H97.8508V670.302C98.0841 669.891 98.4014 669.579 98.8028 669.364C99.2134 669.149 99.6708 669.042 100.175 669.042C101.789 669.042 102.597 669.957 102.597 671.786V676H101.183V671.87C101.183 671.282 101.066 670.853 100.833 670.582C100.609 670.311 100.254 670.176 99.7688 670.176C99.1994 670.176 98.7421 670.358 98.3968 670.722C98.0608 671.077 97.8928 671.548 97.8928 672.136V676H96.4788ZM107.757 676.126C106.899 676.126 106.259 675.907 105.839 675.468C105.419 675.029 105.209 674.395 105.209 673.564V670.26H103.879V669.168H105.209V667.11H106.623V669.168H108.737V670.26H106.623V673.452C106.623 673.947 106.726 674.32 106.931 674.572C107.146 674.824 107.491 674.95 107.967 674.95C108.117 674.95 108.261 674.936 108.401 674.908C108.541 674.871 108.681 674.829 108.821 674.782L109.045 675.846C108.905 675.93 108.709 675.995 108.457 676.042C108.215 676.098 107.981 676.126 107.757 676.126ZM112.442 676.126C111.966 676.126 111.542 676.033 111.168 675.846C110.795 675.659 110.496 675.407 110.272 675.09C110.058 674.773 109.95 674.413 109.95 674.012C109.95 673.508 110.076 673.111 110.328 672.822C110.59 672.533 111.014 672.323 111.602 672.192C112.2 672.061 113.002 671.996 114.01 671.996H114.486V671.632C114.486 671.1 114.374 670.717 114.15 670.484C113.926 670.251 113.558 670.134 113.044 670.134C112.652 670.134 112.26 670.195 111.868 670.316C111.476 670.428 111.075 670.61 110.664 670.862L110.23 669.868C110.585 669.616 111.028 669.415 111.56 669.266C112.092 669.117 112.601 669.042 113.086 669.042C114.02 669.042 114.71 669.266 115.158 669.714C115.606 670.153 115.83 670.843 115.83 671.786V676H114.5V674.866C114.332 675.258 114.071 675.566 113.716 675.79C113.362 676.014 112.937 676.126 112.442 676.126ZM112.722 675.118C113.226 675.118 113.646 674.941 113.982 674.586C114.318 674.231 114.486 673.783 114.486 673.242V672.864H114.024C113.343 672.864 112.806 672.897 112.414 672.962C112.032 673.027 111.756 673.139 111.588 673.298C111.43 673.447 111.35 673.657 111.35 673.928C111.35 674.283 111.472 674.572 111.714 674.796C111.957 675.011 112.293 675.118 112.722 675.118ZM121.088 676.126C120.388 676.126 119.781 675.981 119.268 675.692C118.764 675.393 118.372 674.978 118.092 674.446C117.812 673.905 117.672 673.27 117.672 672.542C117.672 671.459 117.98 670.605 118.596 669.98C119.212 669.355 120.043 669.042 121.088 669.042C121.517 669.042 121.942 669.117 122.362 669.266C122.782 669.415 123.127 669.621 123.398 669.882L122.95 670.876C122.689 670.633 122.399 670.456 122.082 670.344C121.774 670.223 121.48 670.162 121.2 670.162C120.537 670.162 120.024 670.372 119.66 670.792C119.305 671.203 119.128 671.791 119.128 672.556C119.128 673.321 119.305 673.923 119.66 674.362C120.024 674.791 120.537 675.006 121.2 675.006C121.48 675.006 121.774 674.95 122.082 674.838C122.399 674.717 122.689 674.535 122.95 674.292L123.398 675.3C123.127 675.552 122.777 675.753 122.348 675.902C121.928 676.051 121.508 676.126 121.088 676.126ZM127.839 676.126C126.98 676.126 126.341 675.907 125.921 675.468C125.501 675.029 125.291 674.395 125.291 673.564V670.26H123.961V669.168H125.291V667.11H126.705V669.168H128.819V670.26H126.705V673.452C126.705 673.947 126.807 674.32 127.013 674.572C127.227 674.824 127.573 674.95 128.049 674.95C128.198 674.95 128.343 674.936 128.483 674.908C128.623 674.871 128.763 674.829 128.903 674.782L129.127 675.846C128.987 675.93 128.791 675.995 128.539 676.042C128.296 676.098 128.063 676.126 127.839 676.126Z" fill="#202224"/>
<rect opacity="0.01" y="596" width="240" height="50" fill="white"/>
<path d="M81.556 626V617.348H78.056V616.13H86.498V617.348H82.998V626H81.556ZM89.7405 626.126C89.0498 626.126 88.4525 625.981 87.9485 625.692C87.4445 625.403 87.0525 624.997 86.7725 624.474C86.5018 623.942 86.3665 623.312 86.3665 622.584C86.3665 621.856 86.5018 621.231 86.7725 620.708C87.0525 620.176 87.4445 619.765 87.9485 619.476C88.4525 619.187 89.0498 619.042 89.7405 619.042C90.4125 619.042 91.0005 619.187 91.5045 619.476C92.0085 619.765 92.4005 620.176 92.6805 620.708C92.9605 621.231 93.1005 621.856 93.1005 622.584C93.1005 623.312 92.9605 623.942 92.6805 624.474C92.4005 624.997 92.0085 625.403 91.5045 625.692C91.0005 625.981 90.4125 626.126 89.7405 626.126ZM89.7405 625.034C90.3192 625.034 90.7858 624.824 91.1405 624.404C91.4952 623.984 91.6725 623.377 91.6725 622.584C91.6725 621.791 91.4952 621.189 91.1405 620.778C90.7858 620.358 90.3192 620.148 89.7405 620.148C89.1525 620.148 88.6812 620.358 88.3265 620.778C87.9718 621.189 87.7945 621.791 87.7945 622.584C87.7945 623.377 87.9718 623.984 88.3265 624.404C88.6812 624.824 89.1525 625.034 89.7405 625.034ZM95.1796 622.836V621.688H99.2116V622.836H95.1796ZM101.65 626V616.13H105.136C106.76 616.13 108.01 616.555 108.888 617.404C109.774 618.253 110.218 619.471 110.218 621.058C110.218 622.645 109.774 623.867 108.888 624.726C108.01 625.575 106.76 626 105.136 626H101.65ZM103.106 624.782H105.052C107.488 624.782 108.706 623.541 108.706 621.058C108.706 618.585 107.488 617.348 105.052 617.348H103.106V624.782ZM115.277 626.126C114.587 626.126 113.989 625.981 113.485 625.692C112.981 625.403 112.589 624.997 112.309 624.474C112.039 623.942 111.903 623.312 111.903 622.584C111.903 621.856 112.039 621.231 112.309 620.708C112.589 620.176 112.981 619.765 113.485 619.476C113.989 619.187 114.587 619.042 115.277 619.042C115.949 619.042 116.537 619.187 117.041 619.476C117.545 619.765 117.937 620.176 118.217 620.708C118.497 621.231 118.637 621.856 118.637 622.584C118.637 623.312 118.497 623.942 118.217 624.474C117.937 624.997 117.545 625.403 117.041 625.692C116.537 625.981 115.949 626.126 115.277 626.126ZM115.277 625.034C115.856 625.034 116.323 624.824 116.677 624.404C117.032 623.984 117.209 623.377 117.209 622.584C117.209 621.791 117.032 621.189 116.677 620.778C116.323 620.358 115.856 620.148 115.277 620.148C114.689 620.148 114.218 620.358 113.863 620.778C113.509 621.189 113.331 621.791 113.331 622.584C113.331 623.377 113.509 623.984 113.863 624.404C114.218 624.824 114.689 625.034 115.277 625.034Z" fill="#202224"/>
<rect opacity="0.01" y="546" width="240" height="50" fill="white"/>
<path d="M79.148 576V566.13H85.42V567.306H80.604V570.456H85.126V571.632H80.604V576H79.148ZM89.9922 576.126C88.8722 576.126 87.9902 575.813 87.3462 575.188C86.7022 574.553 86.3802 573.69 86.3802 572.598C86.3802 571.898 86.5202 571.282 86.8002 570.75C87.0895 570.209 87.4862 569.789 87.9902 569.49C88.4942 569.191 89.0729 569.042 89.7262 569.042C90.6689 569.042 91.4109 569.345 91.9522 569.952C92.4935 570.549 92.7642 571.375 92.7642 572.43V572.906H87.7522C87.8549 574.325 88.6062 575.034 90.0062 575.034C90.3982 575.034 90.7809 574.973 91.1542 574.852C91.5369 574.731 91.8962 574.53 92.2322 574.25L92.6522 575.23C92.3442 575.51 91.9475 575.729 91.4622 575.888C90.9769 576.047 90.4869 576.126 89.9922 576.126ZM89.7822 570.036C89.1942 570.036 88.7275 570.218 88.3822 570.582C88.0369 570.946 87.8269 571.431 87.7522 572.038H91.5742C91.5462 571.403 91.3782 570.913 91.0702 570.568C90.7622 570.213 90.3329 570.036 89.7822 570.036ZM97.8117 576.126C96.6917 576.126 95.8097 575.813 95.1657 575.188C94.5217 574.553 94.1997 573.69 94.1997 572.598C94.1997 571.898 94.3397 571.282 94.6197 570.75C94.9091 570.209 95.3057 569.789 95.8097 569.49C96.3137 569.191 96.8924 569.042 97.5457 569.042C98.4884 569.042 99.2304 569.345 99.7717 569.952C100.313 570.549 100.584 571.375 100.584 572.43V572.906H95.5717C95.6744 574.325 96.4257 575.034 97.8257 575.034C98.2177 575.034 98.6004 574.973 98.9737 574.852C99.3564 574.731 99.7157 574.53 100.052 574.25L100.472 575.23C100.164 575.51 99.7671 575.729 99.2817 575.888C98.7964 576.047 98.3064 576.126 97.8117 576.126ZM97.6017 570.036C97.0137 570.036 96.5471 570.218 96.2017 570.582C95.8564 570.946 95.6464 571.431 95.5717 572.038H99.3937C99.3657 571.403 99.1977 570.913 98.8897 570.568C98.5817 570.213 98.1524 570.036 97.6017 570.036ZM105.029 576.126C104.432 576.126 103.905 575.986 103.447 575.706C102.999 575.417 102.649 575.006 102.397 574.474C102.145 573.942 102.019 573.312 102.019 572.584C102.019 571.856 102.145 571.231 102.397 570.708C102.649 570.176 102.999 569.765 103.447 569.476C103.895 569.187 104.423 569.042 105.029 569.042C105.543 569.042 106 569.154 106.401 569.378C106.803 569.602 107.101 569.905 107.297 570.288V566.13H108.711V576H107.325V574.81C107.129 575.221 106.826 575.543 106.415 575.776C106.014 576.009 105.552 576.126 105.029 576.126ZM105.393 575.034C105.972 575.034 106.439 574.824 106.793 574.404C107.148 573.984 107.325 573.377 107.325 572.584C107.325 571.791 107.148 571.189 106.793 570.778C106.439 570.358 105.972 570.148 105.393 570.148C104.805 570.148 104.334 570.358 103.979 570.778C103.625 571.189 103.447 571.791 103.447 572.584C103.447 573.377 103.625 573.984 103.979 574.404C104.334 574.824 104.805 575.034 105.393 575.034Z" fill="#202224"/>
<rect opacity="0.01" y="496" width="240" height="50" fill="white"/>
<path d="M83.572 526.126C82.5733 526.126 81.7193 525.921 81.01 525.51C80.3007 525.099 79.7547 524.516 79.372 523.76C78.9987 522.995 78.812 522.094 78.812 521.058C78.812 520.022 78.9987 519.126 79.372 518.37C79.7547 517.614 80.3007 517.031 81.01 516.62C81.7193 516.209 82.5733 516.004 83.572 516.004C84.244 516.004 84.8693 516.111 85.448 516.326C86.036 516.531 86.526 516.83 86.918 517.222L86.414 518.384C85.9847 518.001 85.5413 517.726 85.084 517.558C84.636 517.381 84.146 517.292 83.614 517.292C82.55 517.292 81.738 517.619 81.178 518.272C80.618 518.925 80.338 519.854 80.338 521.058C80.338 522.262 80.618 523.195 81.178 523.858C81.738 524.511 82.55 524.838 83.614 524.838C84.146 524.838 84.636 524.754 85.084 524.586C85.5413 524.409 85.9847 524.129 86.414 523.746L86.918 524.908C86.526 525.291 86.036 525.589 85.448 525.804C84.8693 526.019 84.244 526.126 83.572 526.126ZM90.7065 526.126C90.2305 526.126 89.8058 526.033 89.4325 525.846C89.0592 525.659 88.7605 525.407 88.5365 525.09C88.3218 524.773 88.2145 524.413 88.2145 524.012C88.2145 523.508 88.3405 523.111 88.5925 522.822C88.8538 522.533 89.2785 522.323 89.8665 522.192C90.4638 522.061 91.2665 521.996 92.2745 521.996H92.7505V521.632C92.7505 521.1 92.6385 520.717 92.4145 520.484C92.1905 520.251 91.8218 520.134 91.3085 520.134C90.9165 520.134 90.5245 520.195 90.1325 520.316C89.7405 520.428 89.3392 520.61 88.9285 520.862L88.4945 519.868C88.8492 519.616 89.2925 519.415 89.8245 519.266C90.3565 519.117 90.8652 519.042 91.3505 519.042C92.2838 519.042 92.9745 519.266 93.4225 519.714C93.8705 520.153 94.0945 520.843 94.0945 521.786V526H92.7645V524.866C92.5965 525.258 92.3352 525.566 91.9805 525.79C91.6258 526.014 91.2012 526.126 90.7065 526.126ZM90.9865 525.118C91.4905 525.118 91.9105 524.941 92.2465 524.586C92.5825 524.231 92.7505 523.783 92.7505 523.242V522.864H92.2885C91.6072 522.864 91.0705 522.897 90.6785 522.962C90.2958 523.027 90.0205 523.139 89.8525 523.298C89.6938 523.447 89.6145 523.657 89.6145 523.928C89.6145 524.283 89.7358 524.572 89.9785 524.796C90.2212 525.011 90.5572 525.118 90.9865 525.118ZM98.568 526.126C97.8214 526.126 97.2614 525.916 96.888 525.496C96.524 525.076 96.342 524.46 96.342 523.648V516.13H97.756V523.564C97.756 524.488 98.134 524.95 98.89 524.95C99.002 524.95 99.1047 524.945 99.198 524.936C99.3007 524.927 99.4034 524.908 99.506 524.88L99.478 526.014C99.1607 526.089 98.8574 526.126 98.568 526.126ZM104.059 526.126C102.939 526.126 102.057 525.813 101.413 525.188C100.769 524.553 100.447 523.69 100.447 522.598C100.447 521.898 100.587 521.282 100.867 520.75C101.156 520.209 101.553 519.789 102.057 519.49C102.561 519.191 103.14 519.042 103.793 519.042C104.736 519.042 105.478 519.345 106.019 519.952C106.56 520.549 106.831 521.375 106.831 522.43V522.906H101.819C101.922 524.325 102.673 525.034 104.073 525.034C104.465 525.034 104.848 524.973 105.221 524.852C105.604 524.731 105.963 524.53 106.299 524.25L106.719 525.23C106.411 525.51 106.014 525.729 105.529 525.888C105.044 526.047 104.554 526.126 104.059 526.126ZM103.849 520.036C103.261 520.036 102.794 520.218 102.449 520.582C102.104 520.946 101.894 521.431 101.819 522.038H105.641C105.613 521.403 105.445 520.913 105.137 520.568C104.829 520.213 104.4 520.036 103.849 520.036ZM108.673 526V519.168H110.045V520.302C110.278 519.891 110.595 519.579 110.997 519.364C111.407 519.149 111.865 519.042 112.369 519.042C113.983 519.042 114.791 519.957 114.791 521.786V526H113.377V521.87C113.377 521.282 113.26 520.853 113.027 520.582C112.803 520.311 112.448 520.176 111.963 520.176C111.393 520.176 110.936 520.358 110.591 520.722C110.255 521.077 110.087 521.548 110.087 522.136V526H108.673ZM119.643 526.126C119.046 526.126 118.518 525.986 118.061 525.706C117.613 525.417 117.263 525.006 117.011 524.474C116.759 523.942 116.633 523.312 116.633 522.584C116.633 521.856 116.759 521.231 117.011 520.708C117.263 520.176 117.613 519.765 118.061 519.476C118.509 519.187 119.036 519.042 119.643 519.042C120.156 519.042 120.614 519.154 121.015 519.378C121.416 519.602 121.715 519.905 121.911 520.288V516.13H123.325V526H121.939V524.81C121.743 525.221 121.44 525.543 121.029 525.776C120.628 526.009 120.166 526.126 119.643 526.126ZM120.007 525.034C120.586 525.034 121.052 524.824 121.407 524.404C121.762 523.984 121.939 523.377 121.939 522.584C121.939 521.791 121.762 521.189 121.407 520.778C121.052 520.358 120.586 520.148 120.007 520.148C119.419 520.148 118.948 520.358 118.593 520.778C118.238 521.189 118.061 521.791 118.061 522.584C118.061 523.377 118.238 523.984 118.593 524.404C118.948 524.824 119.419 525.034 120.007 525.034ZM127.794 526.126C127.318 526.126 126.894 526.033 126.52 525.846C126.147 525.659 125.848 525.407 125.624 525.09C125.41 524.773 125.302 524.413 125.302 524.012C125.302 523.508 125.428 523.111 125.68 522.822C125.942 522.533 126.366 522.323 126.954 522.192C127.552 522.061 128.354 521.996 129.362 521.996H129.838V521.632C129.838 521.1 129.726 520.717 129.502 520.484C129.278 520.251 128.91 520.134 128.396 520.134C128.004 520.134 127.612 520.195 127.22 520.316C126.828 520.428 126.427 520.61 126.016 520.862L125.582 519.868C125.937 519.616 126.38 519.415 126.912 519.266C127.444 519.117 127.953 519.042 128.438 519.042C129.372 519.042 130.062 519.266 130.51 519.714C130.958 520.153 131.182 520.843 131.182 521.786V526H129.852V524.866C129.684 525.258 129.423 525.566 129.068 525.79C128.714 526.014 128.289 526.126 127.794 526.126ZM128.074 525.118C128.578 525.118 128.998 524.941 129.334 524.586C129.67 524.231 129.838 523.783 129.838 523.242V522.864H129.376C128.695 522.864 128.158 522.897 127.766 522.962C127.384 523.027 127.108 523.139 126.94 523.298C126.782 523.447 126.702 523.657 126.702 523.928C126.702 524.283 126.824 524.572 127.066 524.796C127.309 525.011 127.645 525.118 128.074 525.118ZM135.614 526.126C135.138 526.126 134.713 526.033 134.34 525.846C133.967 525.659 133.668 525.407 133.444 525.09C133.229 524.773 133.122 524.413 133.122 524.012C133.122 523.508 133.248 523.111 133.5 522.822C133.761 522.533 134.186 522.323 134.774 522.192C135.371 522.061 136.174 521.996 137.182 521.996H137.658V521.632C137.658 521.1 137.546 520.717 137.322 520.484C137.098 520.251 136.729 520.134 136.216 520.134C135.824 520.134 135.432 520.195 135.04 520.316C134.648 520.428 134.247 520.61 133.836 520.862L133.402 519.868C133.757 519.616 134.2 519.415 134.732 519.266C135.264 519.117 135.773 519.042 136.258 519.042C137.191 519.042 137.882 519.266 138.33 519.714C138.778 520.153 139.002 520.843 139.002 521.786V526H137.672V524.866C137.504 525.258 137.243 525.566 136.888 525.79C136.533 526.014 136.109 526.126 135.614 526.126ZM135.894 525.118C136.398 525.118 136.818 524.941 137.154 524.586C137.49 524.231 137.658 523.783 137.658 523.242V522.864H137.196C136.515 522.864 135.978 522.897 135.586 522.962C135.203 523.027 134.928 523.139 134.76 523.298C134.601 523.447 134.522 523.657 134.522 523.928C134.522 524.283 134.643 524.572 134.886 524.796C135.129 525.011 135.465 525.118 135.894 525.118ZM141.249 526V519.168H142.621V520.386C142.976 519.574 143.713 519.121 144.833 519.028L145.295 519L145.393 520.204L144.539 520.288C143.298 520.409 142.677 521.049 142.677 522.206V526H141.249Z" fill="#202224"/>
<rect opacity="0.01" y="446" width="240" height="50" fill="white"/>
<path d="M79.148 476V466.13H85.42V467.306H80.604V470.456H85.126V471.632H80.604V476H79.148ZM86.92 467.586V466.116H88.572V467.586H86.92ZM87.046 476V469.168H88.46V476H87.046ZM92.9763 476.126C92.2296 476.126 91.6696 475.916 91.2963 475.496C90.9323 475.076 90.7503 474.46 90.7503 473.648V466.13H92.1643V473.564C92.1643 474.488 92.5423 474.95 93.2983 474.95C93.4103 474.95 93.5129 474.945 93.6063 474.936C93.7089 474.927 93.8116 474.908 93.9143 474.88L93.8863 476.014C93.5689 476.089 93.2656 476.126 92.9763 476.126ZM98.4672 476.126C97.3472 476.126 96.4652 475.813 95.8212 475.188C95.1772 474.553 94.8552 473.69 94.8552 472.598C94.8552 471.898 94.9952 471.282 95.2752 470.75C95.5645 470.209 95.9612 469.789 96.4652 469.49C96.9692 469.191 97.5479 469.042 98.2012 469.042C99.1439 469.042 99.8859 469.345 100.427 469.952C100.969 470.549 101.239 471.375 101.239 472.43V472.906H96.2272C96.3299 474.325 97.0812 475.034 98.4812 475.034C98.8732 475.034 99.2559 474.973 99.6292 474.852C100.012 474.731 100.371 474.53 100.707 474.25L101.127 475.23C100.819 475.51 100.423 475.729 99.9372 475.888C99.4519 476.047 98.9619 476.126 98.4672 476.126ZM98.2572 470.036C97.6692 470.036 97.2025 470.218 96.8572 470.582C96.5119 470.946 96.3019 471.431 96.2272 472.038H100.049C100.021 471.403 99.8532 470.913 99.5452 470.568C99.2372 470.213 98.8079 470.036 98.2572 470.036ZM107.24 476V466.13H108.458L112.112 472.948L115.752 466.13H116.942V476H115.64V468.762L112.546 474.488H111.664L108.556 468.79V476H107.24ZM121.601 476.126C121.125 476.126 120.7 476.033 120.327 475.846C119.954 475.659 119.655 475.407 119.431 475.09C119.216 474.773 119.109 474.413 119.109 474.012C119.109 473.508 119.235 473.111 119.487 472.822C119.748 472.533 120.173 472.323 120.761 472.192C121.358 472.061 122.161 471.996 123.169 471.996H123.645V471.632C123.645 471.1 123.533 470.717 123.309 470.484C123.085 470.251 122.716 470.134 122.203 470.134C121.811 470.134 121.419 470.195 121.027 470.316C120.635 470.428 120.234 470.61 119.823 470.862L119.389 469.868C119.744 469.616 120.187 469.415 120.719 469.266C121.251 469.117 121.76 469.042 122.245 469.042C123.178 469.042 123.869 469.266 124.317 469.714C124.765 470.153 124.989 470.843 124.989 471.786V476H123.659V474.866C123.491 475.258 123.23 475.566 122.875 475.79C122.52 476.014 122.096 476.126 121.601 476.126ZM121.881 475.118C122.385 475.118 122.805 474.941 123.141 474.586C123.477 474.231 123.645 473.783 123.645 473.242V472.864H123.183C122.502 472.864 121.965 472.897 121.573 472.962C121.19 473.027 120.915 473.139 120.747 473.298C120.588 473.447 120.509 473.657 120.509 473.928C120.509 474.283 120.63 474.572 120.873 474.796C121.116 475.011 121.452 475.118 121.881 475.118ZM127.237 476V469.168H128.609V470.302C128.842 469.891 129.159 469.579 129.561 469.364C129.971 469.149 130.429 469.042 130.933 469.042C132.547 469.042 133.355 469.957 133.355 471.786V476H131.941V471.87C131.941 471.282 131.824 470.853 131.591 470.582C131.367 470.311 131.012 470.176 130.527 470.176C129.957 470.176 129.5 470.358 129.155 470.722C128.819 471.077 128.651 471.548 128.651 472.136V476H127.237ZM137.787 476.126C137.311 476.126 136.886 476.033 136.513 475.846C136.14 475.659 135.841 475.407 135.617 475.09C135.402 474.773 135.295 474.413 135.295 474.012C135.295 473.508 135.421 473.111 135.673 472.822C135.934 472.533 136.359 472.323 136.947 472.192C137.544 472.061 138.347 471.996 139.355 471.996H139.831V471.632C139.831 471.1 139.719 470.717 139.495 470.484C139.271 470.251 138.902 470.134 138.389 470.134C137.997 470.134 137.605 470.195 137.213 470.316C136.821 470.428 136.42 470.61 136.009 470.862L135.575 469.868C135.93 469.616 136.373 469.415 136.905 469.266C137.437 469.117 137.946 469.042 138.431 469.042C139.364 469.042 140.055 469.266 140.503 469.714C140.951 470.153 141.175 470.843 141.175 471.786V476H139.845V474.866C139.677 475.258 139.416 475.566 139.061 475.79C138.706 476.014 138.282 476.126 137.787 476.126ZM138.067 475.118C138.571 475.118 138.991 474.941 139.327 474.586C139.663 474.231 139.831 473.783 139.831 473.242V472.864H139.369C138.688 472.864 138.151 472.897 137.759 472.962C137.376 473.027 137.101 473.139 136.933 473.298C136.774 473.447 136.695 473.657 136.695 473.928C136.695 474.283 136.816 474.572 137.059 474.796C137.302 475.011 137.638 475.118 138.067 475.118ZM146.517 478.646C145.901 478.646 145.327 478.571 144.795 478.422C144.263 478.282 143.791 478.058 143.381 477.75L143.815 476.742C144.225 477.022 144.645 477.227 145.075 477.358C145.504 477.489 145.952 477.554 146.419 477.554C147.725 477.554 148.379 476.901 148.379 475.594V474.516C148.183 474.927 147.875 475.249 147.455 475.482C147.044 475.715 146.582 475.832 146.069 475.832C145.453 475.832 144.916 475.692 144.459 475.412C144.001 475.123 143.647 474.726 143.395 474.222C143.143 473.709 143.017 473.111 143.017 472.43C143.017 471.758 143.143 471.17 143.395 470.666C143.647 470.153 144.001 469.756 144.459 469.476C144.916 469.187 145.453 469.042 146.069 469.042C146.591 469.042 147.058 469.159 147.469 469.392C147.879 469.625 148.183 469.947 148.379 470.358V469.168H149.751V475.426C149.751 476.499 149.475 477.302 148.925 477.834C148.374 478.375 147.571 478.646 146.517 478.646ZM146.405 474.726C147.002 474.726 147.478 474.521 147.833 474.11C148.187 473.699 148.365 473.139 148.365 472.43C148.365 471.721 148.187 471.165 147.833 470.764C147.478 470.353 147.002 470.148 146.405 470.148C145.807 470.148 145.331 470.353 144.977 470.764C144.622 471.165 144.445 471.721 144.445 472.43C144.445 473.139 144.622 473.699 144.977 474.11C145.331 474.521 145.807 474.726 146.405 474.726ZM155.241 476.126C154.121 476.126 153.239 475.813 152.595 475.188C151.951 474.553 151.629 473.69 151.629 472.598C151.629 471.898 151.769 471.282 152.049 470.75C152.338 470.209 152.735 469.789 153.239 469.49C153.743 469.191 154.322 469.042 154.975 469.042C155.918 469.042 156.66 469.345 157.201 469.952C157.742 470.549 158.013 471.375 158.013 472.43V472.906H153.001C153.104 474.325 153.855 475.034 155.255 475.034C155.647 475.034 156.03 474.973 156.403 474.852C156.786 474.731 157.145 474.53 157.481 474.25L157.901 475.23C157.593 475.51 157.196 475.729 156.711 475.888C156.226 476.047 155.736 476.126 155.241 476.126ZM155.031 470.036C154.443 470.036 153.976 470.218 153.631 470.582C153.286 470.946 153.076 471.431 153.001 472.038H156.823C156.795 471.403 156.627 470.913 156.319 470.568C156.011 470.213 155.582 470.036 155.031 470.036ZM159.855 476V469.168H161.227V470.386C161.581 469.574 162.319 469.121 163.439 469.028L163.901 469L163.999 470.204L163.145 470.288C161.903 470.409 161.283 471.049 161.283 472.206V476H159.855Z" fill="#202224"/>
<path opacity="0.6" d="M40.924 426V417.54H44.596C45.524 417.54 46.24 417.772 46.744 418.236C47.248 418.7 47.5 419.348 47.5 420.18C47.5 421.012 47.248 421.664 46.744 422.136C46.24 422.6 45.524 422.832 44.596 422.832H42.46V426H40.924ZM42.46 421.62H44.356C45.46 421.62 46.012 421.14 46.012 420.18C46.012 419.228 45.46 418.752 44.356 418.752H42.46V421.62ZM47.2184 426L51.0464 417.54H52.3064L56.1344 426H54.5744L53.7344 424.044H49.6064L48.7784 426H47.2184ZM51.6584 419.208L50.1344 422.82H53.2064L51.6824 419.208H51.6584ZM61.2094 426.12C60.2734 426.12 59.4814 425.944 58.8334 425.592C58.1934 425.24 57.7054 424.74 57.3694 424.092C57.0334 423.444 56.8654 422.676 56.8654 421.788C56.8654 420.892 57.0374 420.12 57.3814 419.472C57.7254 418.816 58.2214 418.312 58.8694 417.96C59.5174 417.6 60.2934 417.42 61.1974 417.42C61.7894 417.42 62.3454 417.508 62.8654 417.684C63.3854 417.852 63.8174 418.088 64.1614 418.392L63.6454 419.592C63.2694 419.296 62.8854 419.084 62.4934 418.956C62.1014 418.828 61.6694 418.764 61.1974 418.764C60.3014 418.764 59.6214 419.024 59.1574 419.544C58.7014 420.064 58.4734 420.812 58.4734 421.788C58.4734 422.772 58.7094 423.52 59.1814 424.032C59.6534 424.544 60.3534 424.8 61.2814 424.8C61.5454 424.8 61.8134 424.78 62.0854 424.74C62.3654 424.692 62.6414 424.624 62.9134 424.536V422.568H60.9694V421.428H64.1974V425.496C63.8054 425.688 63.3414 425.84 62.8054 425.952C62.2694 426.064 61.7374 426.12 61.2094 426.12ZM66.2345 426V417.54H71.8625V418.764H67.7105V421.092H71.5985V422.316H67.7105V424.776H71.8625V426H66.2345ZM76.4506 426.12C75.7866 426.12 75.1706 426.036 74.6026 425.868C74.0346 425.692 73.5546 425.456 73.1626 425.16L73.6306 423.948C74.0226 424.228 74.4506 424.444 74.9146 424.596C75.3866 424.748 75.8986 424.824 76.4506 424.824C77.0826 424.824 77.5426 424.72 77.8306 424.512C78.1186 424.296 78.2626 424.02 78.2626 423.684C78.2626 423.404 78.1586 423.184 77.9506 423.024C77.7506 422.864 77.4026 422.732 76.9066 422.628L75.5866 422.352C74.0826 422.032 73.3306 421.26 73.3306 420.036C73.3306 419.508 73.4706 419.048 73.7506 418.656C74.0306 418.264 74.4186 417.96 74.9146 417.744C75.4106 417.528 75.9826 417.42 76.6306 417.42C77.2066 417.42 77.7466 417.508 78.2506 417.684C78.7546 417.852 79.1746 418.092 79.5106 418.404L79.0426 419.556C78.3786 418.996 77.5706 418.716 76.6186 418.716C76.0666 418.716 75.6346 418.832 75.3226 419.064C75.0106 419.296 74.8546 419.6 74.8546 419.976C74.8546 420.264 74.9506 420.496 75.1426 420.672C75.3346 420.84 75.6626 420.972 76.1266 421.068L77.4346 421.344C78.2266 421.512 78.8146 421.776 79.1986 422.136C79.5906 422.496 79.7866 422.976 79.7866 423.576C79.7866 424.08 79.6506 424.524 79.3786 424.908C79.1066 425.292 78.7186 425.592 78.2146 425.808C77.7186 426.016 77.1306 426.12 76.4506 426.12Z" fill="#202224"/>
<path d="M0.5 397.5H239.5" stroke="#E0E0E0" stroke-width="0.6" stroke-linecap="square"/>
<rect opacity="0.01" y="331" width="240" height="50" fill="white"/>
<path d="M79.148 361V351.13H85.532V352.306H80.548V355.4H85.238V356.576H80.548V359.824H85.532V361H79.148ZM87.5105 357.836V356.688H91.5425V357.836H87.5105ZM97.0415 361.126C96.3415 361.126 95.7348 360.981 95.2215 360.692C94.7175 360.393 94.3255 359.978 94.0455 359.446C93.7655 358.905 93.6255 358.27 93.6255 357.542C93.6255 356.459 93.9335 355.605 94.5495 354.98C95.1655 354.355 95.9962 354.042 97.0415 354.042C97.4708 354.042 97.8955 354.117 98.3155 354.266C98.7355 354.415 99.0808 354.621 99.3515 354.882L98.9035 355.876C98.6422 355.633 98.3528 355.456 98.0355 355.344C97.7275 355.223 97.4335 355.162 97.1535 355.162C96.4908 355.162 95.9775 355.372 95.6135 355.792C95.2588 356.203 95.0815 356.791 95.0815 357.556C95.0815 358.321 95.2588 358.923 95.6135 359.362C95.9775 359.791 96.4908 360.006 97.1535 360.006C97.4335 360.006 97.7275 359.95 98.0355 359.838C98.3528 359.717 98.6422 359.535 98.9035 359.292L99.3515 360.3C99.0808 360.552 98.7308 360.753 98.3015 360.902C97.8815 361.051 97.4615 361.126 97.0415 361.126ZM103.698 361.126C103.007 361.126 102.41 360.981 101.906 360.692C101.402 360.403 101.01 359.997 100.73 359.474C100.459 358.942 100.324 358.312 100.324 357.584C100.324 356.856 100.459 356.231 100.73 355.708C101.01 355.176 101.402 354.765 101.906 354.476C102.41 354.187 103.007 354.042 103.698 354.042C104.37 354.042 104.958 354.187 105.462 354.476C105.966 354.765 106.358 355.176 106.638 355.708C106.918 356.231 107.058 356.856 107.058 357.584C107.058 358.312 106.918 358.942 106.638 359.474C106.358 359.997 105.966 360.403 105.462 360.692C104.958 360.981 104.37 361.126 103.698 361.126ZM103.698 360.034C104.277 360.034 104.743 359.824 105.098 359.404C105.453 358.984 105.63 358.377 105.63 357.584C105.63 356.791 105.453 356.189 105.098 355.778C104.743 355.358 104.277 355.148 103.698 355.148C103.11 355.148 102.639 355.358 102.284 355.778C101.929 356.189 101.752 356.791 101.752 357.584C101.752 358.377 101.929 358.984 102.284 359.404C102.639 359.824 103.11 360.034 103.698 360.034ZM108.974 361V354.168H110.346V355.274C110.551 354.882 110.836 354.579 111.2 354.364C111.564 354.149 111.989 354.042 112.474 354.042C113.519 354.042 114.196 354.499 114.504 355.414C114.719 354.985 115.027 354.649 115.428 354.406C115.829 354.163 116.287 354.042 116.8 354.042C118.331 354.042 119.096 354.957 119.096 356.786V361H117.682V356.856C117.682 356.277 117.579 355.853 117.374 355.582C117.178 355.311 116.851 355.176 116.394 355.176C115.881 355.176 115.475 355.358 115.176 355.722C114.877 356.077 114.728 356.562 114.728 357.178V361H113.314V356.856C113.314 356.277 113.216 355.853 113.02 355.582C112.824 355.311 112.497 355.176 112.04 355.176C111.527 355.176 111.121 355.358 110.822 355.722C110.533 356.077 110.388 356.562 110.388 357.178V361H108.974ZM121.401 361V354.168H122.773V355.274C122.978 354.882 123.263 354.579 123.627 354.364C123.991 354.149 124.416 354.042 124.901 354.042C125.946 354.042 126.623 354.499 126.931 355.414C127.146 354.985 127.454 354.649 127.855 354.406C128.256 354.163 128.714 354.042 129.227 354.042C130.758 354.042 131.523 354.957 131.523 356.786V361H130.109V356.856C130.109 356.277 130.006 355.853 129.801 355.582C129.605 355.311 129.278 355.176 128.821 355.176C128.308 355.176 127.902 355.358 127.603 355.722C127.304 356.077 127.155 356.562 127.155 357.178V361H125.741V356.856C125.741 356.277 125.643 355.853 125.447 355.582C125.251 355.311 124.924 355.176 124.467 355.176C123.954 355.176 123.548 355.358 123.249 355.722C122.96 356.077 122.815 356.562 122.815 357.178V361H121.401ZM137.006 361.126C135.886 361.126 135.004 360.813 134.36 360.188C133.716 359.553 133.394 358.69 133.394 357.598C133.394 356.898 133.534 356.282 133.814 355.75C134.103 355.209 134.5 354.789 135.004 354.49C135.508 354.191 136.087 354.042 136.74 354.042C137.683 354.042 138.425 354.345 138.966 354.952C139.507 355.549 139.778 356.375 139.778 357.43V357.906H134.766C134.869 359.325 135.62 360.034 137.02 360.034C137.412 360.034 137.795 359.973 138.168 359.852C138.551 359.731 138.91 359.53 139.246 359.25L139.666 360.23C139.358 360.51 138.961 360.729 138.476 360.888C137.991 361.047 137.501 361.126 137.006 361.126ZM136.796 355.036C136.208 355.036 135.741 355.218 135.396 355.582C135.051 355.946 134.841 356.431 134.766 357.038H138.588C138.56 356.403 138.392 355.913 138.084 355.568C137.776 355.213 137.347 355.036 136.796 355.036ZM141.619 361V354.168H142.991V355.386C143.346 354.574 144.083 354.121 145.203 354.028L145.665 354L145.763 355.204L144.909 355.288C143.668 355.409 143.047 356.049 143.047 357.206V361H141.619ZM150.056 361.126C149.356 361.126 148.75 360.981 148.236 360.692C147.732 360.393 147.34 359.978 147.06 359.446C146.78 358.905 146.64 358.27 146.64 357.542C146.64 356.459 146.948 355.605 147.564 354.98C148.18 354.355 149.011 354.042 150.056 354.042C150.486 354.042 150.91 354.117 151.33 354.266C151.75 354.415 152.096 354.621 152.366 354.882L151.918 355.876C151.657 355.633 151.368 355.456 151.05 355.344C150.742 355.223 150.448 355.162 150.168 355.162C149.506 355.162 148.992 355.372 148.628 355.792C148.274 356.203 148.096 356.791 148.096 357.556C148.096 358.321 148.274 358.923 148.628 359.362C148.992 359.791 149.506 360.006 150.168 360.006C150.448 360.006 150.742 359.95 151.05 359.838C151.368 359.717 151.657 359.535 151.918 359.292L152.366 360.3C152.096 360.552 151.746 360.753 151.316 360.902C150.896 361.051 150.476 361.126 150.056 361.126ZM156.951 361.126C155.831 361.126 154.949 360.813 154.305 360.188C153.661 359.553 153.339 358.69 153.339 357.598C153.339 356.898 153.479 356.282 153.759 355.75C154.048 355.209 154.445 354.789 154.949 354.49C155.453 354.191 156.031 354.042 156.685 354.042C157.627 354.042 158.369 354.345 158.911 354.952C159.452 355.549 159.723 356.375 159.723 357.43V357.906H154.711C154.813 359.325 155.565 360.034 156.965 360.034C157.357 360.034 157.739 359.973 158.113 359.852C158.495 359.731 158.855 359.53 159.191 359.25L159.611 360.23C159.303 360.51 158.906 360.729 158.421 360.888C157.935 361.047 157.445 361.126 156.951 361.126ZM156.741 355.036C156.153 355.036 155.686 355.218 155.341 355.582C154.995 355.946 154.785 356.431 154.711 357.038H158.533C158.505 356.403 158.337 355.913 158.029 355.568C157.721 355.213 157.291 355.036 156.741 355.036Z" fill="#202224"/>
<rect opacity="0.01" y="281" width="240" height="50" fill="white"/>
<path d="M83.432 311.126C82.4893 311.126 81.6727 310.921 80.982 310.51C80.2913 310.09 79.7547 309.502 79.372 308.746C78.9987 307.981 78.812 307.085 78.812 306.058C78.812 305.022 78.9987 304.126 79.372 303.37C79.7547 302.614 80.2913 302.031 80.982 301.62C81.6727 301.209 82.4893 301.004 83.432 301.004C84.3653 301.004 85.1773 301.209 85.868 301.62C86.568 302.031 87.1047 302.614 87.478 303.37C87.8607 304.126 88.052 305.017 88.052 306.044C88.052 307.08 87.8607 307.981 87.478 308.746C87.1047 309.502 86.568 310.09 85.868 310.51C85.1773 310.921 84.3653 311.126 83.432 311.126ZM83.432 309.866C84.412 309.866 85.1727 309.535 85.714 308.872C86.2647 308.2 86.54 307.262 86.54 306.058C86.54 304.854 86.2693 303.921 85.728 303.258C85.1867 302.595 84.4213 302.264 83.432 302.264C82.452 302.264 81.6867 302.595 81.136 303.258C80.5947 303.921 80.324 304.854 80.324 306.058C80.324 307.262 80.5947 308.2 81.136 308.872C81.6867 309.535 82.452 309.866 83.432 309.866ZM90.1495 311V304.168H91.5215V305.386C91.8761 304.574 92.6135 304.121 93.7335 304.028L94.1955 304L94.2935 305.204L93.4395 305.288C92.1981 305.409 91.5775 306.049 91.5775 307.206V311H90.1495ZM98.1804 311.126C97.5831 311.126 97.0558 310.986 96.5984 310.706C96.1504 310.417 95.8004 310.006 95.5484 309.474C95.2964 308.942 95.1704 308.312 95.1704 307.584C95.1704 306.856 95.2964 306.231 95.5484 305.708C95.8004 305.176 96.1504 304.765 96.5984 304.476C97.0464 304.187 97.5738 304.042 98.1804 304.042C98.6938 304.042 99.1511 304.154 99.5524 304.378C99.9538 304.602 100.252 304.905 100.448 305.288V301.13H101.862V311H100.476V309.81C100.28 310.221 99.9771 310.543 99.5664 310.776C99.1651 311.009 98.7031 311.126 98.1804 311.126ZM98.5444 310.034C99.1231 310.034 99.5898 309.824 99.9444 309.404C100.299 308.984 100.476 308.377 100.476 307.584C100.476 306.791 100.299 306.189 99.9444 305.778C99.5898 305.358 99.1231 305.148 98.5444 305.148C97.9564 305.148 97.4851 305.358 97.1304 305.778C96.7758 306.189 96.5984 306.791 96.5984 307.584C96.5984 308.377 96.7758 308.984 97.1304 309.404C97.4851 309.824 97.9564 310.034 98.5444 310.034ZM107.354 311.126C106.234 311.126 105.352 310.813 104.708 310.188C104.064 309.553 103.742 308.69 103.742 307.598C103.742 306.898 103.882 306.282 104.162 305.75C104.451 305.209 104.848 304.789 105.352 304.49C105.856 304.191 106.435 304.042 107.088 304.042C108.031 304.042 108.773 304.345 109.314 304.952C109.855 305.549 110.126 306.375 110.126 307.43V307.906H105.114C105.217 309.325 105.968 310.034 107.368 310.034C107.76 310.034 108.143 309.973 108.516 309.852C108.899 309.731 109.258 309.53 109.594 309.25L110.014 310.23C109.706 310.51 109.309 310.729 108.824 310.888C108.339 311.047 107.849 311.126 107.354 311.126ZM107.144 305.036C106.556 305.036 106.089 305.218 105.744 305.582C105.399 305.946 105.189 306.431 105.114 307.038H108.936C108.908 306.403 108.74 305.913 108.432 305.568C108.124 305.213 107.695 305.036 107.144 305.036ZM111.967 311V304.168H113.339V305.386C113.694 304.574 114.431 304.121 115.551 304.028L116.013 304L116.111 305.204L115.257 305.288C114.016 305.409 113.395 306.049 113.395 307.206V311H111.967ZM121.622 311V301.13H123.078V309.754H127.964V311H121.622ZM129.366 302.586V301.116H131.018V302.586H129.366ZM129.492 311V304.168H130.906V311H129.492ZM135.591 311.126C135.031 311.126 134.508 311.056 134.023 310.916C133.537 310.767 133.131 310.561 132.805 310.3L133.211 309.348C133.556 309.591 133.934 309.777 134.345 309.908C134.765 310.039 135.185 310.104 135.605 310.104C136.099 310.104 136.473 310.015 136.725 309.838C136.977 309.661 137.103 309.423 137.103 309.124C137.103 308.881 137.019 308.695 136.851 308.564C136.683 308.424 136.431 308.317 136.095 308.242L134.765 307.976C133.589 307.733 133.001 307.127 133.001 306.156C133.001 305.512 133.257 304.999 133.771 304.616C134.284 304.233 134.956 304.042 135.787 304.042C136.263 304.042 136.715 304.112 137.145 304.252C137.583 304.392 137.947 304.602 138.237 304.882L137.831 305.834C137.551 305.591 137.229 305.405 136.865 305.274C136.501 305.143 136.141 305.078 135.787 305.078C135.301 305.078 134.933 305.171 134.681 305.358C134.429 305.535 134.303 305.778 134.303 306.086C134.303 306.553 134.611 306.851 135.227 306.982L136.557 307.248C137.163 307.369 137.621 307.575 137.929 307.864C138.246 308.153 138.405 308.545 138.405 309.04C138.405 309.693 138.148 310.207 137.635 310.58C137.121 310.944 136.44 311.126 135.591 311.126ZM143.122 311.126C142.263 311.126 141.624 310.907 141.204 310.468C140.784 310.029 140.574 309.395 140.574 308.564V305.26H139.244V304.168H140.574V302.11H141.988V304.168H144.102V305.26H141.988V308.452C141.988 308.947 142.09 309.32 142.296 309.572C142.51 309.824 142.856 309.95 143.332 309.95C143.481 309.95 143.626 309.936 143.766 309.908C143.906 309.871 144.046 309.829 144.186 309.782L144.41 310.846C144.27 310.93 144.074 310.995 143.822 311.042C143.579 311.098 143.346 311.126 143.122 311.126ZM148.017 311.126C147.457 311.126 146.934 311.056 146.449 310.916C145.964 310.767 145.558 310.561 145.231 310.3L145.637 309.348C145.982 309.591 146.36 309.777 146.771 309.908C147.191 310.039 147.611 310.104 148.031 310.104C148.526 310.104 148.899 310.015 149.151 309.838C149.403 309.661 149.529 309.423 149.529 309.124C149.529 308.881 149.445 308.695 149.277 308.564C149.109 308.424 148.857 308.317 148.521 308.242L147.191 307.976C146.015 307.733 145.427 307.127 145.427 306.156C145.427 305.512 145.684 304.999 146.197 304.616C146.71 304.233 147.382 304.042 148.213 304.042C148.689 304.042 149.142 304.112 149.571 304.252C150.01 304.392 150.374 304.602 150.663 304.882L150.257 305.834C149.977 305.591 149.655 305.405 149.291 305.274C148.927 305.143 148.568 305.078 148.213 305.078C147.728 305.078 147.359 305.171 147.107 305.358C146.855 305.535 146.729 305.778 146.729 306.086C146.729 306.553 147.037 306.851 147.653 306.982L148.983 307.248C149.59 307.369 150.047 307.575 150.355 307.864C150.672 308.153 150.831 308.545 150.831 309.04C150.831 309.693 150.574 310.207 150.061 310.58C149.548 310.944 148.866 311.126 148.017 311.126Z" fill="#202224"/>
<rect opacity="0.01" y="231" width="240" height="50" fill="white"/>
<path d="M79.176 261V251.13H80.394L84.048 257.948L87.688 251.13H88.878V261H87.576V253.762L84.482 259.488H83.6L80.492 253.79V261H79.176ZM94.5586 261.126C93.4386 261.126 92.5566 260.813 91.9126 260.188C91.2686 259.553 90.9466 258.69 90.9466 257.598C90.9466 256.898 91.0866 256.282 91.3666 255.75C91.6559 255.209 92.0526 254.789 92.5566 254.49C93.0606 254.191 93.6393 254.042 94.2926 254.042C95.2353 254.042 95.9773 254.345 96.5186 254.952C97.0599 255.549 97.3306 256.375 97.3306 257.43V257.906H92.3186C92.4213 259.325 93.1726 260.034 94.5726 260.034C94.9646 260.034 95.3473 259.973 95.7206 259.852C96.1033 259.731 96.4626 259.53 96.7986 259.25L97.2186 260.23C96.9106 260.51 96.5139 260.729 96.0286 260.888C95.5433 261.047 95.0533 261.126 94.5586 261.126ZM94.3486 255.036C93.7606 255.036 93.2939 255.218 92.9486 255.582C92.6033 255.946 92.3933 256.431 92.3186 257.038H96.1406C96.1126 256.403 95.9446 255.913 95.6366 255.568C95.3286 255.213 94.8993 255.036 94.3486 255.036ZM101.566 261.126C101.006 261.126 100.483 261.056 99.9981 260.916C99.5128 260.767 99.1068 260.561 98.7801 260.3L99.1861 259.348C99.5315 259.591 99.9095 259.777 100.32 259.908C100.74 260.039 101.16 260.104 101.58 260.104C102.075 260.104 102.448 260.015 102.7 259.838C102.952 259.661 103.078 259.423 103.078 259.124C103.078 258.881 102.994 258.695 102.826 258.564C102.658 258.424 102.406 258.317 102.07 258.242L100.74 257.976C99.5641 257.733 98.9761 257.127 98.9761 256.156C98.9761 255.512 99.2328 254.999 99.7461 254.616C100.259 254.233 100.931 254.042 101.762 254.042C102.238 254.042 102.691 254.112 103.12 254.252C103.559 254.392 103.923 254.602 104.212 254.882L103.806 255.834C103.526 255.591 103.204 255.405 102.84 255.274C102.476 255.143 102.117 255.078 101.762 255.078C101.277 255.078 100.908 255.171 100.656 255.358C100.404 255.535 100.278 255.778 100.278 256.086C100.278 256.553 100.586 256.851 101.202 256.982L102.532 257.248C103.139 257.369 103.596 257.575 103.904 257.864C104.221 258.153 104.38 258.545 104.38 259.04C104.38 259.693 104.123 260.207 103.61 260.58C103.097 260.944 102.415 261.126 101.566 261.126ZM108.647 261.126C108.087 261.126 107.565 261.056 107.079 260.916C106.594 260.767 106.188 260.561 105.861 260.3L106.267 259.348C106.613 259.591 106.991 259.777 107.401 259.908C107.821 260.039 108.241 260.104 108.661 260.104C109.156 260.104 109.529 260.015 109.781 259.838C110.033 259.661 110.159 259.423 110.159 259.124C110.159 258.881 110.075 258.695 109.907 258.564C109.739 258.424 109.487 258.317 109.151 258.242L107.821 257.976C106.645 257.733 106.057 257.127 106.057 256.156C106.057 255.512 106.314 254.999 106.827 254.616C107.341 254.233 108.013 254.042 108.843 254.042C109.319 254.042 109.772 254.112 110.201 254.252C110.64 254.392 111.004 254.602 111.293 254.882L110.887 255.834C110.607 255.591 110.285 255.405 109.921 255.274C109.557 255.143 109.198 255.078 108.843 255.078C108.358 255.078 107.989 255.171 107.737 255.358C107.485 255.535 107.359 255.778 107.359 256.086C107.359 256.553 107.667 256.851 108.283 256.982L109.613 257.248C110.22 257.369 110.677 257.575 110.985 257.864C111.303 258.153 111.461 258.545 111.461 259.04C111.461 259.693 111.205 260.207 110.691 260.58C110.178 260.944 109.497 261.126 108.647 261.126ZM116.541 261.126C115.421 261.126 114.539 260.813 113.895 260.188C113.251 259.553 112.929 258.69 112.929 257.598C112.929 256.898 113.069 256.282 113.349 255.75C113.638 255.209 114.035 254.789 114.539 254.49C115.043 254.191 115.621 254.042 116.275 254.042C117.217 254.042 117.959 254.345 118.501 254.952C119.042 255.549 119.313 256.375 119.313 257.43V257.906H114.301C114.403 259.325 115.155 260.034 116.555 260.034C116.947 260.034 117.329 259.973 117.703 259.852C118.085 259.731 118.445 259.53 118.781 259.25L119.201 260.23C118.893 260.51 118.496 260.729 118.011 260.888C117.525 261.047 117.035 261.126 116.541 261.126ZM116.331 255.036C115.743 255.036 115.276 255.218 114.931 255.582C114.585 255.946 114.375 256.431 114.301 257.038H118.123C118.095 256.403 117.927 255.913 117.619 255.568C117.311 255.213 116.881 255.036 116.331 255.036ZM121.154 261V254.168H122.526V255.302C122.759 254.891 123.077 254.579 123.478 254.364C123.889 254.149 124.346 254.042 124.85 254.042C126.465 254.042 127.272 254.957 127.272 256.786V261H125.858V256.87C125.858 256.282 125.741 255.853 125.508 255.582C125.284 255.311 124.929 255.176 124.444 255.176C123.875 255.176 123.417 255.358 123.072 255.722C122.736 256.077 122.568 256.548 122.568 257.136V261H121.154ZM132.615 263.646C131.999 263.646 131.425 263.571 130.893 263.422C130.361 263.282 129.889 263.058 129.479 262.75L129.913 261.742C130.323 262.022 130.743 262.227 131.173 262.358C131.602 262.489 132.05 262.554 132.517 262.554C133.823 262.554 134.477 261.901 134.477 260.594V259.516C134.281 259.927 133.973 260.249 133.553 260.482C133.142 260.715 132.68 260.832 132.167 260.832C131.551 260.832 131.014 260.692 130.557 260.412C130.099 260.123 129.745 259.726 129.493 259.222C129.241 258.709 129.115 258.111 129.115 257.43C129.115 256.758 129.241 256.17 129.493 255.666C129.745 255.153 130.099 254.756 130.557 254.476C131.014 254.187 131.551 254.042 132.167 254.042C132.689 254.042 133.156 254.159 133.567 254.392C133.977 254.625 134.281 254.947 134.477 255.358V254.168H135.849V260.426C135.849 261.499 135.573 262.302 135.023 262.834C134.472 263.375 133.669 263.646 132.615 263.646ZM132.503 259.726C133.1 259.726 133.576 259.521 133.931 259.11C134.285 258.699 134.463 258.139 134.463 257.43C134.463 256.721 134.285 256.165 133.931 255.764C133.576 255.353 133.1 255.148 132.503 255.148C131.905 255.148 131.429 255.353 131.075 255.764C130.72 256.165 130.543 256.721 130.543 257.43C130.543 258.139 130.72 258.699 131.075 259.11C131.429 259.521 131.905 259.726 132.503 259.726ZM141.339 261.126C140.219 261.126 139.337 260.813 138.693 260.188C138.049 259.553 137.727 258.69 137.727 257.598C137.727 256.898 137.867 256.282 138.147 255.75C138.436 255.209 138.833 254.789 139.337 254.49C139.841 254.191 140.42 254.042 141.073 254.042C142.016 254.042 142.758 254.345 143.299 254.952C143.84 255.549 144.111 256.375 144.111 257.43V257.906H139.099C139.202 259.325 139.953 260.034 141.353 260.034C141.745 260.034 142.128 259.973 142.501 259.852C142.884 259.731 143.243 259.53 143.579 259.25L143.999 260.23C143.691 260.51 143.294 260.729 142.809 260.888C142.324 261.047 141.834 261.126 141.339 261.126ZM141.129 255.036C140.541 255.036 140.074 255.218 139.729 255.582C139.384 255.946 139.174 256.431 139.099 257.038H142.921C142.893 256.403 142.725 255.913 142.417 255.568C142.109 255.213 141.68 255.036 141.129 255.036ZM145.953 261V254.168H147.325V255.386C147.679 254.574 148.417 254.121 149.537 254.028L149.999 254L150.097 255.204L149.243 255.288C148.001 255.409 147.381 256.049 147.381 257.206V261H145.953Z" fill="#202224"/>
<rect opacity="0.01" y="181" width="240" height="50" fill="white"/>
<path d="M79.148 211V201.13H85.42V202.306H80.604V205.456H85.126V206.632H80.604V211H79.148ZM88.9565 211.126C88.4805 211.126 88.0558 211.033 87.6825 210.846C87.3092 210.659 87.0105 210.407 86.7865 210.09C86.5718 209.773 86.4645 209.413 86.4645 209.012C86.4645 208.508 86.5905 208.111 86.8425 207.822C87.1038 207.533 87.5285 207.323 88.1165 207.192C88.7138 207.061 89.5165 206.996 90.5245 206.996H91.0005V206.632C91.0005 206.1 90.8885 205.717 90.6645 205.484C90.4405 205.251 90.0718 205.134 89.5585 205.134C89.1665 205.134 88.7745 205.195 88.3825 205.316C87.9905 205.428 87.5892 205.61 87.1785 205.862L86.7445 204.868C87.0992 204.616 87.5425 204.415 88.0745 204.266C88.6065 204.117 89.1152 204.042 89.6005 204.042C90.5338 204.042 91.2245 204.266 91.6725 204.714C92.1205 205.153 92.3445 205.843 92.3445 206.786V211H91.0145V209.866C90.8465 210.258 90.5852 210.566 90.2305 210.79C89.8758 211.014 89.4512 211.126 88.9565 211.126ZM89.2365 210.118C89.7405 210.118 90.1605 209.941 90.4965 209.586C90.8325 209.231 91.0005 208.783 91.0005 208.242V207.864H90.5385C89.8572 207.864 89.3205 207.897 88.9285 207.962C88.5458 208.027 88.2705 208.139 88.1025 208.298C87.9438 208.447 87.8645 208.657 87.8645 208.928C87.8645 209.283 87.9858 209.572 88.2285 209.796C88.4712 210.011 88.8072 210.118 89.2365 210.118ZM96.5257 211L93.5857 204.168H95.1117L97.1977 209.362L99.3397 204.168H100.782L97.7997 211H96.5257ZM104.942 211.126C104.251 211.126 103.654 210.981 103.15 210.692C102.646 210.403 102.254 209.997 101.974 209.474C101.703 208.942 101.568 208.312 101.568 207.584C101.568 206.856 101.703 206.231 101.974 205.708C102.254 205.176 102.646 204.765 103.15 204.476C103.654 204.187 104.251 204.042 104.942 204.042C105.614 204.042 106.202 204.187 106.706 204.476C107.21 204.765 107.602 205.176 107.882 205.708C108.162 206.231 108.302 206.856 108.302 207.584C108.302 208.312 108.162 208.942 107.882 209.474C107.602 209.997 107.21 210.403 106.706 210.692C106.202 210.981 105.614 211.126 104.942 211.126ZM104.942 210.034C105.521 210.034 105.987 209.824 106.342 209.404C106.697 208.984 106.874 208.377 106.874 207.584C106.874 206.791 106.697 206.189 106.342 205.778C105.987 205.358 105.521 205.148 104.942 205.148C104.354 205.148 103.883 205.358 103.528 205.778C103.173 206.189 102.996 206.791 102.996 207.584C102.996 208.377 103.173 208.984 103.528 209.404C103.883 209.824 104.354 210.034 104.942 210.034ZM112.626 211.126C110.974 211.126 110.148 210.207 110.148 208.368V204.168H111.562V208.382C111.562 208.933 111.674 209.339 111.898 209.6C112.122 209.861 112.477 209.992 112.962 209.992C113.494 209.992 113.923 209.815 114.25 209.46C114.586 209.105 114.754 208.629 114.754 208.032V204.168H116.168V211H114.796V209.908C114.572 210.309 114.273 210.613 113.9 210.818C113.527 211.023 113.102 211.126 112.626 211.126ZM118.461 211V204.168H119.833V205.386C120.187 204.574 120.925 204.121 122.045 204.028L122.507 204L122.605 205.204L121.751 205.288C120.509 205.409 119.889 206.049 119.889 207.206V211H118.461ZM123.857 202.586V201.116H125.509V202.586H123.857ZM123.983 211V204.168H125.397V211H123.983ZM130.6 211.126C129.741 211.126 129.102 210.907 128.682 210.468C128.262 210.029 128.052 209.395 128.052 208.564V205.26H126.722V204.168H128.052V202.11H129.466V204.168H131.58V205.26H129.466V208.452C129.466 208.947 129.568 209.32 129.774 209.572C129.988 209.824 130.334 209.95 130.81 209.95C130.959 209.95 131.104 209.936 131.244 209.908C131.384 209.871 131.524 209.829 131.664 209.782L131.888 210.846C131.748 210.93 131.552 210.995 131.3 211.042C131.057 211.098 130.824 211.126 130.6 211.126ZM136.239 211.126C135.119 211.126 134.237 210.813 133.593 210.188C132.949 209.553 132.627 208.69 132.627 207.598C132.627 206.898 132.767 206.282 133.047 205.75C133.336 205.209 133.733 204.789 134.237 204.49C134.741 204.191 135.319 204.042 135.973 204.042C136.915 204.042 137.657 204.345 138.199 204.952C138.74 205.549 139.011 206.375 139.011 207.43V207.906H133.999C134.101 209.325 134.853 210.034 136.253 210.034C136.645 210.034 137.027 209.973 137.401 209.852C137.783 209.731 138.143 209.53 138.479 209.25L138.899 210.23C138.591 210.51 138.194 210.729 137.709 210.888C137.223 211.047 136.733 211.126 136.239 211.126ZM136.029 205.036C135.441 205.036 134.974 205.218 134.629 205.582C134.283 205.946 134.073 206.431 133.999 207.038H137.821C137.793 206.403 137.625 205.913 137.317 205.568C137.009 205.213 136.579 205.036 136.029 205.036ZM143.246 211.126C142.686 211.126 142.164 211.056 141.678 210.916C141.193 210.767 140.787 210.561 140.46 210.3L140.866 209.348C141.212 209.591 141.59 209.777 142 209.908C142.42 210.039 142.84 210.104 143.26 210.104C143.755 210.104 144.128 210.015 144.38 209.838C144.632 209.661 144.758 209.423 144.758 209.124C144.758 208.881 144.674 208.695 144.506 208.564C144.338 208.424 144.086 208.317 143.75 208.242L142.42 207.976C141.244 207.733 140.656 207.127 140.656 206.156C140.656 205.512 140.913 204.999 141.426 204.616C141.94 204.233 142.612 204.042 143.442 204.042C143.918 204.042 144.371 204.112 144.8 204.252C145.239 204.392 145.603 204.602 145.892 204.882L145.486 205.834C145.206 205.591 144.884 205.405 144.52 205.274C144.156 205.143 143.797 205.078 143.442 205.078C142.957 205.078 142.588 205.171 142.336 205.358C142.084 205.535 141.958 205.778 141.958 206.086C141.958 206.553 142.266 206.851 142.882 206.982L144.212 207.248C144.819 207.369 145.276 207.575 145.584 207.864C145.902 208.153 146.06 208.545 146.06 209.04C146.06 209.693 145.804 210.207 145.29 210.58C144.777 210.944 144.096 211.126 143.246 211.126Z" fill="#202224"/>
<rect opacity="0.01" y="131" width="240" height="50" fill="white"/>
<path d="M79.148 161V151.13H83.236C84.3 151.13 85.1213 151.396 85.7 151.928C86.2787 152.451 86.568 153.188 86.568 154.14C86.568 155.101 86.2787 155.848 85.7 156.38C85.1213 156.903 84.3 157.164 83.236 157.164H80.604V161H79.148ZM80.604 156.002H83.026C84.4447 156.002 85.154 155.381 85.154 154.14C85.154 152.908 84.4447 152.292 83.026 152.292H80.604V156.002ZM88.1397 161V154.168H89.5117V155.386C89.8664 154.574 90.6037 154.121 91.7237 154.028L92.1857 154L92.2837 155.204L91.4297 155.288C90.1884 155.409 89.5677 156.049 89.5677 157.206V161H88.1397ZM96.5347 161.126C95.844 161.126 95.2467 160.981 94.7427 160.692C94.2387 160.403 93.8467 159.997 93.5667 159.474C93.296 158.942 93.1607 158.312 93.1607 157.584C93.1607 156.856 93.296 156.231 93.5667 155.708C93.8467 155.176 94.2387 154.765 94.7427 154.476C95.2467 154.187 95.844 154.042 96.5347 154.042C97.2067 154.042 97.7947 154.187 98.2987 154.476C98.8027 154.765 99.1947 155.176 99.4747 155.708C99.7547 156.231 99.8947 156.856 99.8947 157.584C99.8947 158.312 99.7547 158.942 99.4747 159.474C99.1947 159.997 98.8027 160.403 98.2987 160.692C97.7947 160.981 97.2067 161.126 96.5347 161.126ZM96.5347 160.034C97.1133 160.034 97.58 159.824 97.9347 159.404C98.2893 158.984 98.4667 158.377 98.4667 157.584C98.4667 156.791 98.2893 156.189 97.9347 155.778C97.58 155.358 97.1133 155.148 96.5347 155.148C95.9467 155.148 95.4753 155.358 95.1207 155.778C94.766 156.189 94.5887 156.791 94.5887 157.584C94.5887 158.377 94.766 158.984 95.1207 159.404C95.4753 159.824 95.9467 160.034 96.5347 160.034ZM104.387 161.126C103.789 161.126 103.262 160.986 102.805 160.706C102.357 160.417 102.007 160.006 101.755 159.474C101.503 158.942 101.377 158.312 101.377 157.584C101.377 156.856 101.503 156.231 101.755 155.708C102.007 155.176 102.357 154.765 102.805 154.476C103.253 154.187 103.78 154.042 104.387 154.042C104.9 154.042 105.357 154.154 105.759 154.378C106.16 154.602 106.459 154.905 106.655 155.288V151.13H108.069V161H106.683V159.81C106.487 160.221 106.183 160.543 105.773 160.776C105.371 161.009 104.909 161.126 104.387 161.126ZM104.751 160.034C105.329 160.034 105.796 159.824 106.151 159.404C106.505 158.984 106.683 158.377 106.683 157.584C106.683 156.791 106.505 156.189 106.151 155.778C105.796 155.358 105.329 155.148 104.751 155.148C104.163 155.148 103.691 155.358 103.337 155.778C102.982 156.189 102.805 156.791 102.805 157.584C102.805 158.377 102.982 158.984 103.337 159.404C103.691 159.824 104.163 160.034 104.751 160.034ZM112.79 161.126C111.138 161.126 110.312 160.207 110.312 158.368V154.168H111.726V158.382C111.726 158.933 111.838 159.339 112.062 159.6C112.286 159.861 112.641 159.992 113.126 159.992C113.658 159.992 114.087 159.815 114.414 159.46C114.75 159.105 114.918 158.629 114.918 158.032V154.168H116.332V161H114.96V159.908C114.736 160.309 114.437 160.613 114.064 160.818C113.691 161.023 113.266 161.126 112.79 161.126ZM121.635 161.126C120.935 161.126 120.328 160.981 119.815 160.692C119.311 160.393 118.919 159.978 118.639 159.446C118.359 158.905 118.219 158.27 118.219 157.542C118.219 156.459 118.527 155.605 119.143 154.98C119.759 154.355 120.59 154.042 121.635 154.042C122.064 154.042 122.489 154.117 122.909 154.266C123.329 154.415 123.674 154.621 123.945 154.882L123.497 155.876C123.236 155.633 122.946 155.456 122.629 155.344C122.321 155.223 122.027 155.162 121.747 155.162C121.084 155.162 120.571 155.372 120.207 155.792C119.852 156.203 119.675 156.791 119.675 157.556C119.675 158.321 119.852 158.923 120.207 159.362C120.571 159.791 121.084 160.006 121.747 160.006C122.027 160.006 122.321 159.95 122.629 159.838C122.946 159.717 123.236 159.535 123.497 159.292L123.945 160.3C123.674 160.552 123.324 160.753 122.895 160.902C122.475 161.051 122.055 161.126 121.635 161.126ZM128.386 161.126C127.527 161.126 126.888 160.907 126.468 160.468C126.048 160.029 125.838 159.395 125.838 158.564V155.26H124.508V154.168H125.838V152.11H127.252V154.168H129.366V155.26H127.252V158.452C127.252 158.947 127.354 159.32 127.56 159.572C127.774 159.824 128.12 159.95 128.596 159.95C128.745 159.95 128.89 159.936 129.03 159.908C129.17 159.871 129.31 159.829 129.45 159.782L129.674 160.846C129.534 160.93 129.338 160.995 129.086 161.042C128.843 161.098 128.61 161.126 128.386 161.126ZM133.281 161.126C132.721 161.126 132.198 161.056 131.713 160.916C131.228 160.767 130.822 160.561 130.495 160.3L130.901 159.348C131.246 159.591 131.624 159.777 132.035 159.908C132.455 160.039 132.875 160.104 133.295 160.104C133.79 160.104 134.163 160.015 134.415 159.838C134.667 159.661 134.793 159.423 134.793 159.124C134.793 158.881 134.709 158.695 134.541 158.564C134.373 158.424 134.121 158.317 133.785 158.242L132.455 157.976C131.279 157.733 130.691 157.127 130.691 156.156C130.691 155.512 130.948 154.999 131.461 154.616C131.974 154.233 132.646 154.042 133.477 154.042C133.953 154.042 134.406 154.112 134.835 154.252C135.274 154.392 135.638 154.602 135.927 154.882L135.521 155.834C135.241 155.591 134.919 155.405 134.555 155.274C134.191 155.143 133.832 155.078 133.477 155.078C132.992 155.078 132.623 155.171 132.371 155.358C132.119 155.535 131.993 155.778 131.993 156.086C131.993 156.553 132.301 156.851 132.917 156.982L134.247 157.248C134.854 157.369 135.311 157.575 135.619 157.864C135.936 158.153 136.095 158.545 136.095 159.04C136.095 159.693 135.838 160.207 135.325 160.58C134.812 160.944 134.13 161.126 133.281 161.126Z" fill="#202224"/>
<rect opacity="0.01" y="81" width="240" height="50" fill="white"/>
<path d="M79.148 111V101.13H82.634C84.258 101.13 85.5087 101.555 86.386 102.404C87.2727 103.253 87.716 104.471 87.716 106.058C87.716 107.645 87.2727 108.867 86.386 109.726C85.5087 110.575 84.258 111 82.634 111H79.148ZM80.604 109.782H82.55C84.986 109.782 86.204 108.541 86.204 106.058C86.204 103.585 84.986 102.348 82.55 102.348H80.604V109.782ZM91.9917 111.126C91.5157 111.126 91.091 111.033 90.7177 110.846C90.3443 110.659 90.0457 110.407 89.8217 110.09C89.607 109.773 89.4997 109.413 89.4997 109.012C89.4997 108.508 89.6257 108.111 89.8777 107.822C90.139 107.533 90.5637 107.323 91.1517 107.192C91.749 107.061 92.5517 106.996 93.5597 106.996H94.0357V106.632C94.0357 106.1 93.9237 105.717 93.6997 105.484C93.4757 105.251 93.107 105.134 92.5937 105.134C92.2017 105.134 91.8097 105.195 91.4177 105.316C91.0257 105.428 90.6243 105.61 90.2137 105.862L89.7797 104.868C90.1343 104.616 90.5777 104.415 91.1097 104.266C91.6417 104.117 92.1503 104.042 92.6357 104.042C93.569 104.042 94.2597 104.266 94.7077 104.714C95.1557 105.153 95.3797 105.843 95.3797 106.786V111H94.0497V109.866C93.8817 110.258 93.6203 110.566 93.2657 110.79C92.911 111.014 92.4863 111.126 91.9917 111.126ZM92.2717 110.118C92.7757 110.118 93.1957 109.941 93.5317 109.586C93.8677 109.231 94.0357 108.783 94.0357 108.242V107.864H93.5737C92.8923 107.864 92.3557 107.897 91.9637 107.962C91.581 108.027 91.3057 108.139 91.1377 108.298C90.979 108.447 90.8997 108.657 90.8997 108.928C90.8997 109.283 91.021 109.572 91.2637 109.796C91.5063 110.011 91.8423 110.118 92.2717 110.118ZM100.021 111.126C99.4612 111.126 98.9385 111.056 98.4532 110.916C97.9679 110.767 97.5619 110.561 97.2352 110.3L97.6412 109.348C97.9865 109.591 98.3645 109.777 98.7752 109.908C99.1952 110.039 99.6152 110.104 100.035 110.104C100.53 110.104 100.903 110.015 101.155 109.838C101.407 109.661 101.533 109.423 101.533 109.124C101.533 108.881 101.449 108.695 101.281 108.564C101.113 108.424 100.861 108.317 100.525 108.242L99.1952 107.976C98.0192 107.733 97.4312 107.127 97.4312 106.156C97.4312 105.512 97.6879 104.999 98.2012 104.616C98.7145 104.233 99.3865 104.042 100.217 104.042C100.693 104.042 101.146 104.112 101.575 104.252C102.014 104.392 102.378 104.602 102.667 104.882L102.261 105.834C101.981 105.591 101.659 105.405 101.295 105.274C100.931 105.143 100.572 105.078 100.217 105.078C99.7319 105.078 99.3632 105.171 99.1112 105.358C98.8592 105.535 98.7332 105.778 98.7332 106.086C98.7332 106.553 99.0412 106.851 99.6572 106.982L100.987 107.248C101.594 107.369 102.051 107.575 102.359 107.864C102.677 108.153 102.835 108.545 102.835 109.04C102.835 109.693 102.579 110.207 102.065 110.58C101.552 110.944 100.871 111.126 100.021 111.126ZM104.708 111V101.13H106.122V105.232C106.356 104.84 106.668 104.546 107.06 104.35C107.462 104.145 107.91 104.042 108.404 104.042C110.019 104.042 110.826 104.957 110.826 106.786V111H109.412V106.87C109.412 106.282 109.296 105.853 109.062 105.582C108.838 105.311 108.484 105.176 107.998 105.176C107.429 105.176 106.972 105.358 106.626 105.722C106.29 106.077 106.122 106.548 106.122 107.136V111H104.708ZM116.743 111.126C116.22 111.126 115.758 111.009 115.357 110.776C114.956 110.543 114.657 110.23 114.461 109.838V111H113.075V101.13H114.489V105.274C114.694 104.901 114.993 104.602 115.385 104.378C115.786 104.154 116.239 104.042 116.743 104.042C117.35 104.042 117.877 104.187 118.325 104.476C118.782 104.765 119.132 105.176 119.375 105.708C119.627 106.231 119.753 106.856 119.753 107.584C119.753 108.312 119.627 108.942 119.375 109.474C119.132 110.006 118.782 110.417 118.325 110.706C117.877 110.986 117.35 111.126 116.743 111.126ZM116.393 110.034C116.981 110.034 117.448 109.824 117.793 109.404C118.148 108.984 118.325 108.377 118.325 107.584C118.325 106.791 118.148 106.189 117.793 105.778C117.448 105.358 116.981 105.148 116.393 105.148C115.805 105.148 115.334 105.358 114.979 105.778C114.634 106.189 114.461 106.791 114.461 107.584C114.461 108.377 114.634 108.984 114.979 109.404C115.334 109.824 115.805 110.034 116.393 110.034ZM124.614 111.126C123.924 111.126 123.326 110.981 122.822 110.692C122.318 110.403 121.926 109.997 121.646 109.474C121.376 108.942 121.24 108.312 121.24 107.584C121.24 106.856 121.376 106.231 121.646 105.708C121.926 105.176 122.318 104.765 122.822 104.476C123.326 104.187 123.924 104.042 124.614 104.042C125.286 104.042 125.874 104.187 126.378 104.476C126.882 104.765 127.274 105.176 127.554 105.708C127.834 106.231 127.974 106.856 127.974 107.584C127.974 108.312 127.834 108.942 127.554 109.474C127.274 109.997 126.882 110.403 126.378 110.692C125.874 110.981 125.286 111.126 124.614 111.126ZM124.614 110.034C125.193 110.034 125.66 109.824 126.014 109.404C126.369 108.984 126.546 108.377 126.546 107.584C126.546 106.791 126.369 106.189 126.014 105.778C125.66 105.358 125.193 105.148 124.614 105.148C124.026 105.148 123.555 105.358 123.2 105.778C122.846 106.189 122.668 106.791 122.668 107.584C122.668 108.377 122.846 108.984 123.2 109.404C123.555 109.824 124.026 110.034 124.614 110.034ZM132.046 111.126C131.57 111.126 131.146 111.033 130.772 110.846C130.399 110.659 130.1 110.407 129.876 110.09C129.662 109.773 129.554 109.413 129.554 109.012C129.554 108.508 129.68 108.111 129.932 107.822C130.194 107.533 130.618 107.323 131.206 107.192C131.804 107.061 132.606 106.996 133.614 106.996H134.09V106.632C134.09 106.1 133.978 105.717 133.754 105.484C133.53 105.251 133.162 105.134 132.648 105.134C132.256 105.134 131.864 105.195 131.472 105.316C131.08 105.428 130.679 105.61 130.268 105.862L129.834 104.868C130.189 104.616 130.632 104.415 131.164 104.266C131.696 104.117 132.205 104.042 132.69 104.042C133.624 104.042 134.314 104.266 134.762 104.714C135.21 105.153 135.434 105.843 135.434 106.786V111H134.104V109.866C133.936 110.258 133.675 110.566 133.32 110.79C132.966 111.014 132.541 111.126 132.046 111.126ZM132.326 110.118C132.83 110.118 133.25 109.941 133.586 109.586C133.922 109.231 134.09 108.783 134.09 108.242V107.864H133.628C132.947 107.864 132.41 107.897 132.018 107.962C131.636 108.027 131.36 108.139 131.192 108.298C131.034 108.447 130.954 108.657 130.954 108.928C130.954 109.283 131.076 109.572 131.318 109.796C131.561 110.011 131.897 110.118 132.326 110.118ZM137.682 111V104.168H139.054V105.386C139.409 104.574 140.146 104.121 141.266 104.028L141.728 104L141.826 105.204L140.972 105.288C139.731 105.409 139.11 106.049 139.11 107.206V111H137.682ZM145.713 111.126C145.116 111.126 144.588 110.986 144.131 110.706C143.683 110.417 143.333 110.006 143.081 109.474C142.829 108.942 142.703 108.312 142.703 107.584C142.703 106.856 142.829 106.231 143.081 105.708C143.333 105.176 143.683 104.765 144.131 104.476C144.579 104.187 145.106 104.042 145.713 104.042C146.226 104.042 146.684 104.154 147.085 104.378C147.486 104.602 147.785 104.905 147.981 105.288V101.13H149.395V111H148.009V109.81C147.813 110.221 147.51 110.543 147.099 110.776C146.698 111.009 146.236 111.126 145.713 111.126ZM146.077 110.034C146.656 110.034 147.122 109.824 147.477 109.404C147.832 108.984 148.009 108.377 148.009 107.584C148.009 106.791 147.832 106.189 147.477 105.778C147.122 105.358 146.656 105.148 146.077 105.148C145.489 105.148 145.018 105.358 144.663 105.778C144.308 106.189 144.131 106.791 144.131 107.584C144.131 108.377 144.308 108.984 144.663 109.404C145.018 109.824 145.489 110.034 146.077 110.034Z" fill="#202224"/>
<path d="M74.88 41.808H68.904L69.288 39.672H74.424L74.88 41.808ZM72.024 35.4L69.288 45H66.264L71.184 30H72.84L77.76 45H74.688L72.024 35.4ZM83.352 45.288C82.712 45.288 82.112 45.168 81.552 44.928C80.992 44.672 80.496 44.296 80.064 43.8C79.632 43.304 79.296 42.688 79.056 41.952C78.816 41.2 78.696 40.336 78.696 39.36C78.696 38.4 78.808 37.552 79.032 36.816C79.256 36.08 79.576 35.472 79.992 34.992C80.408 34.496 80.904 34.128 81.48 33.888C82.056 33.632 82.68 33.504 83.352 33.504C83.688 33.504 84.008 33.536 84.312 33.6C84.632 33.664 84.928 33.776 85.2 33.936C85.472 34.096 85.696 34.328 85.872 34.632V28.848H88.92H89.136V29.088C89.056 29.184 89 29.288 88.968 29.4C88.936 29.512 88.928 29.704 88.944 29.976L88.896 43.584C88.896 43.824 88.912 44.064 88.944 44.304C88.976 44.528 89.048 44.76 89.16 45H86.16C86.08 44.84 86.024 44.712 85.992 44.616C85.96 44.52 85.944 44.424 85.944 44.328C85.944 44.232 85.944 44.104 85.944 43.944C85.752 44.248 85.52 44.504 85.248 44.712C84.976 44.904 84.68 45.048 84.36 45.144C84.04 45.24 83.704 45.288 83.352 45.288ZM83.88 42.864C84.2 42.864 84.48 42.8 84.72 42.672C84.976 42.528 85.184 42.32 85.344 42.048C85.52 41.776 85.648 41.416 85.728 40.968C85.808 40.52 85.848 39.984 85.848 39.36C85.848 38.528 85.776 37.856 85.632 37.344C85.488 36.816 85.264 36.432 84.96 36.192C84.672 35.952 84.296 35.832 83.832 35.832C83.496 35.832 83.192 35.92 82.92 36.096C82.648 36.256 82.416 36.488 82.224 36.792C82.048 37.096 81.912 37.472 81.816 37.92C81.72 38.352 81.672 38.84 81.672 39.384C81.672 40.104 81.776 40.728 81.984 41.256C82.208 41.784 82.488 42.184 82.824 42.456C83.16 42.728 83.512 42.864 83.88 42.864ZM94.632 45.288C93.416 45.288 92.464 45 91.776 44.424C91.088 43.832 90.744 43.064 90.744 42.12C90.744 41.512 90.872 40.96 91.128 40.464C91.4 39.952 91.8 39.504 92.328 39.12C92.872 38.736 93.552 38.44 94.368 38.232C95.184 38.008 96.136 37.896 97.224 37.896C97.32 37.896 97.448 37.904 97.608 37.92C97.768 37.92 97.944 37.92 98.136 37.92C98.328 37.92 98.504 37.928 98.664 37.944L98.736 40.008C98.608 39.992 98.44 39.984 98.232 39.984C98.04 39.984 97.84 39.984 97.632 39.984C97.424 39.984 97.256 39.984 97.128 39.984C96.456 39.984 95.904 40.032 95.472 40.128C95.056 40.208 94.72 40.328 94.464 40.488C94.224 40.648 94.056 40.832 93.96 41.04C93.864 41.248 93.816 41.472 93.816 41.712C93.816 41.92 93.848 42.112 93.912 42.288C93.992 42.448 94.096 42.576 94.224 42.672C94.352 42.752 94.504 42.816 94.68 42.864C94.872 42.912 95.072 42.936 95.28 42.936C95.712 42.936 96.088 42.864 96.408 42.72C96.728 42.576 96.992 42.352 97.2 42.048C97.424 41.728 97.584 41.328 97.68 40.848C97.792 40.352 97.848 39.768 97.848 39.096C97.848 38.216 97.76 37.544 97.584 37.08C97.408 36.616 97.16 36.296 96.84 36.12C96.52 35.944 96.12 35.856 95.64 35.856C95.144 35.856 94.672 35.936 94.224 36.096C93.792 36.24 93.352 36.544 92.904 37.008L91.2 35.208C91.872 34.584 92.6 34.144 93.384 33.888C94.184 33.632 94.976 33.504 95.76 33.504C96.448 33.504 97.096 33.584 97.704 33.744C98.328 33.904 98.872 34.168 99.336 34.536C99.816 34.888 100.192 35.384 100.464 36.024C100.736 36.648 100.872 37.432 100.872 38.376V45H97.752V43.944C97.544 44.184 97.328 44.392 97.104 44.568C96.896 44.744 96.664 44.888 96.408 45C96.152 45.096 95.88 45.168 95.592 45.216C95.304 45.264 94.984 45.288 94.632 45.288ZM103.056 49.008L103.032 33.744H106.032V35.112C106.304 34.728 106.592 34.424 106.896 34.2C107.216 33.96 107.56 33.784 107.928 33.672C108.296 33.56 108.688 33.504 109.104 33.504C109.712 33.504 110.28 33.632 110.808 33.888C111.336 34.144 111.8 34.528 112.2 35.04C112.6 35.536 112.912 36.152 113.136 36.888C113.36 37.624 113.472 38.48 113.472 39.456C113.472 40.432 113.352 41.288 113.112 42.024C112.872 42.76 112.544 43.376 112.128 43.872C111.728 44.352 111.256 44.712 110.712 44.952C110.184 45.176 109.632 45.288 109.056 45.288C108.672 45.288 108.296 45.248 107.928 45.168C107.56 45.088 107.216 44.968 106.896 44.808C106.592 44.648 106.336 44.448 106.128 44.208V49.008H103.056ZM108.144 42.984C108.496 42.984 108.808 42.92 109.08 42.792C109.368 42.664 109.616 42.464 109.824 42.192C110.032 41.904 110.192 41.52 110.304 41.04C110.416 40.544 110.472 39.952 110.472 39.264C110.472 38.56 110.376 37.952 110.184 37.44C110.008 36.928 109.752 36.536 109.416 36.264C109.096 35.992 108.712 35.856 108.264 35.856C107.912 35.856 107.6 35.928 107.328 36.072C107.056 36.2 106.832 36.416 106.656 36.72C106.48 37.008 106.344 37.392 106.248 37.872C106.168 38.336 106.128 38.888 106.128 39.528C106.128 39.992 106.152 40.416 106.2 40.8C106.264 41.168 106.344 41.488 106.44 41.76C106.552 42.032 106.688 42.264 106.848 42.456C107.008 42.632 107.192 42.768 107.4 42.864C107.624 42.944 107.872 42.984 108.144 42.984ZM121.176 45.264C120.568 45.264 120.016 45.168 119.52 44.976C119.04 44.784 118.632 44.464 118.296 44.016C117.976 43.552 117.736 42.936 117.576 42.168C117.416 41.4 117.36 40.44 117.408 39.288L117.744 31.176L120.864 30.768L121.08 30.744L121.104 31.008C121.04 31.12 120.976 31.232 120.912 31.344C120.848 31.456 120.808 31.648 120.792 31.92L120.504 35.4L120.648 35.496L120.456 39.168C120.408 40.144 120.44 40.904 120.552 41.448C120.68 41.976 120.864 42.344 121.104 42.552C121.344 42.744 121.616 42.84 121.92 42.84C122.416 42.84 122.864 42.736 123.264 42.528C123.68 42.32 124.056 42.08 124.392 41.808L124.968 43.992C124.424 44.392 123.84 44.704 123.216 44.928C122.592 45.152 121.912 45.264 121.176 45.264ZM115.32 33.768H124.152L124.104 36.168H115.272L115.32 33.768Z" fill="#4880FF"/>
<path d="M134.88 41.808H128.904L129.288 39.672H134.424L134.88 41.808ZM132.024 35.4L129.288 45H126.264L131.184 30H132.84L137.76 45H134.688L132.024 35.4ZM139.608 45V42.552H142.512V32.496H139.752V30.048H148.296V32.496H145.392V42.552H148.416V45H139.608Z" fill="#202224"/>
</svg>
