<svg width="24" height="24" viewBox="0 0 24 24" fill="none" xmlns="http://www.w3.org/2000/svg">
<rect opacity="0.01" width="24" height="24" fill="black"/>
<path fill-rule="evenodd" clip-rule="evenodd" d="M6.37754 3.69214C10.3568 1.00347 15.6854 1.52315 19.0702 4.93001L19.1202 4.95001C22.527 8.33477 23.0467 13.6634 20.358 17.6426C17.6694 21.6219 12.5316 23.1279 8.12016 21.23C7.91828 21.1449 7.69769 21.1139 7.48016 21.14L3.20016 22H3.00016C2.72746 22.007 2.46375 21.9022 2.27016 21.71C2.03276 21.4714 1.93129 21.1294 2.00016 20.8L2.88016 16.57C2.91751 16.3525 2.88605 16.1288 2.79016 15.93C0.892251 11.5185 2.39831 6.38081 6.37754 3.69214ZM7.00016 12C7.00016 12.5523 7.44787 13 8.00016 13C8.55244 13 9.00016 12.5523 9.00016 12C9.00016 11.4477 8.55244 11 8.00016 11C7.44787 11 7.00016 11.4477 7.00016 12ZM12.0002 13C11.4479 13 11.0002 12.5523 11.0002 12C11.0002 11.4477 11.4479 11 12.0002 11C12.5524 11 13.0002 11.4477 13.0002 12C13.0002 12.5523 12.5524 13 12.0002 13ZM15.0002 12C15.0002 12.5523 15.4479 13 16.0002 13C16.5524 13 17.0002 12.5523 17.0002 12C17.0002 11.4477 16.5524 11 16.0002 11C15.4479 11 15.0002 11.4477 15.0002 12Z" fill="#4379EE"/>
</svg>
