<svg width="24" height="24" viewBox="0 0 24 24" fill="none" xmlns="http://www.w3.org/2000/svg">
<rect opacity="0.01" x="24" y="24" width="24" height="24" transform="rotate(180 24 24)" fill="black"/>
<path d="M3.23981 7.29L11.7598 11.92C11.9098 12 12.0898 12 12.2398 11.92L20.7598 7.29C20.9188 7.21151 21.0151 7.04531 21.0042 6.86837C20.9932 6.69144 20.8772 6.53835 20.7098 6.48L12.1898 3C12.0681 2.94999 11.9315 2.94999 11.8098 3L3.28981 6.48C3.12242 6.53835 3.00639 6.69144 2.99547 6.86837C2.98455 7.04531 3.08087 7.21151 3.23981 7.29Z" fill="black"/>
<path d="M20.7101 10.66L18.8801 9.88L12.2401 13.49C12.0901 13.57 11.9101 13.57 11.7601 13.49L5.1201 9.88L3.2901 10.66C3.13214 10.7429 3.0332 10.9066 3.0332 11.085C3.0332 11.2634 3.13214 11.4271 3.2901 11.51L11.8101 16.41C11.9574 16.5001 12.1428 16.5001 12.2901 16.41L20.8101 11.51C20.9605 11.4099 21.042 11.2338 21.0209 11.0543C20.9998 10.8749 20.8797 10.7225 20.7101 10.66Z" fill="black"/>
<path d="M20.7098 15.1L19.1498 14.42L12.2398 18.18C12.0898 18.26 11.9098 18.26 11.7598 18.18L4.84984 14.42L3.28984 15.1C3.12737 15.1843 3.02539 15.352 3.02539 15.535C3.02539 15.718 3.12737 15.8858 3.28984 15.97L11.8098 20.97C11.9598 21.05 12.1398 21.05 12.2898 20.97L20.8098 15.97C20.9648 15.8685 21.0493 15.6882 21.0281 15.5042C21.007 15.3201 20.8838 15.1637 20.7098 15.1Z" fill="black"/>
</svg>
