<svg width="24" height="24" viewBox="0 0 24 24" fill="none" xmlns="http://www.w3.org/2000/svg">
<rect opacity="0.01" width="24" height="24" fill="black"/>
<path fill-rule="evenodd" clip-rule="evenodd" d="M15.3 2.33L19.74 7.33C19.9067 7.5134 19.9994 7.75216 20 8V19.5C19.9921 20.171 19.7179 20.8114 19.2378 21.2802C18.7577 21.7491 18.111 22.008 17.44 22H6.56C5.88899 22.008 5.24229 21.7491 4.76218 21.2802C4.28208 20.8114 4.00791 20.171 4 19.5V4.5C4.00791 3.82898 4.28208 3.1886 4.76218 2.71975C5.24229 2.2509 5.88899 1.99199 6.56 2H14.56C14.8422 2.00066 15.1109 2.12052 15.3 2.33ZM12 12H9C8.44772 12 8 12.4477 8 13C8 13.5523 8.44772 14 9 14H12C12.5523 14 13 13.5523 13 13C13 12.4477 12.5523 12 12 12ZM9 18C8.44772 18 8 17.5523 8 17C8 16.4477 8.44772 16 9 16H15C15.5523 16 16 16.4477 16 17C16 17.5523 15.5523 18 15 18H9ZM14 7.15C13.9652 7.57956 14.2811 7.95776 14.71 8H17.74L14 4V7.15Z" fill="#4379EE"/>
</svg>
