<svg width="24" height="24" viewBox="0 0 24 24" fill="none" xmlns="http://www.w3.org/2000/svg">
<rect opacity="0.01" width="24" height="24" fill="black"/>
<path fill-rule="evenodd" clip-rule="evenodd" d="M21.1699 10.33H14.4999C14.0415 10.33 13.6699 9.9584 13.6699 9.5V2.83C13.6699 2.3716 14.0415 2 14.4999 2C18.6421 2 21.9999 5.35786 21.9999 9.5C21.9999 9.9584 21.6283 10.33 21.1699 10.33ZM20.2699 8.67C19.9014 6.1098 17.8901 4.09848 15.3299 3.73V8.67H20.2699Z" fill="black"/>
<path d="M21.0799 12H12.9299C12.6885 12 12.4571 11.9041 12.2864 11.7334C12.1157 11.5628 12.0199 11.3313 12.0199 11.09V2.91996C12.0214 2.65761 11.9109 2.40707 11.7161 2.23135C11.5212 2.05563 11.2607 1.97144 10.9999 1.99996C5.77981 2.55425 1.87691 7.05048 2.06198 12.2966C2.24705 17.5427 6.45708 21.7528 11.7032 21.9378C16.9493 22.1229 21.4456 18.22 21.9999 13C22.0223 12.7424 21.9354 12.4873 21.7604 12.2971C21.5854 12.1068 21.3384 11.999 21.0799 12Z" fill="black"/>
</svg>
