<svg width="129" height="53" viewBox="0 0 129 53" fill="none" xmlns="http://www.w3.org/2000/svg">
<g opacity="0.481915" filter="url(#filter0_f_0_40526)">
<rect x="42" y="31" width="45" height="5" rx="2" fill="#4880FF"/>
</g>
<rect width="129" height="34" rx="6" fill="#4880FF"/>
<path d="M33.4573 21L37.2853 12.54H38.5453L42.3733 21H40.8133L39.9733 19.044H35.8453L35.0173 21H33.4573ZM37.8973 14.208L36.3733 17.82H39.4453L37.9213 14.208H37.8973ZM43.155 23.16V15.132H44.619V16.068C44.787 15.748 45.039 15.492 45.375 15.3C45.719 15.108 46.107 15.012 46.539 15.012C47.051 15.012 47.499 15.136 47.883 15.384C48.275 15.632 48.579 15.984 48.795 16.44C49.011 16.888 49.119 17.428 49.119 18.06C49.119 18.684 49.011 19.228 48.795 19.692C48.579 20.148 48.279 20.5 47.895 20.748C47.511 20.996 47.059 21.12 46.539 21.12C46.123 21.12 45.747 21.032 45.411 20.856C45.083 20.672 44.831 20.428 44.655 20.124V23.16H43.155ZM46.119 19.98C46.567 19.98 46.927 19.82 47.199 19.5C47.471 19.172 47.607 18.692 47.607 18.06C47.607 17.42 47.471 16.944 47.199 16.632C46.927 16.312 46.567 16.152 46.119 16.152C45.671 16.152 45.311 16.312 45.039 16.632C44.767 16.944 44.631 17.42 44.631 18.06C44.631 18.692 44.767 19.172 45.039 19.5C45.311 19.82 45.671 19.98 46.119 19.98ZM50.3503 23.16V15.132H51.8143V16.068C51.9823 15.748 52.2343 15.492 52.5703 15.3C52.9143 15.108 53.3023 15.012 53.7343 15.012C54.2463 15.012 54.6943 15.136 55.0783 15.384C55.4703 15.632 55.7743 15.984 55.9903 16.44C56.2063 16.888 56.3143 17.428 56.3143 18.06C56.3143 18.684 56.2063 19.228 55.9903 19.692C55.7743 20.148 55.4743 20.5 55.0903 20.748C54.7063 20.996 54.2543 21.12 53.7343 21.12C53.3183 21.12 52.9423 21.032 52.6063 20.856C52.2783 20.672 52.0263 20.428 51.8503 20.124V23.16H50.3503ZM53.3143 19.98C53.7623 19.98 54.1223 19.82 54.3943 19.5C54.6663 19.172 54.8023 18.692 54.8023 18.06C54.8023 17.42 54.6663 16.944 54.3943 16.632C54.1223 16.312 53.7623 16.152 53.3143 16.152C52.8663 16.152 52.5063 16.312 52.2343 16.632C51.9623 16.944 51.8263 17.42 51.8263 18.06C51.8263 18.692 51.9623 19.172 52.2343 19.5C52.5063 19.82 52.8663 19.98 53.3143 19.98ZM59.5856 21.12C58.8896 21.12 58.3736 20.932 58.0376 20.556C57.7096 20.172 57.5456 19.612 57.5456 18.876V12.54H59.0456V18.804C59.0456 19.524 59.3496 19.884 59.9576 19.884C60.0456 19.884 60.1336 19.88 60.2216 19.872C60.3096 19.864 60.3936 19.848 60.4736 19.824L60.4496 21.012C60.1616 21.084 59.8736 21.12 59.5856 21.12ZM61.7533 23.16L62.8333 20.76L60.3973 15.132H61.9933L63.6373 19.236L65.3173 15.132H66.8293L63.3013 23.16H61.7533ZM70.9201 21V12.54H72.0721L76.6201 18.444V12.54H78.0481V21H76.9081L72.3481 15.072V21H70.9201ZM82.4287 21.12C81.8207 21.12 81.2927 20.996 80.8447 20.748C80.3967 20.5 80.0487 20.148 79.8007 19.692C79.5527 19.228 79.4287 18.684 79.4287 18.06C79.4287 17.436 79.5527 16.896 79.8007 16.44C80.0487 15.984 80.3967 15.632 80.8447 15.384C81.2927 15.136 81.8207 15.012 82.4287 15.012C83.0367 15.012 83.5647 15.136 84.0127 15.384C84.4607 15.632 84.8087 15.984 85.0567 16.44C85.3047 16.896 85.4287 17.436 85.4287 18.06C85.4287 18.684 85.3047 19.228 85.0567 19.692C84.8087 20.148 84.4607 20.5 84.0127 20.748C83.5647 20.996 83.0367 21.12 82.4287 21.12ZM82.4287 19.98C82.8767 19.98 83.2367 19.82 83.5087 19.5C83.7807 19.172 83.9167 18.692 83.9167 18.06C83.9167 17.42 83.7807 16.944 83.5087 16.632C83.2367 16.312 82.8767 16.152 82.4287 16.152C81.9807 16.152 81.6207 16.312 81.3487 16.632C81.0767 16.944 80.9407 17.42 80.9407 18.06C80.9407 18.692 81.0767 19.172 81.3487 19.5C81.6207 19.82 81.9807 19.98 82.4287 19.98ZM88.1695 21L85.8535 15.132H87.3895L88.8895 19.26L90.4015 15.132H91.4575L92.9695 19.284L94.4695 15.132H95.9215L93.6175 21H92.3095L90.8815 17.22L89.4775 21H88.1695Z" fill="white"/>
<defs>
<filter id="filter0_f_0_40526" x="25.6903" y="14.6903" width="77.6194" height="37.6194" filterUnits="userSpaceOnUse" color-interpolation-filters="sRGB">
<feFlood flood-opacity="0" result="BackgroundImageFix"/>
<feBlend mode="normal" in="SourceGraphic" in2="BackgroundImageFix" result="shape"/>
<feGaussianBlur stdDeviation="8.15485" result="effect1_foregroundBlur_0_40526"/>
</filter>
</defs>
</svg>
