<svg width="238" height="43" viewBox="0 0 238 43" fill="none" xmlns="http://www.w3.org/2000/svg">
<rect opacity="0.9" width="238" height="43" rx="8" fill="#4880FF"/>
<path d="M87.0529 25.44V22.598H84.2809V21.366H87.0529V18.608H88.3409V21.366H91.1129V22.598H88.3409V25.44H87.0529ZM101.235 26.14C100.208 26.14 99.3262 25.9347 98.5888 25.524C97.8608 25.104 97.3008 24.516 96.9088 23.76C96.5168 22.9947 96.3208 22.094 96.3208 21.058C96.3208 20.022 96.5168 19.126 96.9088 18.37C97.3008 17.614 97.8608 17.0307 98.5888 16.62C99.3262 16.2 100.208 15.99 101.235 15.99C101.898 15.99 102.523 16.0927 103.111 16.298C103.708 16.5033 104.198 16.7973 104.581 17.18L103.993 18.608C103.573 18.2533 103.144 17.9967 102.705 17.838C102.266 17.67 101.795 17.586 101.291 17.586C100.292 17.586 99.5315 17.8893 99.0088 18.496C98.4862 19.0933 98.2248 19.9473 98.2248 21.058C98.2248 22.1687 98.4862 23.0273 99.0088 23.634C99.5315 24.2407 100.292 24.544 101.291 24.544C101.795 24.544 102.266 24.4647 102.705 24.306C103.144 24.138 103.573 23.8767 103.993 23.522L104.581 24.95C104.198 25.3233 103.708 25.6173 103.111 25.832C102.523 26.0373 101.898 26.14 101.235 26.14ZM108.557 26.14C107.847 26.14 107.231 25.9953 106.709 25.706C106.186 25.4167 105.78 25.006 105.491 24.474C105.201 23.9327 105.057 23.298 105.057 22.57C105.057 21.842 105.201 21.212 105.491 20.68C105.78 20.148 106.186 19.7373 106.709 19.448C107.231 19.1587 107.847 19.014 108.557 19.014C109.266 19.014 109.882 19.1587 110.405 19.448C110.927 19.7373 111.333 20.148 111.623 20.68C111.912 21.212 112.057 21.842 112.057 22.57C112.057 23.298 111.912 23.9327 111.623 24.474C111.333 25.006 110.927 25.4167 110.405 25.706C109.882 25.9953 109.266 26.14 108.557 26.14ZM108.557 24.81C109.079 24.81 109.499 24.6233 109.817 24.25C110.134 23.8673 110.293 23.3073 110.293 22.57C110.293 21.8233 110.134 21.268 109.817 20.904C109.499 20.5307 109.079 20.344 108.557 20.344C108.034 20.344 107.614 20.5307 107.297 20.904C106.979 21.268 106.821 21.8233 106.821 22.57C106.821 23.3073 106.979 23.8673 107.297 24.25C107.614 24.6233 108.034 24.81 108.557 24.81ZM113.479 26V19.154H115.187V20.204C115.392 19.8307 115.677 19.5413 116.041 19.336C116.405 19.1213 116.825 19.014 117.301 19.014C118.328 19.014 119 19.462 119.317 20.358C119.532 19.938 119.84 19.6113 120.241 19.378C120.642 19.1353 121.1 19.014 121.613 19.014C123.153 19.014 123.923 19.952 123.923 21.828V26H122.173V21.898C122.173 21.3753 122.084 20.9927 121.907 20.75C121.739 20.5073 121.45 20.386 121.039 20.386C120.582 20.386 120.222 20.5493 119.961 20.876C119.7 21.1933 119.569 21.6367 119.569 22.206V26H117.819V21.898C117.819 21.3753 117.73 20.9927 117.553 20.75C117.385 20.5073 117.1 20.386 116.699 20.386C116.242 20.386 115.882 20.5493 115.621 20.876C115.36 21.1933 115.229 21.6367 115.229 22.206V26H113.479ZM125.678 28.52V19.154H127.386V20.246C127.582 19.8727 127.876 19.574 128.268 19.35C128.67 19.126 129.122 19.014 129.626 19.014C130.224 19.014 130.746 19.1587 131.194 19.448C131.652 19.7373 132.006 20.148 132.258 20.68C132.51 21.2027 132.636 21.8327 132.636 22.57C132.636 23.298 132.51 23.9327 132.258 24.474C132.006 25.006 131.656 25.4167 131.208 25.706C130.76 25.9953 130.233 26.14 129.626 26.14C129.141 26.14 128.702 26.0373 128.31 25.832C127.928 25.6173 127.634 25.3327 127.428 24.978V28.52H125.678ZM129.136 24.81C129.659 24.81 130.079 24.6233 130.396 24.25C130.714 23.8673 130.872 23.3073 130.872 22.57C130.872 21.8233 130.714 21.268 130.396 20.904C130.079 20.5307 129.659 20.344 129.136 20.344C128.614 20.344 128.194 20.5307 127.876 20.904C127.559 21.268 127.4 21.8233 127.4 22.57C127.4 23.3073 127.559 23.8673 127.876 24.25C128.194 24.6233 128.614 24.81 129.136 24.81ZM137.145 26.14C136.436 26.14 135.82 25.9953 135.297 25.706C134.774 25.4167 134.368 25.006 134.079 24.474C133.79 23.9327 133.645 23.298 133.645 22.57C133.645 21.842 133.79 21.212 134.079 20.68C134.368 20.148 134.774 19.7373 135.297 19.448C135.82 19.1587 136.436 19.014 137.145 19.014C137.854 19.014 138.47 19.1587 138.993 19.448C139.516 19.7373 139.922 20.148 140.211 20.68C140.5 21.212 140.645 21.842 140.645 22.57C140.645 23.298 140.5 23.9327 140.211 24.474C139.922 25.006 139.516 25.4167 138.993 25.706C138.47 25.9953 137.854 26.14 137.145 26.14ZM137.145 24.81C137.668 24.81 138.088 24.6233 138.405 24.25C138.722 23.8673 138.881 23.3073 138.881 22.57C138.881 21.8233 138.722 21.268 138.405 20.904C138.088 20.5307 137.668 20.344 137.145 20.344C136.622 20.344 136.202 20.5307 135.885 20.904C135.568 21.268 135.409 21.8233 135.409 22.57C135.409 23.3073 135.568 23.8673 135.885 24.25C136.202 24.6233 136.622 24.81 137.145 24.81ZM144.545 26.14C143.967 26.14 143.425 26.07 142.921 25.93C142.417 25.79 141.997 25.5893 141.661 25.328L142.109 24.18C142.455 24.4133 142.842 24.5953 143.271 24.726C143.701 24.8473 144.13 24.908 144.559 24.908C145.007 24.908 145.339 24.8333 145.553 24.684C145.777 24.5253 145.889 24.32 145.889 24.068C145.889 23.676 145.6 23.424 145.021 23.312L143.621 23.046C142.436 22.822 141.843 22.206 141.843 21.198C141.843 20.75 141.965 20.3627 142.207 20.036C142.459 19.7093 142.805 19.4573 143.243 19.28C143.682 19.1027 144.186 19.014 144.755 19.014C145.241 19.014 145.707 19.084 146.155 19.224C146.603 19.3547 146.986 19.5553 147.303 19.826L146.827 20.974C146.557 20.75 146.23 20.5727 145.847 20.442C145.474 20.3113 145.115 20.246 144.769 20.246C144.312 20.246 143.971 20.3253 143.747 20.484C143.533 20.6427 143.425 20.8527 143.425 21.114C143.425 21.5247 143.691 21.7767 144.223 21.87L145.623 22.136C146.23 22.248 146.687 22.4533 146.995 22.752C147.313 23.0507 147.471 23.452 147.471 23.956C147.471 24.6373 147.205 25.174 146.673 25.566C146.141 25.9487 145.432 26.14 144.545 26.14ZM152.199 26.14C151.425 26.14 150.757 25.9953 150.197 25.706C149.637 25.4167 149.203 25.006 148.895 24.474C148.597 23.942 148.447 23.312 148.447 22.584C148.447 21.8747 148.592 21.254 148.881 20.722C149.18 20.19 149.586 19.7747 150.099 19.476C150.622 19.168 151.215 19.014 151.877 19.014C152.848 19.014 153.613 19.322 154.173 19.938C154.743 20.554 155.027 21.394 155.027 22.458V22.976H150.127C150.258 24.1987 150.958 24.81 152.227 24.81C152.61 24.81 152.993 24.754 153.375 24.642C153.758 24.5207 154.108 24.334 154.425 24.082L154.915 25.258C154.589 25.5287 154.178 25.7433 153.683 25.902C153.189 26.0607 152.694 26.14 152.199 26.14ZM151.947 20.204C151.434 20.204 151.019 20.3627 150.701 20.68C150.384 20.9973 150.193 21.4267 150.127 21.968H153.571C153.534 21.3987 153.375 20.9647 153.095 20.666C152.825 20.358 152.442 20.204 151.947 20.204Z" fill="white"/>
</svg>
