<svg width="129" height="27" viewBox="0 0 129 27" fill="none" xmlns="http://www.w3.org/2000/svg">
<path d="M7.4 14.34H2.42L2.74 12.56H7.02L7.4 14.34ZM5.02 9L2.74 17H0.22L4.32 4.5H5.7L9.8 17H7.24L5.02 9ZM14.46 17.24C13.9267 17.24 13.4267 17.14 12.96 16.94C12.4933 16.7267 12.08 16.4133 11.72 16C11.36 15.5867 11.08 15.0733 10.88 14.46C10.68 13.8333 10.58 13.1133 10.58 12.3C10.58 11.5 10.6733 10.7933 10.86 10.18C11.0467 9.56667 11.3133 9.06 11.66 8.66C12.0067 8.24667 12.42 7.94 12.9 7.74C13.38 7.52667 13.9 7.42 14.46 7.42C14.74 7.42 15.0067 7.44667 15.26 7.5C15.5267 7.55333 15.7733 7.64667 16 7.78C16.2267 7.91333 16.4133 8.10667 16.56 8.36V3.54H19.1H19.28V3.74C19.2133 3.82 19.1667 3.90667 19.14 4C19.1133 4.09333 19.1067 4.25333 19.12 4.48L19.08 15.82C19.08 16.02 19.0933 16.22 19.12 16.42C19.1467 16.6067 19.2067 16.8 19.3 17H16.8C16.7333 16.8667 16.6867 16.76 16.66 16.68C16.6333 16.6 16.62 16.52 16.62 16.44C16.62 16.36 16.62 16.2533 16.62 16.12C16.46 16.3733 16.2667 16.5867 16.04 16.76C15.8133 16.92 15.5667 17.04 15.3 17.12C15.0333 17.2 14.7533 17.24 14.46 17.24ZM14.9 15.22C15.1667 15.22 15.4 15.1667 15.6 15.06C15.8133 14.94 15.9867 14.7667 16.12 14.54C16.2667 14.3133 16.3733 14.0133 16.44 13.64C16.5067 13.2667 16.54 12.82 16.54 12.3C16.54 11.6067 16.48 11.0467 16.36 10.62C16.24 10.18 16.0533 9.86 15.8 9.66C15.56 9.46 15.2467 9.36 14.86 9.36C14.58 9.36 14.3267 9.43333 14.1 9.58C13.8733 9.71333 13.68 9.90667 13.52 10.16C13.3733 10.4133 13.26 10.7267 13.18 11.1C13.1 11.46 13.06 11.8667 13.06 12.32C13.06 12.92 13.1467 13.44 13.32 13.88C13.5067 14.32 13.74 14.6533 14.02 14.88C14.3 15.1067 14.5933 15.22 14.9 15.22ZM23.86 17.24C22.8467 17.24 22.0533 17 21.48 16.52C20.9067 16.0267 20.62 15.3867 20.62 14.6C20.62 14.0933 20.7267 13.6333 20.94 13.22C21.1667 12.7933 21.5 12.42 21.94 12.1C22.3933 11.78 22.96 11.5333 23.64 11.36C24.32 11.1733 25.1133 11.08 26.02 11.08C26.1 11.08 26.2067 11.0867 26.34 11.1C26.4733 11.1 26.62 11.1 26.78 11.1C26.94 11.1 27.0867 11.1067 27.22 11.12L27.28 12.84C27.1733 12.8267 27.0333 12.82 26.86 12.82C26.7 12.82 26.5333 12.82 26.36 12.82C26.1867 12.82 26.0467 12.82 25.94 12.82C25.38 12.82 24.92 12.86 24.56 12.94C24.2133 13.0067 23.9333 13.1067 23.72 13.24C23.52 13.3733 23.38 13.5267 23.3 13.7C23.22 13.8733 23.18 14.06 23.18 14.26C23.18 14.4333 23.2067 14.5933 23.26 14.74C23.3267 14.8733 23.4133 14.98 23.52 15.06C23.6267 15.1267 23.7533 15.18 23.9 15.22C24.06 15.26 24.2267 15.28 24.4 15.28C24.76 15.28 25.0733 15.22 25.34 15.1C25.6067 14.98 25.8267 14.7933 26 14.54C26.1867 14.2733 26.32 13.94 26.4 13.54C26.4933 13.1267 26.54 12.64 26.54 12.08C26.54 11.3467 26.4667 10.7867 26.32 10.4C26.1733 10.0133 25.9667 9.74667 25.7 9.6C25.4333 9.45333 25.1 9.38 24.7 9.38C24.2867 9.38 23.8933 9.44667 23.52 9.58C23.16 9.7 22.7933 9.95333 22.42 10.34L21 8.84C21.56 8.32 22.1667 7.95333 22.82 7.74C23.4867 7.52667 24.1467 7.42 24.8 7.42C25.3733 7.42 25.9133 7.48667 26.42 7.62C26.94 7.75333 27.3933 7.97333 27.78 8.28C28.18 8.57333 28.4933 8.98667 28.72 9.52C28.9467 10.04 29.06 10.6933 29.06 11.48V17H26.46V16.12C26.2867 16.32 26.1067 16.4933 25.92 16.64C25.7467 16.7867 25.5533 16.9067 25.34 17C25.1267 17.08 24.9 17.14 24.66 17.18C24.42 17.22 24.1533 17.24 23.86 17.24ZM30.88 20.34L30.86 7.62H33.36V8.76C33.5867 8.44 33.8267 8.18667 34.08 8C34.3467 7.8 34.6333 7.65333 34.94 7.56C35.2467 7.46667 35.5733 7.42 35.92 7.42C36.4267 7.42 36.9 7.52667 37.34 7.74C37.78 7.95333 38.1667 8.27333 38.5 8.7C38.8333 9.11333 39.0933 9.62667 39.28 10.24C39.4667 10.8533 39.56 11.5667 39.56 12.38C39.56 13.1933 39.46 13.9067 39.26 14.52C39.06 15.1333 38.7867 15.6467 38.44 16.06C38.1067 16.46 37.7133 16.76 37.26 16.96C36.82 17.1467 36.36 17.24 35.88 17.24C35.56 17.24 35.2467 17.2067 34.94 17.14C34.6333 17.0733 34.3467 16.9733 34.08 16.84C33.8267 16.7067 33.6133 16.54 33.44 16.34V20.34H30.88ZM35.12 15.32C35.4133 15.32 35.6733 15.2667 35.9 15.16C36.14 15.0533 36.3467 14.8867 36.52 14.66C36.6933 14.42 36.8267 14.1 36.92 13.7C37.0133 13.2867 37.06 12.7933 37.06 12.22C37.06 11.6333 36.98 11.1267 36.82 10.7C36.6733 10.2733 36.46 9.94667 36.18 9.72C35.9133 9.49333 35.5933 9.38 35.22 9.38C34.9267 9.38 34.6667 9.44 34.44 9.56C34.2133 9.66667 34.0267 9.84667 33.88 10.1C33.7333 10.34 33.62 10.66 33.54 11.06C33.4733 11.4467 33.44 11.9067 33.44 12.44C33.44 12.8267 33.46 13.18 33.5 13.5C33.5533 13.8067 33.62 14.0733 33.7 14.3C33.7933 14.5267 33.9067 14.72 34.04 14.88C34.1733 15.0267 34.3267 15.14 34.5 15.22C34.6867 15.2867 34.8933 15.32 35.12 15.32ZM45.98 17.22C45.4733 17.22 45.0133 17.14 44.6 16.98C44.2 16.82 43.86 16.5533 43.58 16.18C43.3133 15.7933 43.1133 15.28 42.98 14.64C42.8467 14 42.8 13.2 42.84 12.24L43.12 5.48L45.72 5.14L45.9 5.12L45.92 5.34C45.8667 5.43333 45.8133 5.52667 45.76 5.62C45.7067 5.71333 45.6733 5.87333 45.66 6.1L45.42 9L45.54 9.08L45.38 12.14C45.34 12.9533 45.3667 13.5867 45.46 14.04C45.5667 14.48 45.72 14.7867 45.92 14.96C46.12 15.12 46.3467 15.2 46.6 15.2C47.0133 15.2 47.3867 15.1133 47.72 14.94C48.0667 14.7667 48.38 14.5667 48.66 14.34L49.14 16.16C48.6867 16.4933 48.2 16.7533 47.68 16.94C47.16 17.1267 46.5933 17.22 45.98 17.22ZM41.1 7.64H48.46L48.42 9.64H41.06L41.1 7.64Z" fill="#4880FF"/>
<path d="M57.4 14.34H52.42L52.74 12.56H57.02L57.4 14.34ZM55.02 9L52.74 17H50.22L54.32 4.5H55.7L59.8 17H57.24L55.02 9ZM61.34 17V14.96H63.76V6.58H61.46V4.54H68.58V6.58H66.16V14.96H68.68V17H61.34Z" fill="#202224"/>
</svg>
