<svg width="130" height="27" viewBox="0 0 130 27" fill="none" xmlns="http://www.w3.org/2000/svg">
<g opacity="0.01" filter="url(#filter0_i_0_40364)">
<rect x="1" width="129" height="27" fill="#273142"/>
</g>
<path d="M0.8 20L7.28 5.9H9.78L16.26 20H13.14L11.82 16.94H5.24L3.94 20H0.8ZM8.5 9.2L6.28 14.52H10.8L8.54 9.2H8.5ZM20.9409 20.22C20.0876 20.22 19.3343 20.0133 18.6809 19.6C18.0409 19.1733 17.5409 18.58 17.1809 17.82C16.8209 17.0467 16.6409 16.1333 16.6409 15.08C16.6409 14.0267 16.8209 13.12 17.1809 12.36C17.5409 11.6 18.0409 11.0133 18.6809 10.6C19.3343 10.1867 20.0876 9.98 20.9409 9.98C21.5943 9.98 22.1943 10.12 22.7409 10.4C23.2876 10.68 23.7009 11.0533 23.9809 11.52V5.9H27.0009V20H24.0409V18.52C23.7743 19.04 23.3609 19.4533 22.8009 19.76C22.2543 20.0667 21.6343 20.22 20.9409 20.22ZM21.8409 17.96C22.4809 17.96 23.0009 17.7267 23.4009 17.26C23.8143 16.7933 24.0209 16.0667 24.0209 15.08C24.0209 14.1067 23.8143 13.3933 23.4009 12.94C23.0009 12.4733 22.4809 12.24 21.8409 12.24C21.2009 12.24 20.6809 12.4733 20.2809 12.94C19.8809 13.3933 19.6809 14.1067 19.6809 15.08C19.6809 16.0667 19.8809 16.7933 20.2809 17.26C20.6809 17.7267 21.2009 17.96 21.8409 17.96ZM32.648 20.22C31.9146 20.22 31.268 20.08 30.708 19.8C30.148 19.52 29.7013 19.14 29.368 18.66C29.048 18.18 28.888 17.64 28.888 17.04C28.888 16.3333 29.0746 15.7667 29.448 15.34C29.8213 14.9133 30.428 14.6133 31.268 14.44C32.108 14.2533 33.2213 14.16 34.608 14.16H35.328V13.82C35.328 13.2333 35.1946 12.82 34.928 12.58C34.6613 12.3267 34.208 12.2 33.568 12.2C33.0346 12.2 32.468 12.2867 31.868 12.46C31.2813 12.62 30.6946 12.8667 30.108 13.2L29.288 11.18C29.6346 10.9533 30.0546 10.7467 30.548 10.56C31.0546 10.3733 31.5813 10.2333 32.128 10.14C32.6746 10.0333 33.1946 9.98 33.688 9.98C35.208 9.98 36.3413 10.3267 37.088 11.02C37.8346 11.7 38.208 12.76 38.208 14.2V20H35.388V18.52C35.188 19.04 34.848 19.4533 34.368 19.76C33.9013 20.0667 33.328 20.22 32.648 20.22ZM33.328 18.2C33.888 18.2 34.3613 18.0067 34.748 17.62C35.1346 17.2333 35.328 16.7333 35.328 16.12V15.72H34.628C33.6013 15.72 32.8746 15.8133 32.448 16C32.0213 16.1733 31.808 16.48 31.808 16.92C31.808 17.2933 31.9346 17.6 32.188 17.84C32.4546 18.08 32.8346 18.2 33.328 18.2ZM40.4608 23.6V10.18H43.4208V11.64C43.6874 11.1333 44.0941 10.7333 44.6408 10.44C45.2008 10.1333 45.8274 9.98 46.5208 9.98C47.3741 9.98 48.1208 10.1867 48.7608 10.6C49.4141 11.0133 49.9208 11.6 50.2808 12.36C50.6408 13.12 50.8208 14.0267 50.8208 15.08C50.8208 16.1333 50.6408 17.0467 50.2808 17.82C49.9208 18.58 49.4141 19.1733 48.7608 19.6C48.1208 20.0133 47.3741 20.22 46.5208 20.22C45.8674 20.22 45.2674 20.08 44.7208 19.8C44.1874 19.52 43.7741 19.1467 43.4808 18.68V23.6H40.4608ZM45.6208 17.96C46.2608 17.96 46.7808 17.7267 47.1808 17.26C47.5808 16.7933 47.7808 16.0667 47.7808 15.08C47.7808 14.1067 47.5808 13.3933 47.1808 12.94C46.7808 12.4733 46.2608 12.24 45.6208 12.24C44.9674 12.24 44.4408 12.4733 44.0408 12.94C43.6408 13.3933 43.4408 14.1067 43.4408 15.08C43.4408 16.0667 43.6408 16.7933 44.0408 17.26C44.4408 17.7267 44.9674 17.96 45.6208 17.96ZM57.3902 20.22C54.6302 20.22 53.2502 18.88 53.2502 16.2V12.44H51.3902V10.18H53.2502V7.3H56.2702V10.18H59.1702V12.44H56.2702V16.08C56.2702 16.64 56.3968 17.06 56.6502 17.34C56.9168 17.62 57.3368 17.76 57.9102 17.76C58.0835 17.76 58.2635 17.74 58.4502 17.7C58.6502 17.66 58.8635 17.6067 59.0902 17.54L59.5302 19.74C59.2502 19.8867 58.9168 20 58.5302 20.08C58.1435 20.1733 57.7635 20.22 57.3902 20.22Z" fill="#4880FF"/>
<path d="M59.2961 20L65.7761 5.9H68.2761L74.7561 20H71.6361L70.3161 16.94H63.7361L62.4361 20H59.2961ZM66.9961 9.2L64.7761 14.52H69.2961L67.0361 9.2H66.9961ZM75.9747 20V5.9H79.0747V20H75.9747Z" fill="white"/>
<defs>
<filter id="filter0_i_0_40364" x="1" y="0" width="129" height="27" filterUnits="userSpaceOnUse" color-interpolation-filters="sRGB">
<feFlood flood-opacity="0" result="BackgroundImageFix"/>
<feBlend mode="normal" in="SourceGraphic" in2="BackgroundImageFix" result="shape"/>
<feColorMatrix in="SourceAlpha" type="matrix" values="0 0 0 0 0 0 0 0 0 0 0 0 0 0 0 0 0 0 127 0" result="hardAlpha"/>
<feOffset dx="-1"/>
<feComposite in2="hardAlpha" operator="arithmetic" k2="-1" k3="1"/>
<feColorMatrix type="matrix" values="0 0 0 0 0.192157 0 0 0 0 0.239216 0 0 0 0 0.309804 0 0 0 1 0"/>
<feBlend mode="normal" in2="shape" result="effect1_innerShadow_0_40364"/>
</filter>
</defs>
</svg>
