<svg xmlns="http://www.w3.org/2000/svg" fill="none" viewBox="0 0 129 27">
    <path fill="#4880FF"
          d="M7.4 14.34H2.42l.32-1.78h4.28zM5.02 9l-2.28 8H.22l4.1-12.5H5.7L9.8 17H7.24zm9.44 8.24q-.8 0-1.5-.3a3.65 3.65 0 0 1-1.24-.94q-.54-.62-.84-1.54-.3-.94-.3-2.16 0-1.2.28-2.12t.8-1.52q.52-.62 1.24-.92.72-.32 1.56-.32.42 0 .8.08.4.08.74.28t.56.58V3.54h2.72v.2a.7.7 0 0 0-.14.26q-.04.14-.02.48l-.04 11.34q0 .3.04.6.04.28.18.58h-2.5a3 3 0 0 1-.14-.32.8.8 0 0 1-.04-.24v-.32a2.4 2.4 0 0 1-.58.64 2.5 2.5 0 0 1-.74.36q-.4.12-.84.12m.44-2.02q.4 0 .7-.16a1.4 1.4 0 0 0 .52-.52q.22-.34.32-.9t.1-1.34q0-1.04-.18-1.68-.18-.66-.56-.96-.36-.3-.94-.3-.42 0-.76.22-.34.2-.58.58-.22.38-.34.94-.12.54-.12 1.22 0 .9.26 1.56.28.66.7 1t.88.34m8.96 2.02q-1.52 0-2.38-.72-.86-.74-.86-1.92 0-.76.32-1.38.34-.64 1-1.12.68-.48 1.7-.74 1.02-.28 2.38-.28.12 0 .32.02h.44q.24 0 .44.02l.06 1.72a4 4 0 0 0-.42-.02h-.92q-.84 0-1.38.12-.52.1-.84.3-.3.2-.42.46t-.12.56q0 .26.08.48.1.2.26.32.16.1.38.16.24.06.5.06.54 0 .94-.18t.66-.56q.28-.4.4-1 .14-.62.14-1.46 0-1.1-.22-1.68t-.62-.8-1-.22q-.62 0-1.18.2-.54.18-1.1.76L21 8.84q.84-.78 1.82-1.1a6.47 6.47 0 0 1 3.6-.12q.78.2 1.36.66.6.44.94 1.24.34.78.34 1.96V17h-2.6v-.88q-.26.3-.54.52a2.4 2.4 0 0 1-.58.36q-.32.12-.68.18t-.8.06m7.02 3.1-.02-12.72h2.5v1.14q.34-.48.72-.76.4-.3.86-.44t.98-.14q.76 0 1.42.32t1.16.96q.5.62.78 1.54t.28 2.14-.3 2.14-.82 1.54q-.5.6-1.18.9-.66.28-1.38.28a4.4 4.4 0 0 1-.94-.1 3.7 3.7 0 0 1-.86-.3 2.2 2.2 0 0 1-.64-.5v4zm4.24-5.02q.44 0 .78-.16.36-.16.62-.5.26-.36.4-.96.14-.62.14-1.48 0-.88-.24-1.52-.22-.64-.64-.98a1.43 1.43 0 0 0-.96-.34q-.44 0-.78.18a1.3 1.3 0 0 0-.56.54q-.22.36-.34.96a8 8 0 0 0-.1 1.38q0 .58.06 1.06.08.46.2.8.14.34.34.58.2.22.46.34.28.1.62.1m10.86 1.9q-.76 0-1.38-.24a2.36 2.36 0 0 1-1.02-.8q-.4-.58-.6-1.54t-.14-2.4l.28-6.76 2.6-.34.18-.02.02.22-.16.28q-.08.14-.1.48L45.42 9l.12.08-.16 3.06q-.06 1.22.08 1.9.16.66.46.92.3.24.68.24.62 0 1.12-.26.52-.26.94-.6l.48 1.82q-.68.5-1.46.78t-1.7.28M41.1 7.64h7.36l-.04 2h-7.36z"/>
    <path fill="#202224"
          d="M57.4 14.34h-4.98l.32-1.78h4.28zM55.02 9l-2.28 8h-2.52l4.1-12.5h1.38L59.8 17h-2.56zm6.32 8v-2.04h2.42V6.58h-2.3V4.54h7.12v2.04h-2.42v8.38h2.52V17z"/>
</svg>
