<svg xmlns="http://www.w3.org/2000/svg" fill="none" viewBox="0 0 130 27">
    <g filter="url(#a)" opacity=".01">
        <path fill="#273142" d="M1 0h129v27H1z"/>
    </g>
    <path fill="#4880FF"
          d="M.8 20 7.28 5.9h2.5L16.26 20h-3.12l-1.32-3.06H5.24L3.94 20zM8.5 9.2l-2.22 5.32h4.52L8.54 9.2zm12.44 11.02q-1.279 0-2.26-.62-.96-.64-1.5-1.78-.54-1.16-.54-2.74t.54-2.72 1.5-1.76q.982-.62 2.26-.62.981 0 1.8.42.821.42 1.24 1.12V5.9H27V20h-2.96v-1.48q-.4.78-1.24 1.24-.819.46-1.86.46m.9-2.26q.96 0 1.56-.7.62-.7.62-2.18 0-1.46-.62-2.14-.6-.7-1.56-.7t-1.56.7q-.6.68-.6 2.14 0 1.48.6 2.18t1.56.7m10.808 2.26q-1.1 0-1.94-.42a3.5 3.5 0 0 1-1.34-1.14q-.48-.72-.48-1.62 0-1.06.56-1.7t1.82-.9q1.26-.28 3.34-.28h.72v-.34q0-.88-.4-1.24-.4-.38-1.36-.38-.8 0-1.7.26a7.6 7.6 0 0 0-1.76.74l-.82-2.02a6.5 6.5 0 0 1 1.26-.62 9 9 0 0 1 1.58-.42 8 8 0 0 1 1.56-.16q2.28 0 3.4 1.04 1.12 1.02 1.12 3.18V20h-2.82v-1.48q-.3.78-1.02 1.24-.7.46-1.72.46m.68-2.02q.84 0 1.42-.58t.58-1.5v-.4h-.7q-1.54 0-2.18.28-.64.26-.64.92 0 .56.38.92.4.36 1.14.36m7.133 5.4V10.18h2.96v1.46q.4-.76 1.22-1.2a3.85 3.85 0 0 1 1.88-.46q1.28 0 2.24.62.98.62 1.52 1.76t.54 2.72-.54 2.74q-.54 1.14-1.52 1.78-.96.62-2.24.62a3.9 3.9 0 0 1-1.8-.42 3.16 3.16 0 0 1-1.24-1.12v4.92zm5.16-5.64q.96 0 1.56-.7t.6-2.18q0-1.46-.6-2.14-.6-.7-1.56-.7-.98 0-1.58.7-.6.68-.6 2.14 0 1.48.6 2.18t1.58.7m11.77 2.26q-4.14 0-4.14-4.02v-3.76h-1.86v-2.26h1.86V7.3h3.02v2.88h2.9v2.26h-2.9v3.64q0 .84.38 1.26.399.42 1.26.42.258 0 .54-.06.3-.06.64-.16l.44 2.2q-.42.22-1 .34a5 5 0 0 1-1.14.14"/>
    <path fill="#fff"
          d="m59.296 20 6.48-14.1h2.5l6.48 14.1h-3.12l-1.32-3.06h-6.58l-1.3 3.06zm7.7-10.8-2.22 5.32h4.52l-2.26-5.32zM75.975 20V5.9h3.1V20z"/>
    <defs>
        <filter id="a" width="129" height="27" x="1" y="0" color-interpolation-filters="sRGB"
                filterUnits="userSpaceOnUse">
            <feFlood flood-opacity="0" result="BackgroundImageFix"/>
            <feBlend in="SourceGraphic" in2="BackgroundImageFix" result="shape"/>
            <feColorMatrix in="SourceAlpha" result="hardAlpha" values="0 0 0 0 0 0 0 0 0 0 0 0 0 0 0 0 0 0 127 0"/>
            <feOffset dx="-1"/>
            <feComposite in2="hardAlpha" k2="-1" k3="1" operator="arithmetic"/>
            <feColorMatrix values="0 0 0 0 0.192157 0 0 0 0 0.239216 0 0 0 0 0.309804 0 0 0 1 0"/>
            <feBlend in2="shape" result="effect1_innerShadow_0_40364"/>
        </filter>
    </defs>
</svg>
