<svg xmlns="http://www.w3.org/2000/svg" fill="none" viewBox="0 0 238 43">
    <rect width="238" height="43" fill="#4880FF" opacity=".9" rx="8"/>
    <path fill="#fff"
          d="M87.053 25.44v-2.842H84.28v-1.232h2.772v-2.758h1.288v2.758h2.772v1.232H88.34v2.842zm14.182.7q-1.54 0-2.646-.616a4.25 4.25 0 0 1-1.68-1.764q-.588-1.148-.588-2.702t.588-2.688a4.16 4.16 0 0 1 1.68-1.75q1.105-.63 2.646-.63a5.7 5.7 0 0 1 1.876.308q.896.308 1.47.882l-.588 1.428a4.2 4.2 0 0 0-1.288-.77 3.9 3.9 0 0 0-1.414-.252q-1.499 0-2.282.91-.784.896-.784 2.562t.784 2.576 2.282.91q.756 0 1.414-.238a4.5 4.5 0 0 0 1.288-.784l.588 1.428q-.574.56-1.47.882a5.7 5.7 0 0 1-1.876.308m7.322 0q-1.065 0-1.848-.434t-1.218-1.232q-.435-.812-.434-1.904 0-1.092.434-1.89a3.03 3.03 0 0 1 1.218-1.232q.783-.434 1.848-.434 1.063 0 1.848.434.783.434 1.218 1.232t.434 1.89q0 1.092-.434 1.904-.435.798-1.218 1.232-.785.434-1.848.434m0-1.33q.783 0 1.26-.56.476-.575.476-1.68 0-1.12-.476-1.666-.477-.56-1.26-.56-.784 0-1.26.56-.477.547-.476 1.666 0 1.105.476 1.68.475.56 1.26.56m4.922 1.19v-6.846h1.708v1.05q.308-.56.854-.868a2.43 2.43 0 0 1 1.26-.322q1.54 0 2.016 1.344.323-.63.924-.98a2.6 2.6 0 0 1 1.372-.364q2.31 0 2.31 2.814V26h-1.75v-4.102q0-.784-.266-1.148-.252-.364-.868-.364-.686 0-1.078.49-.392.475-.392 1.33V26h-1.75v-4.102q0-.784-.266-1.148-.252-.364-.854-.364-.686 0-1.078.49-.392.475-.392 1.33V26zm12.199 2.52v-9.366h1.708v1.092a2.2 2.2 0 0 1 .882-.896 2.74 2.74 0 0 1 1.358-.336q.897 0 1.568.434.686.434 1.064 1.232.378.784.378 1.89 0 1.092-.378 1.904-.378.798-1.05 1.232t-1.582.434q-.728 0-1.316-.308a2.3 2.3 0 0 1-.882-.854v3.542zm3.458-3.71q.785 0 1.26-.56.477-.575.476-1.68 0-1.12-.476-1.666-.475-.56-1.26-.56-.783 0-1.26.56-.476.547-.476 1.666 0 1.105.476 1.68.477.56 1.26.56m8.009 1.33q-1.064 0-1.848-.434-.785-.434-1.218-1.232-.434-.812-.434-1.904t.434-1.89a3.03 3.03 0 0 1 1.218-1.232q.785-.434 1.848-.434t1.848.434 1.218 1.232.434 1.89-.434 1.904a3.03 3.03 0 0 1-1.218 1.232q-.785.434-1.848.434m0-1.33q.785 0 1.26-.56.476-.575.476-1.68 0-1.12-.476-1.666-.475-.56-1.26-.56t-1.26.56q-.476.547-.476 1.666 0 1.105.476 1.68.476.56 1.26.56m7.4 1.33a6 6 0 0 1-1.624-.21q-.756-.21-1.26-.602l.448-1.148a4.3 4.3 0 0 0 1.162.546q.645.182 1.288.182.672 0 .994-.224.336-.238.336-.616 0-.588-.868-.756l-1.4-.266q-1.778-.336-1.778-1.848 0-.672.364-1.162.379-.49 1.036-.756.659-.266 1.512-.266.728 0 1.4.21.672.195 1.148.602l-.476 1.148a3.1 3.1 0 0 0-.98-.532 3.3 3.3 0 0 0-1.078-.196q-.686 0-1.022.238a.75.75 0 0 0-.322.63q0 .616.798.756l1.4.266q.91.168 1.372.616.477.448.476 1.204 0 1.022-.798 1.61-.798.574-2.128.574m7.654 0q-1.161 0-2.002-.434a3.13 3.13 0 0 1-1.302-1.232q-.447-.798-.448-1.89 0-1.065.434-1.862a3.26 3.26 0 0 1 1.218-1.246q.785-.462 1.778-.462 1.456 0 2.296.924.854.924.854 2.52v.518h-4.9q.197 1.834 2.1 1.834.575 0 1.148-.168a3.3 3.3 0 0 0 1.05-.56l.49 1.176q-.49.405-1.232.644a4.8 4.8 0 0 1-1.484.238m-.252-5.936q-.77 0-1.246.476-.475.476-.574 1.288h3.444q-.056-.854-.476-1.302-.405-.462-1.148-.462"/>
</svg>
